  0
SECTION
  2
BLOCKS
  0
ENDSEC
  0
SECTION
  2
ENTITIES
  0
LINE
  8
0
 10
19.5
 20
64
 11
30.5
 21
64
  0
LINE
  8
0
 10
30.5
 20
64
 11
30.5
 21
52.0274
  0
LINE
  8
0
 10
30.5
 20
52.0274
 11
45.5226
 21
52.0274
  0
LINE
  8
0
 10
45.5226
 20
52.0274
 11
46.5451
 21
52.2447
  0
LINE
  8
0
 10
46.5451
 20
52.2447
 11
47.5
 21
52.6699
  0
LINE
  8
0
 10
47.5
 20
52.6699
 11
48.3456
 21
53.2843
  0
LINE
  8
0
 10
48.3456
 20
53.2843
 11
49.0451
 21
54.0611
  0
LINE
  8
0
 10
49.0451
 20
54.0611
 11
49.5677
 21
54.9663
  0
LINE
  8
0
 10
49.5677
 20
54.9663
 11
49.8907
 21
55.9604
  0
LINE
  8
0
 10
49.8907
 20
55.9604
 11
50
 21
57
  0
LINE
  8
0
 10
50
 20
57
 11
50
 21
71.5
  0
LINE
  8
0
 10
50
 20
71.5
 11
38
 21
71.5
  0
LINE
  8
0
 10
38
 20
71.5
 11
38
 21
82.5
  0
LINE
  8
0
 10
38
 20
82.5
 11
50
 21
82.5
  0
LINE
  8
0
 10
50
 20
82.5
 11
50
 21
97
  0
LINE
  8
0
 10
50
 20
97
 11
49.8907
 21
98.0396
  0
LINE
  8
0
 10
49.8907
 20
98.0396
 11
49.5677
 21
99.0337
  0
LINE
  8
0
 10
49.5677
 20
99.0337
 11
49.0451
 21
99.9389
  0
LINE
  8
0
 10
49.0451
 20
99.9389
 11
48.3456
 21
100.716
  0
LINE
  8
0
 10
48.3456
 20
100.716
 11
47.5
 21
101.33
  0
LINE
  8
0
 10
47.5
 20
101.33
 11
46.5451
 21
101.755
  0
LINE
  8
0
 10
46.5451
 20
101.755
 11
45.5226
 21
101.973
  0
LINE
  8
0
 10
45.5226
 20
101.973
 11
31
 21
101.973
  0
LINE
  8
0
 10
31
 20
101.973
 11
31
 21
92
  0
LINE
  8
0
 10
31
 20
92
 11
19
 21
92
  0
LINE
  8
0
 10
19
 20
92
 11
19
 21
101.973
  0
LINE
  8
0
 10
19
 20
101.973
 11
4.47736
 21
101.973
  0
LINE
  8
0
 10
4.47736
 20
101.973
 11
3.45491
 21
101.755
  0
LINE
  8
0
 10
3.45491
 20
101.755
 11
2.5
 21
101.33
  0
LINE
  8
0
 10
2.5
 20
101.33
 11
1.65434
 21
100.716
  0
LINE
  8
0
 10
1.65434
 20
100.716
 11
0.95491
 21
99.9389
  0
LINE
  8
0
 10
0.95491
 20
99.9389
 11
0.432266
 21
99.0337
  0
LINE
  8
0
 10
0.432266
 20
99.0337
 11
0.109253
 21
98.0396
  0
LINE
  8
0
 10
0.109253
 20
98.0396
 11
0
 21
97
  0
LINE
  8
0
 10
0
 20
97
 11
0
 21
82.5
  0
LINE
  8
0
 10
0
 20
82.5
 11
12
 21
82.5
  0
LINE
  8
0
 10
12
 20
82.5
 11
12
 21
71.5
  0
LINE
  8
0
 10
12
 20
71.5
 11
0
 21
71.5
  0
LINE
  8
0
 10
0
 20
71.5
 11
0
 21
57
  0
LINE
  8
0
 10
0
 20
57
 11
0.109253
 21
55.9604
  0
LINE
  8
0
 10
0.109253
 20
55.9604
 11
0.432266
 21
54.9663
  0
LINE
  8
0
 10
0.432266
 20
54.9663
 11
0.95491
 21
54.0611
  0
LINE
  8
0
 10
0.95491
 20
54.0611
 11
1.65434
 21
53.2843
  0
LINE
  8
0
 10
1.65434
 20
53.2843
 11
2.49998
 21
52.6699
  0
LINE
  8
0
 10
2.49998
 20
52.6699
 11
3.45491
 21
52.2447
  0
LINE
  8
0
 10
3.45491
 20
52.2447
 11
4.47736
 21
52.0274
  0
LINE
  8
0
 10
4.47736
 20
52.0274
 11
19.5
 21
52.0274
  0
LINE
  8
0
 10
19.5
 20
52.0274
 11
19.5
 21
64
  0
LINE
  8
0
 10
4.84842
 20
95.5579
 11
4.55191
 21
95.621
  0
LINE
  8
0
 10
4.55191
 20
95.621
 11
4.27499
 21
95.7443
  0
LINE
  8
0
 10
4.27499
 20
95.7443
 11
4.02975
 21
95.9224
  0
LINE
  8
0
 10
4.02975
 20
95.9224
 11
3.82692
 21
96.1477
  0
LINE
  8
0
 10
3.82692
 20
96.1477
 11
3.67535
 21
96.4102
  0
LINE
  8
0
 10
3.67535
 20
96.4102
 11
3.58168
 21
96.6985
  0
LINE
  8
0
 10
3.58168
 20
96.6985
 11
3.54999
 21
97
  0
LINE
  8
0
 10
3.54999
 20
97
 11
3.58168
 21
97.3015
  0
LINE
  8
0
 10
3.58168
 20
97.3015
 11
3.67535
 21
97.5898
  0
LINE
  8
0
 10
3.67535
 20
97.5898
 11
3.82692
 21
97.8523
  0
LINE
  8
0
 10
3.82692
 20
97.8523
 11
4.02975
 21
98.0775
  0
LINE
  8
0
 10
4.02975
 20
98.0775
 11
4.27499
 21
98.2557
  0
LINE
  8
0
 10
4.27499
 20
98.2557
 11
4.55191
 21
98.379
  0
LINE
  8
0
 10
4.55191
 20
98.379
 11
4.84842
 21
98.442
  0
LINE
  8
0
 10
4.84842
 20
98.442
 11
5.15157
 21
98.442
  0
LINE
  8
0
 10
5.15157
 20
98.442
 11
5.44807
 21
98.379
  0
LINE
  8
0
 10
5.44807
 20
98.379
 11
5.72499
 21
98.2557
  0
LINE
  8
0
 10
5.72499
 20
98.2557
 11
5.97023
 21
98.0775
  0
LINE
  8
0
 10
5.97023
 20
98.0775
 11
6.17307
 21
97.8523
  0
LINE
  8
0
 10
6.17307
 20
97.8523
 11
6.32463
 21
97.5898
  0
LINE
  8
0
 10
6.32463
 20
97.5898
 11
6.4183
 21
97.3015
  0
LINE
  8
0
 10
6.4183
 20
97.3015
 11
6.45
 21
97
  0
LINE
  8
0
 10
6.45
 20
97
 11
6.4183
 21
96.6985
  0
LINE
  8
0
 10
6.4183
 20
96.6985
 11
6.32463
 21
96.4102
  0
LINE
  8
0
 10
6.32463
 20
96.4102
 11
6.17307
 21
96.1477
  0
LINE
  8
0
 10
6.17307
 20
96.1477
 11
5.97023
 21
95.9224
  0
LINE
  8
0
 10
5.97023
 20
95.9224
 11
5.72499
 21
95.7443
  0
LINE
  8
0
 10
5.72499
 20
95.7443
 11
5.44807
 21
95.621
  0
LINE
  8
0
 10
5.44807
 20
95.621
 11
5.15157
 21
95.5579
  0
LINE
  8
0
 10
5.15157
 20
95.5579
 11
4.84842
 21
95.5579
  0
LINE
  8
0
 10
44.8484
 20
95.5579
 11
44.5519
 21
95.621
  0
LINE
  8
0
 10
44.5519
 20
95.621
 11
44.275
 21
95.7443
  0
LINE
  8
0
 10
44.275
 20
95.7443
 11
44.0298
 21
95.9224
  0
LINE
  8
0
 10
44.0298
 20
95.9224
 11
43.8269
 21
96.1477
  0
LINE
  8
0
 10
43.8269
 20
96.1477
 11
43.6754
 21
96.4102
  0
LINE
  8
0
 10
43.6754
 20
96.4102
 11
43.5817
 21
96.6985
  0
LINE
  8
0
 10
43.5817
 20
96.6985
 11
43.55
 21
97
  0
LINE
  8
0
 10
43.55
 20
97
 11
43.5817
 21
97.3015
  0
LINE
  8
0
 10
43.5817
 20
97.3015
 11
43.6754
 21
97.5898
  0
LINE
  8
0
 10
43.6754
 20
97.5898
 11
43.8269
 21
97.8523
  0
LINE
  8
0
 10
43.8269
 20
97.8523
 11
44.0298
 21
98.0775
  0
LINE
  8
0
 10
44.0298
 20
98.0775
 11
44.275
 21
98.2557
  0
LINE
  8
0
 10
44.275
 20
98.2557
 11
44.5519
 21
98.379
  0
LINE
  8
0
 10
44.5519
 20
98.379
 11
44.8484
 21
98.442
  0
LINE
  8
0
 10
44.8484
 20
98.442
 11
45.1516
 21
98.442
  0
LINE
  8
0
 10
45.1516
 20
98.442
 11
45.4481
 21
98.379
  0
LINE
  8
0
 10
45.4481
 20
98.379
 11
45.725
 21
98.2557
  0
LINE
  8
0
 10
45.725
 20
98.2557
 11
45.9702
 21
98.0775
  0
LINE
  8
0
 10
45.9702
 20
98.0775
 11
46.1731
 21
97.8523
  0
LINE
  8
0
 10
46.1731
 20
97.8523
 11
46.3246
 21
97.5898
  0
LINE
  8
0
 10
46.3246
 20
97.5898
 11
46.4183
 21
97.3015
  0
LINE
  8
0
 10
46.4183
 20
97.3015
 11
46.45
 21
97
  0
LINE
  8
0
 10
46.45
 20
97
 11
46.4183
 21
96.6985
  0
LINE
  8
0
 10
46.4183
 20
96.6985
 11
46.3246
 21
96.4102
  0
LINE
  8
0
 10
46.3246
 20
96.4102
 11
46.1731
 21
96.1477
  0
LINE
  8
0
 10
46.1731
 20
96.1477
 11
45.9702
 21
95.9224
  0
LINE
  8
0
 10
45.9702
 20
95.9224
 11
45.725
 21
95.7443
  0
LINE
  8
0
 10
45.725
 20
95.7443
 11
45.4481
 21
95.621
  0
LINE
  8
0
 10
45.4481
 20
95.621
 11
45.1516
 21
95.5579
  0
LINE
  8
0
 10
45.1516
 20
95.5579
 11
44.8484
 21
95.5579
  0
LINE
  8
0
 10
44.8484
 20
55.5579
 11
44.5519
 21
55.621
  0
LINE
  8
0
 10
44.5519
 20
55.621
 11
44.275
 21
55.7443
  0
LINE
  8
0
 10
44.275
 20
55.7443
 11
44.0298
 21
55.9224
  0
LINE
  8
0
 10
44.0298
 20
55.9224
 11
43.8269
 21
56.1477
  0
LINE
  8
0
 10
43.8269
 20
56.1477
 11
43.6754
 21
56.4102
  0
LINE
  8
0
 10
43.6754
 20
56.4102
 11
43.5817
 21
56.6985
  0
LINE
  8
0
 10
43.5817
 20
56.6985
 11
43.55
 21
57
  0
LINE
  8
0
 10
43.55
 20
57
 11
43.5817
 21
57.3015
  0
LINE
  8
0
 10
43.5817
 20
57.3015
 11
43.6754
 21
57.5898
  0
LINE
  8
0
 10
43.6754
 20
57.5898
 11
43.8269
 21
57.8523
  0
LINE
  8
0
 10
43.8269
 20
57.8523
 11
44.0298
 21
58.0775
  0
LINE
  8
0
 10
44.0298
 20
58.0775
 11
44.275
 21
58.2557
  0
LINE
  8
0
 10
44.275
 20
58.2557
 11
44.5519
 21
58.379
  0
LINE
  8
0
 10
44.5519
 20
58.379
 11
44.8484
 21
58.442
  0
LINE
  8
0
 10
44.8484
 20
58.442
 11
45.1516
 21
58.442
  0
LINE
  8
0
 10
45.1516
 20
58.442
 11
45.4481
 21
58.379
  0
LINE
  8
0
 10
45.4481
 20
58.379
 11
45.725
 21
58.2557
  0
LINE
  8
0
 10
45.725
 20
58.2557
 11
45.9702
 21
58.0775
  0
LINE
  8
0
 10
45.9702
 20
58.0775
 11
46.1731
 21
57.8523
  0
LINE
  8
0
 10
46.1731
 20
57.8523
 11
46.3246
 21
57.5898
  0
LINE
  8
0
 10
46.3246
 20
57.5898
 11
46.4183
 21
57.3015
  0
LINE
  8
0
 10
46.4183
 20
57.3015
 11
46.45
 21
57
  0
LINE
  8
0
 10
46.45
 20
57
 11
46.4183
 21
56.6985
  0
LINE
  8
0
 10
46.4183
 20
56.6985
 11
46.3246
 21
56.4102
  0
LINE
  8
0
 10
46.3246
 20
56.4102
 11
46.1731
 21
56.1477
  0
LINE
  8
0
 10
46.1731
 20
56.1477
 11
45.9702
 21
55.9224
  0
LINE
  8
0
 10
45.9702
 20
55.9224
 11
45.725
 21
55.7443
  0
LINE
  8
0
 10
45.725
 20
55.7443
 11
45.4481
 21
55.621
  0
LINE
  8
0
 10
45.4481
 20
55.621
 11
45.1516
 21
55.5579
  0
LINE
  8
0
 10
45.1516
 20
55.5579
 11
44.8484
 21
55.5579
  0
LINE
  8
0
 10
4.84842
 20
55.5579
 11
4.55191
 21
55.621
  0
LINE
  8
0
 10
4.55191
 20
55.621
 11
4.27499
 21
55.7443
  0
LINE
  8
0
 10
4.27499
 20
55.7443
 11
4.02975
 21
55.9224
  0
LINE
  8
0
 10
4.02975
 20
55.9224
 11
3.82692
 21
56.1477
  0
LINE
  8
0
 10
3.82692
 20
56.1477
 11
3.67535
 21
56.4102
  0
LINE
  8
0
 10
3.67535
 20
56.4102
 11
3.58168
 21
56.6985
  0
LINE
  8
0
 10
3.58168
 20
56.6985
 11
3.54999
 21
57
  0
LINE
  8
0
 10
3.54999
 20
57
 11
3.58168
 21
57.3015
  0
LINE
  8
0
 10
3.58168
 20
57.3015
 11
3.67535
 21
57.5898
  0
LINE
  8
0
 10
3.67535
 20
57.5898
 11
3.82692
 21
57.8523
  0
LINE
  8
0
 10
3.82692
 20
57.8523
 11
4.02975
 21
58.0775
  0
LINE
  8
0
 10
4.02975
 20
58.0775
 11
4.27499
 21
58.2557
  0
LINE
  8
0
 10
4.27499
 20
58.2557
 11
4.55191
 21
58.379
  0
LINE
  8
0
 10
4.55191
 20
58.379
 11
4.84842
 21
58.442
  0
LINE
  8
0
 10
4.84842
 20
58.442
 11
5.15157
 21
58.442
  0
LINE
  8
0
 10
5.15157
 20
58.442
 11
5.44807
 21
58.379
  0
LINE
  8
0
 10
5.44807
 20
58.379
 11
5.72499
 21
58.2557
  0
LINE
  8
0
 10
5.72499
 20
58.2557
 11
5.97023
 21
58.0775
  0
LINE
  8
0
 10
5.97023
 20
58.0775
 11
6.17307
 21
57.8523
  0
LINE
  8
0
 10
6.17307
 20
57.8523
 11
6.32463
 21
57.5898
  0
LINE
  8
0
 10
6.32463
 20
57.5898
 11
6.4183
 21
57.3015
  0
LINE
  8
0
 10
6.4183
 20
57.3015
 11
6.45
 21
57
  0
LINE
  8
0
 10
6.45
 20
57
 11
6.4183
 21
56.6985
  0
LINE
  8
0
 10
6.4183
 20
56.6985
 11
6.32463
 21
56.4102
  0
LINE
  8
0
 10
6.32463
 20
56.4102
 11
6.17307
 21
56.1477
  0
LINE
  8
0
 10
6.17307
 20
56.1477
 11
5.97023
 21
55.9224
  0
LINE
  8
0
 10
5.97023
 20
55.9224
 11
5.72499
 21
55.7443
  0
LINE
  8
0
 10
5.72499
 20
55.7443
 11
5.44807
 21
55.621
  0
LINE
  8
0
 10
5.44807
 20
55.621
 11
5.15157
 21
55.5579
  0
LINE
  8
0
 10
5.15157
 20
55.5579
 11
4.84842
 21
55.5579
  0
LINE
  8
0
 10
98.5451
 20
52.2447
 11
99.5
 21
52.6699
  0
LINE
  8
0
 10
99.5
 20
52.6699
 11
100.346
 21
53.2843
  0
LINE
  8
0
 10
100.346
 20
53.2843
 11
101.045
 21
54.0611
  0
LINE
  8
0
 10
101.045
 20
54.0611
 11
101.568
 21
54.9663
  0
LINE
  8
0
 10
101.568
 20
54.9663
 11
101.891
 21
55.9604
  0
LINE
  8
0
 10
101.891
 20
55.9604
 11
102
 21
57
  0
LINE
  8
0
 10
102
 20
57
 11
102
 21
97
  0
LINE
  8
0
 10
102
 20
97
 11
101.891
 21
98.0396
  0
LINE
  8
0
 10
101.891
 20
98.0396
 11
101.568
 21
99.0337
  0
LINE
  8
0
 10
101.568
 20
99.0337
 11
101.045
 21
99.9389
  0
LINE
  8
0
 10
101.045
 20
99.9389
 11
100.346
 21
100.716
  0
LINE
  8
0
 10
100.346
 20
100.716
 11
99.5
 21
101.33
  0
LINE
  8
0
 10
99.5
 20
101.33
 11
98.5451
 21
101.755
  0
LINE
  8
0
 10
98.5451
 20
101.755
 11
97.5226
 21
101.973
  0
LINE
  8
0
 10
97.5226
 20
101.973
 11
56.4774
 21
101.973
  0
LINE
  8
0
 10
56.4774
 20
101.973
 11
55.4549
 21
101.755
  0
LINE
  8
0
 10
55.4549
 20
101.755
 11
54.5
 21
101.33
  0
LINE
  8
0
 10
54.5
 20
101.33
 11
53.6543
 21
100.716
  0
LINE
  8
0
 10
53.6543
 20
100.716
 11
52.9549
 21
99.9389
  0
LINE
  8
0
 10
52.9549
 20
99.9389
 11
52.4323
 21
99.0337
  0
LINE
  8
0
 10
52.4323
 20
99.0337
 11
52.1093
 21
98.0396
  0
LINE
  8
0
 10
52.1093
 20
98.0396
 11
52
 21
97
  0
LINE
  8
0
 10
52
 20
97
 11
52
 21
57
  0
LINE
  8
0
 10
52
 20
57
 11
52.1093
 21
55.9604
  0
LINE
  8
0
 10
52.1093
 20
55.9604
 11
52.4323
 21
54.9663
  0
LINE
  8
0
 10
52.4323
 20
54.9663
 11
52.9549
 21
54.0611
  0
LINE
  8
0
 10
52.9549
 20
54.0611
 11
53.6543
 21
53.2843
  0
LINE
  8
0
 10
53.6543
 20
53.2843
 11
54.5
 21
52.6699
  0
LINE
  8
0
 10
54.5
 20
52.6699
 11
55.4549
 21
52.2447
  0
LINE
  8
0
 10
55.4549
 20
52.2447
 11
56.4774
 21
52.0274
  0
LINE
  8
0
 10
56.4774
 20
52.0274
 11
97.5226
 21
52.0274
  0
LINE
  8
0
 10
97.5226
 20
52.0274
 11
98.5451
 21
52.2447
  0
LINE
  8
0
 10
96.8432
 20
95.5082
 11
96.5365
 21
95.5734
  0
LINE
  8
0
 10
96.5365
 20
95.5734
 11
96.25
 21
95.701
  0
LINE
  8
0
 10
96.25
 20
95.701
 11
95.9963
 21
95.8853
  0
LINE
  8
0
 10
95.9963
 20
95.8853
 11
95.7865
 21
96.1183
  0
LINE
  8
0
 10
95.7865
 20
96.1183
 11
95.6297
 21
96.3899
  0
LINE
  8
0
 10
95.6297
 20
96.3899
 11
95.5328
 21
96.6881
  0
LINE
  8
0
 10
95.5328
 20
96.6881
 11
95.5
 21
97
  0
LINE
  8
0
 10
95.5
 20
97
 11
95.5328
 21
97.3119
  0
LINE
  8
0
 10
95.5328
 20
97.3119
 11
95.6297
 21
97.6101
  0
LINE
  8
0
 10
95.6297
 20
97.6101
 11
95.7865
 21
97.8817
  0
LINE
  8
0
 10
95.7865
 20
97.8817
 11
95.9963
 21
98.1147
  0
LINE
  8
0
 10
95.9963
 20
98.1147
 11
96.25
 21
98.299
  0
LINE
  8
0
 10
96.25
 20
98.299
 11
96.5365
 21
98.4266
  0
LINE
  8
0
 10
96.5365
 20
98.4266
 11
96.8432
 21
98.4918
  0
LINE
  8
0
 10
96.8432
 20
98.4918
 11
97.1568
 21
98.4918
  0
LINE
  8
0
 10
97.1568
 20
98.4918
 11
97.4635
 21
98.4266
  0
LINE
  8
0
 10
97.4635
 20
98.4266
 11
97.75
 21
98.299
  0
LINE
  8
0
 10
97.75
 20
98.299
 11
98.0037
 21
98.1147
  0
LINE
  8
0
 10
98.0037
 20
98.1147
 11
98.2135
 21
97.8817
  0
LINE
  8
0
 10
98.2135
 20
97.8817
 11
98.3703
 21
97.6101
  0
LINE
  8
0
 10
98.3703
 20
97.6101
 11
98.4672
 21
97.3119
  0
LINE
  8
0
 10
98.4672
 20
97.3119
 11
98.5
 21
97
  0
LINE
  8
0
 10
98.5
 20
97
 11
98.4672
 21
96.6881
  0
LINE
  8
0
 10
98.4672
 20
96.6881
 11
98.3703
 21
96.3899
  0
LINE
  8
0
 10
98.3703
 20
96.3899
 11
98.2135
 21
96.1183
  0
LINE
  8
0
 10
98.2135
 20
96.1183
 11
98.0037
 21
95.8853
  0
LINE
  8
0
 10
98.0037
 20
95.8853
 11
97.75
 21
95.701
  0
LINE
  8
0
 10
97.75
 20
95.701
 11
97.4635
 21
95.5734
  0
LINE
  8
0
 10
97.4635
 20
95.5734
 11
97.1568
 21
95.5082
  0
LINE
  8
0
 10
97.1568
 20
95.5082
 11
96.8432
 21
95.5082
  0
LINE
  8
0
 10
56.8432
 20
95.5082
 11
56.5365
 21
95.5734
  0
LINE
  8
0
 10
56.5365
 20
95.5734
 11
56.25
 21
95.701
  0
LINE
  8
0
 10
56.25
 20
95.701
 11
55.9963
 21
95.8853
  0
LINE
  8
0
 10
55.9963
 20
95.8853
 11
55.7865
 21
96.1183
  0
LINE
  8
0
 10
55.7865
 20
96.1183
 11
55.6297
 21
96.3899
  0
LINE
  8
0
 10
55.6297
 20
96.3899
 11
55.5328
 21
96.6881
  0
LINE
  8
0
 10
55.5328
 20
96.6881
 11
55.5
 21
97
  0
LINE
  8
0
 10
55.5
 20
97
 11
55.5328
 21
97.3119
  0
LINE
  8
0
 10
55.5328
 20
97.3119
 11
55.6297
 21
97.6101
  0
LINE
  8
0
 10
55.6297
 20
97.6101
 11
55.7865
 21
97.8817
  0
LINE
  8
0
 10
55.7865
 20
97.8817
 11
55.9963
 21
98.1147
  0
LINE
  8
0
 10
55.9963
 20
98.1147
 11
56.25
 21
98.299
  0
LINE
  8
0
 10
56.25
 20
98.299
 11
56.5365
 21
98.4266
  0
LINE
  8
0
 10
56.5365
 20
98.4266
 11
56.8432
 21
98.4918
  0
LINE
  8
0
 10
56.8432
 20
98.4918
 11
57.1568
 21
98.4918
  0
LINE
  8
0
 10
57.1568
 20
98.4918
 11
57.4635
 21
98.4266
  0
LINE
  8
0
 10
57.4635
 20
98.4266
 11
57.75
 21
98.299
  0
LINE
  8
0
 10
57.75
 20
98.299
 11
58.0037
 21
98.1147
  0
LINE
  8
0
 10
58.0037
 20
98.1147
 11
58.2135
 21
97.8817
  0
LINE
  8
0
 10
58.2135
 20
97.8817
 11
58.3703
 21
97.6101
  0
LINE
  8
0
 10
58.3703
 20
97.6101
 11
58.4672
 21
97.3119
  0
LINE
  8
0
 10
58.4672
 20
97.3119
 11
58.5
 21
97
  0
LINE
  8
0
 10
58.5
 20
97
 11
58.4672
 21
96.6881
  0
LINE
  8
0
 10
58.4672
 20
96.6881
 11
58.3703
 21
96.3899
  0
LINE
  8
0
 10
58.3703
 20
96.3899
 11
58.2135
 21
96.1183
  0
LINE
  8
0
 10
58.2135
 20
96.1183
 11
58.0037
 21
95.8853
  0
LINE
  8
0
 10
58.0037
 20
95.8853
 11
57.75
 21
95.701
  0
LINE
  8
0
 10
57.75
 20
95.701
 11
57.4635
 21
95.5734
  0
LINE
  8
0
 10
57.4635
 20
95.5734
 11
57.1568
 21
95.5082
  0
LINE
  8
0
 10
57.1568
 20
95.5082
 11
56.8432
 21
95.5082
  0
LINE
  8
0
 10
96.8432
 20
55.5082
 11
96.5365
 21
55.5734
  0
LINE
  8
0
 10
96.5365
 20
55.5734
 11
96.25
 21
55.701
  0
LINE
  8
0
 10
96.25
 20
55.701
 11
95.9963
 21
55.8853
  0
LINE
  8
0
 10
95.9963
 20
55.8853
 11
95.7865
 21
56.1183
  0
LINE
  8
0
 10
95.7865
 20
56.1183
 11
95.6297
 21
56.3899
  0
LINE
  8
0
 10
95.6297
 20
56.3899
 11
95.5328
 21
56.6881
  0
LINE
  8
0
 10
95.5328
 20
56.6881
 11
95.5
 21
57
  0
LINE
  8
0
 10
95.5
 20
57
 11
95.5328
 21
57.3119
  0
LINE
  8
0
 10
95.5328
 20
57.3119
 11
95.6297
 21
57.6101
  0
LINE
  8
0
 10
95.6297
 20
57.6101
 11
95.7865
 21
57.8817
  0
LINE
  8
0
 10
95.7865
 20
57.8817
 11
95.9963
 21
58.1147
  0
LINE
  8
0
 10
95.9963
 20
58.1147
 11
96.25
 21
58.299
  0
LINE
  8
0
 10
96.25
 20
58.299
 11
96.5365
 21
58.4266
  0
LINE
  8
0
 10
96.5365
 20
58.4266
 11
96.8432
 21
58.4918
  0
LINE
  8
0
 10
96.8432
 20
58.4918
 11
97.1568
 21
58.4918
  0
LINE
  8
0
 10
97.1568
 20
58.4918
 11
97.4635
 21
58.4266
  0
LINE
  8
0
 10
97.4635
 20
58.4266
 11
97.75
 21
58.299
  0
LINE
  8
0
 10
97.75
 20
58.299
 11
98.0037
 21
58.1147
  0
LINE
  8
0
 10
98.0037
 20
58.1147
 11
98.2135
 21
57.8817
  0
LINE
  8
0
 10
98.2135
 20
57.8817
 11
98.3703
 21
57.6101
  0
LINE
  8
0
 10
98.3703
 20
57.6101
 11
98.4672
 21
57.3119
  0
LINE
  8
0
 10
98.4672
 20
57.3119
 11
98.5
 21
57
  0
LINE
  8
0
 10
98.5
 20
57
 11
98.4672
 21
56.6881
  0
LINE
  8
0
 10
98.4672
 20
56.6881
 11
98.3703
 21
56.3899
  0
LINE
  8
0
 10
98.3703
 20
56.3899
 11
98.2135
 21
56.1183
  0
LINE
  8
0
 10
98.2135
 20
56.1183
 11
98.0037
 21
55.8853
  0
LINE
  8
0
 10
98.0037
 20
55.8853
 11
97.75
 21
55.701
  0
LINE
  8
0
 10
97.75
 20
55.701
 11
97.4635
 21
55.5734
  0
LINE
  8
0
 10
97.4635
 20
55.5734
 11
97.1568
 21
55.5082
  0
LINE
  8
0
 10
97.1568
 20
55.5082
 11
96.8432
 21
55.5082
  0
LINE
  8
0
 10
56.8432
 20
55.5082
 11
56.5365
 21
55.5734
  0
LINE
  8
0
 10
56.5365
 20
55.5734
 11
56.25
 21
55.701
  0
LINE
  8
0
 10
56.25
 20
55.701
 11
55.9963
 21
55.8853
  0
LINE
  8
0
 10
55.9963
 20
55.8853
 11
55.7865
 21
56.1183
  0
LINE
  8
0
 10
55.7865
 20
56.1183
 11
55.6297
 21
56.3899
  0
LINE
  8
0
 10
55.6297
 20
56.3899
 11
55.5328
 21
56.6881
  0
LINE
  8
0
 10
55.5328
 20
56.6881
 11
55.5
 21
57
  0
LINE
  8
0
 10
55.5
 20
57
 11
55.5328
 21
57.3119
  0
LINE
  8
0
 10
55.5328
 20
57.3119
 11
55.6297
 21
57.6101
  0
LINE
  8
0
 10
55.6297
 20
57.6101
 11
55.7865
 21
57.8817
  0
LINE
  8
0
 10
55.7865
 20
57.8817
 11
55.9963
 21
58.1147
  0
LINE
  8
0
 10
55.9963
 20
58.1147
 11
56.25
 21
58.299
  0
LINE
  8
0
 10
56.25
 20
58.299
 11
56.5365
 21
58.4266
  0
LINE
  8
0
 10
56.5365
 20
58.4266
 11
56.8432
 21
58.4918
  0
LINE
  8
0
 10
56.8432
 20
58.4918
 11
57.1568
 21
58.4918
  0
LINE
  8
0
 10
57.1568
 20
58.4918
 11
57.4635
 21
58.4266
  0
LINE
  8
0
 10
57.4635
 20
58.4266
 11
57.75
 21
58.299
  0
LINE
  8
0
 10
57.75
 20
58.299
 11
58.0037
 21
58.1147
  0
LINE
  8
0
 10
58.0037
 20
58.1147
 11
58.2135
 21
57.8817
  0
LINE
  8
0
 10
58.2135
 20
57.8817
 11
58.3703
 21
57.6101
  0
LINE
  8
0
 10
58.3703
 20
57.6101
 11
58.4672
 21
57.3119
  0
LINE
  8
0
 10
58.4672
 20
57.3119
 11
58.5
 21
57
  0
LINE
  8
0
 10
58.5
 20
57
 11
58.4672
 21
56.6881
  0
LINE
  8
0
 10
58.4672
 20
56.6881
 11
58.3703
 21
56.3899
  0
LINE
  8
0
 10
58.3703
 20
56.3899
 11
58.2135
 21
56.1183
  0
LINE
  8
0
 10
58.2135
 20
56.1183
 11
58.0037
 21
55.8853
  0
LINE
  8
0
 10
58.0037
 20
55.8853
 11
57.75
 21
55.701
  0
LINE
  8
0
 10
57.75
 20
55.701
 11
57.4635
 21
55.5734
  0
LINE
  8
0
 10
57.4635
 20
55.5734
 11
57.1568
 21
55.5082
  0
LINE
  8
0
 10
57.1568
 20
55.5082
 11
56.8432
 21
55.5082
  0
LINE
  8
0
 10
46.5451
 20
0.244705
 11
47.5
 21
0.669861
  0
LINE
  8
0
 10
47.5
 20
0.669861
 11
48.3456
 21
1.28427
  0
LINE
  8
0
 10
48.3456
 20
1.28427
 11
49.0451
 21
2.06107
  0
LINE
  8
0
 10
49.0451
 20
2.06107
 11
49.5677
 21
2.96631
  0
LINE
  8
0
 10
49.5677
 20
2.96631
 11
49.8907
 21
3.96043
  0
LINE
  8
0
 10
49.8907
 20
3.96043
 11
50
 21
5
  0
LINE
  8
0
 10
50
 20
5
 11
50
 21
45
  0
LINE
  8
0
 10
50
 20
45
 11
49.8907
 21
46.0396
  0
LINE
  8
0
 10
49.8907
 20
46.0396
 11
49.5677
 21
47.0337
  0
LINE
  8
0
 10
49.5677
 20
47.0337
 11
49.0451
 21
47.9389
  0
LINE
  8
0
 10
49.0451
 20
47.9389
 11
48.3456
 21
48.7157
  0
LINE
  8
0
 10
48.3456
 20
48.7157
 11
47.5
 21
49.3301
  0
LINE
  8
0
 10
47.5
 20
49.3301
 11
46.5451
 21
49.7553
  0
LINE
  8
0
 10
46.5451
 20
49.7553
 11
45.5226
 21
49.9726
  0
LINE
  8
0
 10
45.5226
 20
49.9726
 11
4.47736
 21
49.9726
  0
LINE
  8
0
 10
4.47736
 20
49.9726
 11
3.45491
 21
49.7553
  0
LINE
  8
0
 10
3.45491
 20
49.7553
 11
2.5
 21
49.3301
  0
LINE
  8
0
 10
2.5
 20
49.3301
 11
1.65434
 21
48.7157
  0
LINE
  8
0
 10
1.65434
 20
48.7157
 11
0.95491
 21
47.9389
  0
LINE
  8
0
 10
0.95491
 20
47.9389
 11
0.432266
 21
47.0337
  0
LINE
  8
0
 10
0.432266
 20
47.0337
 11
0.109253
 21
46.0396
  0
LINE
  8
0
 10
0.109253
 20
46.0396
 11
0
 21
45
  0
LINE
  8
0
 10
0
 20
45
 11
0
 21
5
  0
LINE
  8
0
 10
0
 20
5
 11
0.109253
 21
3.96043
  0
LINE
  8
0
 10
0.109253
 20
3.96043
 11
0.432266
 21
2.96631
  0
LINE
  8
0
 10
0.432266
 20
2.96631
 11
0.95491
 21
2.06107
  0
LINE
  8
0
 10
0.95491
 20
2.06107
 11
1.65434
 21
1.28427
  0
LINE
  8
0
 10
1.65434
 20
1.28427
 11
2.49998
 21
0.669861
  0
LINE
  8
0
 10
2.49998
 20
0.669861
 11
3.45491
 21
0.244705
  0
LINE
  8
0
 10
3.45491
 20
0.244705
 11
4.47736
 21
0.0273895
  0
LINE
  8
0
 10
4.47736
 20
0.0273895
 11
45.5226
 21
0.0273895
  0
LINE
  8
0
 10
45.5226
 20
0.0273895
 11
46.5451
 21
0.244705
  0
LINE
  8
0
 10
44.8484
 20
43.5579
 11
44.5519
 21
43.621
  0
LINE
  8
0
 10
44.5519
 20
43.621
 11
44.275
 21
43.7443
  0
LINE
  8
0
 10
44.275
 20
43.7443
 11
44.0298
 21
43.9224
  0
LINE
  8
0
 10
44.0298
 20
43.9224
 11
43.8269
 21
44.1477
  0
LINE
  8
0
 10
43.8269
 20
44.1477
 11
43.6754
 21
44.4102
  0
LINE
  8
0
 10
43.6754
 20
44.4102
 11
43.5817
 21
44.6985
  0
LINE
  8
0
 10
43.5817
 20
44.6985
 11
43.55
 21
45
  0
LINE
  8
0
 10
43.55
 20
45
 11
43.5817
 21
45.3015
  0
LINE
  8
0
 10
43.5817
 20
45.3015
 11
43.6754
 21
45.5898
  0
LINE
  8
0
 10
43.6754
 20
45.5898
 11
43.8269
 21
45.8523
  0
LINE
  8
0
 10
43.8269
 20
45.8523
 11
44.0298
 21
46.0775
  0
LINE
  8
0
 10
44.0298
 20
46.0775
 11
44.275
 21
46.2557
  0
LINE
  8
0
 10
44.275
 20
46.2557
 11
44.5519
 21
46.379
  0
LINE
  8
0
 10
44.5519
 20
46.379
 11
44.8484
 21
46.442
  0
LINE
  8
0
 10
44.8484
 20
46.442
 11
45.1516
 21
46.442
  0
LINE
  8
0
 10
45.1516
 20
46.442
 11
45.4481
 21
46.379
  0
LINE
  8
0
 10
45.4481
 20
46.379
 11
45.725
 21
46.2557
  0
LINE
  8
0
 10
45.725
 20
46.2557
 11
45.9702
 21
46.0775
  0
LINE
  8
0
 10
45.9702
 20
46.0775
 11
46.1731
 21
45.8523
  0
LINE
  8
0
 10
46.1731
 20
45.8523
 11
46.3246
 21
45.5898
  0
LINE
  8
0
 10
46.3246
 20
45.5898
 11
46.4183
 21
45.3015
  0
LINE
  8
0
 10
46.4183
 20
45.3015
 11
46.45
 21
45
  0
LINE
  8
0
 10
46.45
 20
45
 11
46.4183
 21
44.6985
  0
LINE
  8
0
 10
46.4183
 20
44.6985
 11
46.3246
 21
44.4102
  0
LINE
  8
0
 10
46.3246
 20
44.4102
 11
46.1731
 21
44.1477
  0
LINE
  8
0
 10
46.1731
 20
44.1477
 11
45.9702
 21
43.9224
  0
LINE
  8
0
 10
45.9702
 20
43.9224
 11
45.725
 21
43.7443
  0
LINE
  8
0
 10
45.725
 20
43.7443
 11
45.4481
 21
43.621
  0
LINE
  8
0
 10
45.4481
 20
43.621
 11
45.1516
 21
43.5579
  0
LINE
  8
0
 10
45.1516
 20
43.5579
 11
44.8484
 21
43.5579
  0
LINE
  8
0
 10
4.84842
 20
43.5579
 11
4.55191
 21
43.621
  0
LINE
  8
0
 10
4.55191
 20
43.621
 11
4.27499
 21
43.7443
  0
LINE
  8
0
 10
4.27499
 20
43.7443
 11
4.02975
 21
43.9224
  0
LINE
  8
0
 10
4.02975
 20
43.9224
 11
3.82692
 21
44.1477
  0
LINE
  8
0
 10
3.82692
 20
44.1477
 11
3.67535
 21
44.4102
  0
LINE
  8
0
 10
3.67535
 20
44.4102
 11
3.58168
 21
44.6985
  0
LINE
  8
0
 10
3.58168
 20
44.6985
 11
3.54999
 21
45
  0
LINE
  8
0
 10
3.54999
 20
45
 11
3.58168
 21
45.3015
  0
LINE
  8
0
 10
3.58168
 20
45.3015
 11
3.67535
 21
45.5898
  0
LINE
  8
0
 10
3.67535
 20
45.5898
 11
3.82692
 21
45.8523
  0
LINE
  8
0
 10
3.82692
 20
45.8523
 11
4.02975
 21
46.0775
  0
LINE
  8
0
 10
4.02975
 20
46.0775
 11
4.27499
 21
46.2557
  0
LINE
  8
0
 10
4.27499
 20
46.2557
 11
4.55191
 21
46.379
  0
LINE
  8
0
 10
4.55191
 20
46.379
 11
4.84842
 21
46.442
  0
LINE
  8
0
 10
4.84842
 20
46.442
 11
5.15157
 21
46.442
  0
LINE
  8
0
 10
5.15157
 20
46.442
 11
5.44807
 21
46.379
  0
LINE
  8
0
 10
5.44807
 20
46.379
 11
5.72499
 21
46.2557
  0
LINE
  8
0
 10
5.72499
 20
46.2557
 11
5.97023
 21
46.0775
  0
LINE
  8
0
 10
5.97023
 20
46.0775
 11
6.17307
 21
45.8523
  0
LINE
  8
0
 10
6.17307
 20
45.8523
 11
6.32463
 21
45.5898
  0
LINE
  8
0
 10
6.32463
 20
45.5898
 11
6.4183
 21
45.3015
  0
LINE
  8
0
 10
6.4183
 20
45.3015
 11
6.45
 21
45
  0
LINE
  8
0
 10
6.45
 20
45
 11
6.4183
 21
44.6985
  0
LINE
  8
0
 10
6.4183
 20
44.6985
 11
6.32463
 21
44.4102
  0
LINE
  8
0
 10
6.32463
 20
44.4102
 11
6.17307
 21
44.1477
  0
LINE
  8
0
 10
6.17307
 20
44.1477
 11
5.97023
 21
43.9224
  0
LINE
  8
0
 10
5.97023
 20
43.9224
 11
5.72499
 21
43.7443
  0
LINE
  8
0
 10
5.72499
 20
43.7443
 11
5.44807
 21
43.621
  0
LINE
  8
0
 10
5.44807
 20
43.621
 11
5.15157
 21
43.5579
  0
LINE
  8
0
 10
5.15157
 20
43.5579
 11
4.84842
 21
43.5579
  0
LINE
  8
0
 10
44.8484
 20
3.55794
 11
44.5519
 21
3.62096
  0
LINE
  8
0
 10
44.5519
 20
3.62096
 11
44.275
 21
3.74426
  0
LINE
  8
0
 10
44.275
 20
3.74426
 11
44.0298
 21
3.92244
  0
LINE
  8
0
 10
44.0298
 20
3.92244
 11
43.8269
 21
4.14771
  0
LINE
  8
0
 10
43.8269
 20
4.14771
 11
43.6754
 21
4.41022
  0
LINE
  8
0
 10
43.6754
 20
4.41022
 11
43.5817
 21
4.69852
  0
LINE
  8
0
 10
43.5817
 20
4.69852
 11
43.55
 21
5
  0
LINE
  8
0
 10
43.55
 20
5
 11
43.5817
 21
5.30147
  0
LINE
  8
0
 10
43.5817
 20
5.30147
 11
43.6754
 21
5.58977
  0
LINE
  8
0
 10
43.6754
 20
5.58977
 11
43.8269
 21
5.85228
  0
LINE
  8
0
 10
43.8269
 20
5.85228
 11
44.0298
 21
6.07755
  0
LINE
  8
0
 10
44.0298
 20
6.07755
 11
44.275
 21
6.25572
  0
LINE
  8
0
 10
44.275
 20
6.25572
 11
44.5519
 21
6.37903
  0
LINE
  8
0
 10
44.5519
 20
6.37903
 11
44.8484
 21
6.44205
  0
LINE
  8
0
 10
44.8484
 20
6.44205
 11
45.1516
 21
6.44205
  0
LINE
  8
0
 10
45.1516
 20
6.44205
 11
45.4481
 21
6.37903
  0
LINE
  8
0
 10
45.4481
 20
6.37903
 11
45.725
 21
6.25572
  0
LINE
  8
0
 10
45.725
 20
6.25572
 11
45.9702
 21
6.07755
  0
LINE
  8
0
 10
45.9702
 20
6.07755
 11
46.1731
 21
5.85228
  0
LINE
  8
0
 10
46.1731
 20
5.85228
 11
46.3246
 21
5.58977
  0
LINE
  8
0
 10
46.3246
 20
5.58977
 11
46.4183
 21
5.30147
  0
LINE
  8
0
 10
46.4183
 20
5.30147
 11
46.45
 21
5
  0
LINE
  8
0
 10
46.45
 20
5
 11
46.4183
 21
4.69852
  0
LINE
  8
0
 10
46.4183
 20
4.69852
 11
46.3246
 21
4.41022
  0
LINE
  8
0
 10
46.3246
 20
4.41022
 11
46.1731
 21
4.14771
  0
LINE
  8
0
 10
46.1731
 20
4.14771
 11
45.9702
 21
3.92244
  0
LINE
  8
0
 10
45.9702
 20
3.92244
 11
45.725
 21
3.74426
  0
LINE
  8
0
 10
45.725
 20
3.74426
 11
45.4481
 21
3.62096
  0
LINE
  8
0
 10
45.4481
 20
3.62096
 11
45.1516
 21
3.55794
  0
LINE
  8
0
 10
45.1516
 20
3.55794
 11
44.8484
 21
3.55794
  0
LINE
  8
0
 10
4.84842
 20
3.55794
 11
4.55191
 21
3.62096
  0
LINE
  8
0
 10
4.55191
 20
3.62096
 11
4.27499
 21
3.74426
  0
LINE
  8
0
 10
4.27499
 20
3.74426
 11
4.02975
 21
3.92244
  0
LINE
  8
0
 10
4.02975
 20
3.92244
 11
3.82692
 21
4.14771
  0
LINE
  8
0
 10
3.82692
 20
4.14771
 11
3.67535
 21
4.41022
  0
LINE
  8
0
 10
3.67535
 20
4.41022
 11
3.58168
 21
4.69852
  0
LINE
  8
0
 10
3.58168
 20
4.69852
 11
3.54999
 21
5
  0
LINE
  8
0
 10
3.54999
 20
5
 11
3.58168
 21
5.30147
  0
LINE
  8
0
 10
3.58168
 20
5.30147
 11
3.67535
 21
5.58977
  0
LINE
  8
0
 10
3.67535
 20
5.58977
 11
3.82692
 21
5.85228
  0
LINE
  8
0
 10
3.82692
 20
5.85228
 11
4.02975
 21
6.07755
  0
LINE
  8
0
 10
4.02975
 20
6.07755
 11
4.27499
 21
6.25572
  0
LINE
  8
0
 10
4.27499
 20
6.25572
 11
4.55191
 21
6.37903
  0
LINE
  8
0
 10
4.55191
 20
6.37903
 11
4.84842
 21
6.44205
  0
LINE
  8
0
 10
4.84842
 20
6.44205
 11
5.15157
 21
6.44205
  0
LINE
  8
0
 10
5.15157
 20
6.44205
 11
5.44807
 21
6.37903
  0
LINE
  8
0
 10
5.44807
 20
6.37903
 11
5.72499
 21
6.25572
  0
LINE
  8
0
 10
5.72499
 20
6.25572
 11
5.97023
 21
6.07755
  0
LINE
  8
0
 10
5.97023
 20
6.07755
 11
6.17307
 21
5.85228
  0
LINE
  8
0
 10
6.17307
 20
5.85228
 11
6.32463
 21
5.58977
  0
LINE
  8
0
 10
6.32463
 20
5.58977
 11
6.4183
 21
5.30147
  0
LINE
  8
0
 10
6.4183
 20
5.30147
 11
6.45
 21
5
  0
LINE
  8
0
 10
6.45
 20
5
 11
6.4183
 21
4.69852
  0
LINE
  8
0
 10
6.4183
 20
4.69852
 11
6.32463
 21
4.41022
  0
LINE
  8
0
 10
6.32463
 20
4.41022
 11
6.17307
 21
4.14771
  0
LINE
  8
0
 10
6.17307
 20
4.14771
 11
5.97023
 21
3.92244
  0
LINE
  8
0
 10
5.97023
 20
3.92244
 11
5.72499
 21
3.74426
  0
LINE
  8
0
 10
5.72499
 20
3.74426
 11
5.44807
 21
3.62096
  0
LINE
  8
0
 10
5.44807
 20
3.62096
 11
5.15157
 21
3.55794
  0
LINE
  8
0
 10
5.15157
 20
3.55794
 11
4.84842
 21
3.55794
  0
LINE
  8
0
 10
98.5451
 20
0.244705
 11
99.5
 21
0.669861
  0
LINE
  8
0
 10
99.5
 20
0.669861
 11
100.346
 21
1.28427
  0
LINE
  8
0
 10
100.346
 20
1.28427
 11
101.045
 21
2.06107
  0
LINE
  8
0
 10
101.045
 20
2.06107
 11
101.568
 21
2.96631
  0
LINE
  8
0
 10
101.568
 20
2.96631
 11
101.891
 21
3.96043
  0
LINE
  8
0
 10
101.891
 20
3.96043
 11
102
 21
5
  0
LINE
  8
0
 10
102
 20
5
 11
102
 21
45
  0
LINE
  8
0
 10
102
 20
45
 11
101.891
 21
46.0396
  0
LINE
  8
0
 10
101.891
 20
46.0396
 11
101.568
 21
47.0337
  0
LINE
  8
0
 10
101.568
 20
47.0337
 11
101.045
 21
47.9389
  0
LINE
  8
0
 10
101.045
 20
47.9389
 11
100.346
 21
48.7157
  0
LINE
  8
0
 10
100.346
 20
48.7157
 11
99.5
 21
49.3301
  0
LINE
  8
0
 10
99.5
 20
49.3301
 11
98.5451
 21
49.7553
  0
LINE
  8
0
 10
98.5451
 20
49.7553
 11
97.5226
 21
49.9726
  0
LINE
  8
0
 10
97.5226
 20
49.9726
 11
56.4774
 21
49.9726
  0
LINE
  8
0
 10
56.4774
 20
49.9726
 11
55.4549
 21
49.7553
  0
LINE
  8
0
 10
55.4549
 20
49.7553
 11
54.5
 21
49.3301
  0
LINE
  8
0
 10
54.5
 20
49.3301
 11
53.6543
 21
48.7157
  0
LINE
  8
0
 10
53.6543
 20
48.7157
 11
52.9549
 21
47.9389
  0
LINE
  8
0
 10
52.9549
 20
47.9389
 11
52.4323
 21
47.0337
  0
LINE
  8
0
 10
52.4323
 20
47.0337
 11
52.1093
 21
46.0396
  0
LINE
  8
0
 10
52.1093
 20
46.0396
 11
52
 21
45
  0
LINE
  8
0
 10
52
 20
45
 11
52
 21
5
  0
LINE
  8
0
 10
52
 20
5
 11
52.1093
 21
3.96043
  0
LINE
  8
0
 10
52.1093
 20
3.96043
 11
52.4323
 21
2.96631
  0
LINE
  8
0
 10
52.4323
 20
2.96631
 11
52.9549
 21
2.06107
  0
LINE
  8
0
 10
52.9549
 20
2.06107
 11
53.6543
 21
1.28427
  0
LINE
  8
0
 10
53.6543
 20
1.28427
 11
54.5
 21
0.669861
  0
LINE
  8
0
 10
54.5
 20
0.669861
 11
55.4549
 21
0.244705
  0
LINE
  8
0
 10
55.4549
 20
0.244705
 11
56.4774
 21
0.0273895
  0
LINE
  8
0
 10
56.4774
 20
0.0273895
 11
97.5226
 21
0.0273895
  0
LINE
  8
0
 10
97.5226
 20
0.0273895
 11
98.5451
 21
0.244705
  0
LINE
  8
0
 10
56.8432
 20
43.5082
 11
56.5365
 21
43.5734
  0
LINE
  8
0
 10
56.5365
 20
43.5734
 11
56.25
 21
43.701
  0
LINE
  8
0
 10
56.25
 20
43.701
 11
55.9963
 21
43.8853
  0
LINE
  8
0
 10
55.9963
 20
43.8853
 11
55.7865
 21
44.1183
  0
LINE
  8
0
 10
55.7865
 20
44.1183
 11
55.6297
 21
44.3899
  0
LINE
  8
0
 10
55.6297
 20
44.3899
 11
55.5328
 21
44.6881
  0
LINE
  8
0
 10
55.5328
 20
44.6881
 11
55.5
 21
45
  0
LINE
  8
0
 10
55.5
 20
45
 11
55.5328
 21
45.3119
  0
LINE
  8
0
 10
55.5328
 20
45.3119
 11
55.6297
 21
45.6101
  0
LINE
  8
0
 10
55.6297
 20
45.6101
 11
55.7865
 21
45.8817
  0
LINE
  8
0
 10
55.7865
 20
45.8817
 11
55.9963
 21
46.1147
  0
LINE
  8
0
 10
55.9963
 20
46.1147
 11
56.25
 21
46.299
  0
LINE
  8
0
 10
56.25
 20
46.299
 11
56.5365
 21
46.4266
  0
LINE
  8
0
 10
56.5365
 20
46.4266
 11
56.8432
 21
46.4918
  0
LINE
  8
0
 10
56.8432
 20
46.4918
 11
57.1568
 21
46.4918
  0
LINE
  8
0
 10
57.1568
 20
46.4918
 11
57.4635
 21
46.4266
  0
LINE
  8
0
 10
57.4635
 20
46.4266
 11
57.75
 21
46.299
  0
LINE
  8
0
 10
57.75
 20
46.299
 11
58.0037
 21
46.1147
  0
LINE
  8
0
 10
58.0037
 20
46.1147
 11
58.2135
 21
45.8817
  0
LINE
  8
0
 10
58.2135
 20
45.8817
 11
58.3703
 21
45.6101
  0
LINE
  8
0
 10
58.3703
 20
45.6101
 11
58.4672
 21
45.3119
  0
LINE
  8
0
 10
58.4672
 20
45.3119
 11
58.5
 21
45
  0
LINE
  8
0
 10
58.5
 20
45
 11
58.4672
 21
44.6881
  0
LINE
  8
0
 10
58.4672
 20
44.6881
 11
58.3703
 21
44.3899
  0
LINE
  8
0
 10
58.3703
 20
44.3899
 11
58.2135
 21
44.1183
  0
LINE
  8
0
 10
58.2135
 20
44.1183
 11
58.0037
 21
43.8853
  0
LINE
  8
0
 10
58.0037
 20
43.8853
 11
57.75
 21
43.701
  0
LINE
  8
0
 10
57.75
 20
43.701
 11
57.4635
 21
43.5734
  0
LINE
  8
0
 10
57.4635
 20
43.5734
 11
57.1568
 21
43.5082
  0
LINE
  8
0
 10
57.1568
 20
43.5082
 11
56.8432
 21
43.5082
  0
LINE
  8
0
 10
96.8432
 20
43.5082
 11
96.5365
 21
43.5734
  0
LINE
  8
0
 10
96.5365
 20
43.5734
 11
96.25
 21
43.701
  0
LINE
  8
0
 10
96.25
 20
43.701
 11
95.9963
 21
43.8853
  0
LINE
  8
0
 10
95.9963
 20
43.8853
 11
95.7865
 21
44.1183
  0
LINE
  8
0
 10
95.7865
 20
44.1183
 11
95.6297
 21
44.3899
  0
LINE
  8
0
 10
95.6297
 20
44.3899
 11
95.5328
 21
44.6881
  0
LINE
  8
0
 10
95.5328
 20
44.6881
 11
95.5
 21
45
  0
LINE
  8
0
 10
95.5
 20
45
 11
95.5328
 21
45.3119
  0
LINE
  8
0
 10
95.5328
 20
45.3119
 11
95.6297
 21
45.6101
  0
LINE
  8
0
 10
95.6297
 20
45.6101
 11
95.7865
 21
45.8817
  0
LINE
  8
0
 10
95.7865
 20
45.8817
 11
95.9963
 21
46.1147
  0
LINE
  8
0
 10
95.9963
 20
46.1147
 11
96.25
 21
46.299
  0
LINE
  8
0
 10
96.25
 20
46.299
 11
96.5365
 21
46.4266
  0
LINE
  8
0
 10
96.5365
 20
46.4266
 11
96.8432
 21
46.4918
  0
LINE
  8
0
 10
96.8432
 20
46.4918
 11
97.1568
 21
46.4918
  0
LINE
  8
0
 10
97.1568
 20
46.4918
 11
97.4635
 21
46.4266
  0
LINE
  8
0
 10
97.4635
 20
46.4266
 11
97.75
 21
46.299
  0
LINE
  8
0
 10
97.75
 20
46.299
 11
98.0037
 21
46.1147
  0
LINE
  8
0
 10
98.0037
 20
46.1147
 11
98.2135
 21
45.8817
  0
LINE
  8
0
 10
98.2135
 20
45.8817
 11
98.3703
 21
45.6101
  0
LINE
  8
0
 10
98.3703
 20
45.6101
 11
98.4672
 21
45.3119
  0
LINE
  8
0
 10
98.4672
 20
45.3119
 11
98.5
 21
45
  0
LINE
  8
0
 10
98.5
 20
45
 11
98.4672
 21
44.6881
  0
LINE
  8
0
 10
98.4672
 20
44.6881
 11
98.3703
 21
44.3899
  0
LINE
  8
0
 10
98.3703
 20
44.3899
 11
98.2135
 21
44.1183
  0
LINE
  8
0
 10
98.2135
 20
44.1183
 11
98.0037
 21
43.8853
  0
LINE
  8
0
 10
98.0037
 20
43.8853
 11
97.75
 21
43.701
  0
LINE
  8
0
 10
97.75
 20
43.701
 11
97.4635
 21
43.5734
  0
LINE
  8
0
 10
97.4635
 20
43.5734
 11
97.1568
 21
43.5082
  0
LINE
  8
0
 10
97.1568
 20
43.5082
 11
96.8432
 21
43.5082
  0
LINE
  8
0
 10
65.4774
 20
9.02739
 11
64.4549
 21
9.24471
  0
LINE
  8
0
 10
64.4549
 20
9.24471
 11
63.5
 21
9.66986
  0
LINE
  8
0
 10
63.5
 20
9.66986
 11
62.6543
 21
10.2843
  0
LINE
  8
0
 10
62.6543
 20
10.2843
 11
61.9549
 21
11.0611
  0
LINE
  8
0
 10
61.9549
 20
11.0611
 11
61.4323
 21
11.9663
  0
LINE
  8
0
 10
61.4323
 20
11.9663
 11
61.1093
 21
12.9604
  0
LINE
  8
0
 10
61.1093
 20
12.9604
 11
61
 21
14
  0
LINE
  8
0
 10
61
 20
14
 11
61
 21
36
  0
LINE
  8
0
 10
61
 20
36
 11
61.1093
 21
37.0396
  0
LINE
  8
0
 10
61.1093
 20
37.0396
 11
61.4323
 21
38.0337
  0
LINE
  8
0
 10
61.4323
 20
38.0337
 11
61.9549
 21
38.9389
  0
LINE
  8
0
 10
61.9549
 20
38.9389
 11
62.6543
 21
39.7157
  0
LINE
  8
0
 10
62.6543
 20
39.7157
 11
63.5
 21
40.3301
  0
LINE
  8
0
 10
63.5
 20
40.3301
 11
64.4549
 21
40.7553
  0
LINE
  8
0
 10
64.4549
 20
40.7553
 11
65.4774
 21
40.9726
  0
LINE
  8
0
 10
65.4774
 20
40.9726
 11
88.5226
 21
40.9726
  0
LINE
  8
0
 10
88.5226
 20
40.9726
 11
89.5451
 21
40.7553
  0
LINE
  8
0
 10
89.5451
 20
40.7553
 11
90.5
 21
40.3301
  0
LINE
  8
0
 10
90.5
 20
40.3301
 11
91.3456
 21
39.7157
  0
LINE
  8
0
 10
91.3456
 20
39.7157
 11
92.0451
 21
38.9389
  0
LINE
  8
0
 10
92.0451
 20
38.9389
 11
92.5677
 21
38.0337
  0
LINE
  8
0
 10
92.5677
 20
38.0337
 11
92.8907
 21
37.0396
  0
LINE
  8
0
 10
92.8907
 20
37.0396
 11
93
 21
36
  0
LINE
  8
0
 10
93
 20
36
 11
93
 21
14
  0
LINE
  8
0
 10
93
 20
14
 11
92.8907
 21
12.9604
  0
LINE
  8
0
 10
92.8907
 20
12.9604
 11
92.5677
 21
11.9663
  0
LINE
  8
0
 10
92.5677
 20
11.9663
 11
92.0451
 21
11.0611
  0
LINE
  8
0
 10
92.0451
 20
11.0611
 11
91.3456
 21
10.2843
  0
LINE
  8
0
 10
91.3456
 20
10.2843
 11
90.5
 21
9.66986
  0
LINE
  8
0
 10
90.5
 20
9.66986
 11
89.5451
 21
9.24471
  0
LINE
  8
0
 10
89.5451
 20
9.24471
 11
88.5226
 21
9.02739
  0
LINE
  8
0
 10
88.5226
 20
9.02739
 11
65.4774
 21
9.02739
  0
LINE
  8
0
 10
56.8432
 20
3.50821
 11
56.5365
 21
3.57341
  0
LINE
  8
0
 10
56.5365
 20
3.57341
 11
56.25
 21
3.70096
  0
LINE
  8
0
 10
56.25
 20
3.70096
 11
55.9963
 21
3.88527
  0
LINE
  8
0
 10
55.9963
 20
3.88527
 11
55.7865
 21
4.11832
  0
LINE
  8
0
 10
55.7865
 20
4.11832
 11
55.6297
 21
4.38989
  0
LINE
  8
0
 10
55.6297
 20
4.38989
 11
55.5328
 21
4.68813
  0
LINE
  8
0
 10
55.5328
 20
4.68813
 11
55.5
 21
5
  0
LINE
  8
0
 10
55.5
 20
5
 11
55.5328
 21
5.31186
  0
LINE
  8
0
 10
55.5328
 20
5.31186
 11
55.6297
 21
5.61009
  0
LINE
  8
0
 10
55.6297
 20
5.61009
 11
55.7865
 21
5.88167
  0
LINE
  8
0
 10
55.7865
 20
5.88167
 11
55.9963
 21
6.11472
  0
LINE
  8
0
 10
55.9963
 20
6.11472
 11
56.25
 21
6.29903
  0
LINE
  8
0
 10
56.25
 20
6.29903
 11
56.5365
 21
6.42657
  0
LINE
  8
0
 10
56.5365
 20
6.42657
 11
56.8432
 21
6.49178
  0
LINE
  8
0
 10
56.8432
 20
6.49178
 11
57.1568
 21
6.49178
  0
LINE
  8
0
 10
57.1568
 20
6.49178
 11
57.4635
 21
6.42657
  0
LINE
  8
0
 10
57.4635
 20
6.42657
 11
57.75
 21
6.29903
  0
LINE
  8
0
 10
57.75
 20
6.29903
 11
58.0037
 21
6.11472
  0
LINE
  8
0
 10
58.0037
 20
6.11472
 11
58.2135
 21
5.88167
  0
LINE
  8
0
 10
58.2135
 20
5.88167
 11
58.3703
 21
5.61009
  0
LINE
  8
0
 10
58.3703
 20
5.61009
 11
58.4672
 21
5.31186
  0
LINE
  8
0
 10
58.4672
 20
5.31186
 11
58.5
 21
5
  0
LINE
  8
0
 10
58.5
 20
5
 11
58.4672
 21
4.68813
  0
LINE
  8
0
 10
58.4672
 20
4.68813
 11
58.3703
 21
4.38989
  0
LINE
  8
0
 10
58.3703
 20
4.38989
 11
58.2135
 21
4.11832
  0
LINE
  8
0
 10
58.2135
 20
4.11832
 11
58.0037
 21
3.88527
  0
LINE
  8
0
 10
58.0037
 20
3.88527
 11
57.75
 21
3.70096
  0
LINE
  8
0
 10
57.75
 20
3.70096
 11
57.4635
 21
3.57341
  0
LINE
  8
0
 10
57.4635
 20
3.57341
 11
57.1568
 21
3.50821
  0
LINE
  8
0
 10
57.1568
 20
3.50821
 11
56.8432
 21
3.50821
  0
LINE
  8
0
 10
96.8432
 20
3.50821
 11
96.5365
 21
3.57341
  0
LINE
  8
0
 10
96.5365
 20
3.57341
 11
96.25
 21
3.70096
  0
LINE
  8
0
 10
96.25
 20
3.70096
 11
95.9963
 21
3.88527
  0
LINE
  8
0
 10
95.9963
 20
3.88527
 11
95.7865
 21
4.11832
  0
LINE
  8
0
 10
95.7865
 20
4.11832
 11
95.6297
 21
4.38989
  0
LINE
  8
0
 10
95.6297
 20
4.38989
 11
95.5328
 21
4.68813
  0
LINE
  8
0
 10
95.5328
 20
4.68813
 11
95.5
 21
5
  0
LINE
  8
0
 10
95.5
 20
5
 11
95.5328
 21
5.31186
  0
LINE
  8
0
 10
95.5328
 20
5.31186
 11
95.6297
 21
5.61009
  0
LINE
  8
0
 10
95.6297
 20
5.61009
 11
95.7865
 21
5.88167
  0
LINE
  8
0
 10
95.7865
 20
5.88167
 11
95.9963
 21
6.11472
  0
LINE
  8
0
 10
95.9963
 20
6.11472
 11
96.25
 21
6.29903
  0
LINE
  8
0
 10
96.25
 20
6.29903
 11
96.5365
 21
6.42657
  0
LINE
  8
0
 10
96.5365
 20
6.42657
 11
96.8432
 21
6.49178
  0
LINE
  8
0
 10
96.8432
 20
6.49178
 11
97.1568
 21
6.49178
  0
LINE
  8
0
 10
97.1568
 20
6.49178
 11
97.4635
 21
6.42657
  0
LINE
  8
0
 10
97.4635
 20
6.42657
 11
97.75
 21
6.29903
  0
LINE
  8
0
 10
97.75
 20
6.29903
 11
98.0037
 21
6.11472
  0
LINE
  8
0
 10
98.0037
 20
6.11472
 11
98.2135
 21
5.88167
  0
LINE
  8
0
 10
98.2135
 20
5.88167
 11
98.3703
 21
5.61009
  0
LINE
  8
0
 10
98.3703
 20
5.61009
 11
98.4672
 21
5.31186
  0
LINE
  8
0
 10
98.4672
 20
5.31186
 11
98.5
 21
5
  0
LINE
  8
0
 10
98.5
 20
5
 11
98.4672
 21
4.68813
  0
LINE
  8
0
 10
98.4672
 20
4.68813
 11
98.3703
 21
4.38989
  0
LINE
  8
0
 10
98.3703
 20
4.38989
 11
98.2135
 21
4.11832
  0
LINE
  8
0
 10
98.2135
 20
4.11832
 11
98.0037
 21
3.88527
  0
LINE
  8
0
 10
98.0037
 20
3.88527
 11
97.75
 21
3.70096
  0
LINE
  8
0
 10
97.75
 20
3.70096
 11
97.4635
 21
3.57341
  0
LINE
  8
0
 10
97.4635
 20
3.57341
 11
97.1568
 21
3.50821
  0
LINE
  8
0
 10
97.1568
 20
3.50821
 11
96.8432
 21
3.50821
  0
ENDSEC
  0
SECTION
  2
OBJECTS
  0
DICTIONARY
  0
ENDSEC
  0
EOF
