G04 #@! TF.FileFunction,Soldermask,Top*
%FSLAX46Y46*%
G04 Gerber Fmt 4.6, Leading zero omitted, Abs format (unit mm)*
G04 Created by KiCad (PCBNEW 4.0.2+dfsg1-stable) date Thu 18 Aug 2016 03:04:42 AM CEST*
%MOMM*%
G01*
G04 APERTURE LIST*
%ADD10C,0.100000*%
%ADD11R,2.099260X1.700480*%
%ADD12R,1.650000X1.400000*%
%ADD13R,2.127200X2.432000*%
%ADD14O,2.127200X2.432000*%
%ADD15C,1.299160*%
%ADD16R,1.200100X1.200100*%
%ADD17R,4.057600X2.432000*%
%ADD18R,1.416000X2.432000*%
%ADD19R,6.000700X2.500580*%
%ADD20R,1.400000X1.650000*%
%ADD21R,1.100000X1.700000*%
%ADD22R,1.700000X1.100000*%
%ADD23R,2.432000X2.127200*%
%ADD24O,2.432000X2.127200*%
%ADD25R,0.700000X2.230000*%
%ADD26R,1.901140X2.548840*%
G04 APERTURE END LIST*
D10*
D11*
X103124000Y-80291940D03*
X103124000Y-83792060D03*
D12*
X106680000Y-71882000D03*
X106680000Y-73882000D03*
D13*
X107188000Y-97322000D03*
D14*
X109728000Y-97322000D03*
X112268000Y-97322000D03*
X114808000Y-97322000D03*
D15*
X91782900Y-85199640D03*
X91782900Y-80800360D03*
D16*
X110424000Y-73947020D03*
X108524000Y-73947020D03*
X109474000Y-75946000D03*
X113980000Y-73929240D03*
X112080000Y-73929240D03*
X113030000Y-75928220D03*
D17*
X102108000Y-77978000D03*
D18*
X102108000Y-71374000D03*
X99822000Y-71374000D03*
X104394000Y-71374000D03*
D17*
X120650000Y-77724000D03*
D18*
X120650000Y-71120000D03*
X118364000Y-71120000D03*
X122936000Y-71120000D03*
D19*
X105641140Y-92964000D03*
X115338860Y-92964000D03*
D11*
X106426000Y-81053940D03*
X106426000Y-84554060D03*
D20*
X101750000Y-93000000D03*
X99750000Y-93000000D03*
D12*
X119634000Y-92948000D03*
X119634000Y-90948000D03*
X106426000Y-88376000D03*
X106426000Y-86376000D03*
D20*
X100092000Y-68834000D03*
X102092000Y-68834000D03*
D12*
X115824000Y-73898000D03*
X115824000Y-71898000D03*
D20*
X120920000Y-68580000D03*
X122920000Y-68580000D03*
D21*
X110490000Y-72136000D03*
X108590000Y-72136000D03*
D22*
X114750000Y-87188000D03*
X114750000Y-89088000D03*
X117000000Y-84958000D03*
X117000000Y-83058000D03*
X111250000Y-79950000D03*
X111250000Y-78050000D03*
D21*
X109200000Y-78750000D03*
X107300000Y-78750000D03*
X113980000Y-72136000D03*
X112080000Y-72136000D03*
D22*
X114750000Y-85786000D03*
X114750000Y-83886000D03*
D23*
X125270000Y-86810000D03*
D24*
X125270000Y-84270000D03*
X125270000Y-81730000D03*
X125270000Y-79190000D03*
D13*
X114810000Y-68790000D03*
D14*
X112270000Y-68790000D03*
X109730000Y-68790000D03*
X107190000Y-68790000D03*
D16*
X119778000Y-82364760D03*
X121678000Y-82364760D03*
X120728000Y-80365780D03*
X118602760Y-89088000D03*
X118602760Y-87188000D03*
X116603780Y-88138000D03*
D21*
X119778000Y-84158000D03*
X121678000Y-84158000D03*
D22*
X120396000Y-89088000D03*
X120396000Y-87188000D03*
D25*
X108712000Y-89000000D03*
X109982000Y-89000000D03*
X111252000Y-89000000D03*
X112522000Y-89000000D03*
X112522000Y-82000000D03*
X111252000Y-82000000D03*
X109982000Y-82000000D03*
X108712000Y-82000000D03*
D26*
X103000000Y-86498860D03*
X103000000Y-89501140D03*
M02*
