G04 #@! TF.FileFunction,Copper,L2,Bot,Signal*
%FSLAX46Y46*%
G04 Gerber Fmt 4.6, Leading zero omitted, Abs format (unit mm)*
G04 Created by KiCad (PCBNEW 4.0.2+dfsg1-stable) date Thu 18 Aug 2016 03:04:42 AM CEST*
%MOMM*%
G01*
G04 APERTURE LIST*
%ADD10C,0.100000*%
%ADD11R,1.727200X2.032000*%
%ADD12O,1.727200X2.032000*%
%ADD13R,2.301240X0.500380*%
%ADD14R,2.499360X1.998980*%
%ADD15R,2.032000X1.727200*%
%ADD16O,2.032000X1.727200*%
%ADD17C,0.600000*%
%ADD18C,0.254000*%
%ADD19C,0.200000*%
G04 APERTURE END LIST*
D10*
D11*
X107188000Y-97322000D03*
D12*
X109728000Y-97322000D03*
X112268000Y-97322000D03*
X114808000Y-97322000D03*
D13*
X94381320Y-84600200D03*
X94381320Y-83800100D03*
X94381320Y-83000000D03*
X94381320Y-82199900D03*
X94381320Y-81399800D03*
D14*
X94282260Y-87450080D03*
X88783160Y-87450080D03*
X94282260Y-78549920D03*
X88783160Y-78549920D03*
D15*
X125270000Y-86810000D03*
D16*
X125270000Y-84270000D03*
X125270000Y-81730000D03*
X125270000Y-79190000D03*
D11*
X114810000Y-68790000D03*
D12*
X112270000Y-68790000D03*
X109730000Y-68790000D03*
X107190000Y-68790000D03*
D17*
X93250000Y-80250000D03*
X117000000Y-69000000D03*
X105144121Y-68904833D03*
X93217613Y-85608594D03*
X123201588Y-89065557D03*
X123238000Y-83312000D03*
X110499391Y-70698724D03*
X113056309Y-70714556D03*
X92500000Y-83000000D03*
X91404206Y-83013466D03*
D18*
X94381320Y-81399800D02*
X94381320Y-81381320D01*
X94381320Y-81381320D02*
X93250000Y-80250000D01*
X94381320Y-82199900D02*
X94381320Y-81399800D01*
X117000000Y-69000000D02*
X117000000Y-67684026D01*
X117000000Y-67684026D02*
X116065974Y-66750000D01*
X116065974Y-66750000D02*
X106500000Y-66750000D01*
X106500000Y-66750000D02*
X105144121Y-68105879D01*
X105144121Y-68105879D02*
X105144121Y-68904833D01*
X105144121Y-69329097D02*
X105144121Y-68904833D01*
X105144121Y-71944814D02*
X105144121Y-69329097D01*
X105156000Y-71956693D02*
X105144121Y-71944814D01*
X114808000Y-97322000D02*
X114808000Y-96820678D01*
X114808000Y-96820678D02*
X104062861Y-86075539D01*
X104062861Y-86075539D02*
X102608828Y-87529572D01*
X102608828Y-87529572D02*
X102608828Y-82187802D01*
X102608828Y-82187802D02*
X105156000Y-79640630D01*
X99500000Y-87529572D02*
X102608828Y-87529572D01*
X98715312Y-87529572D02*
X99500000Y-87529572D01*
X105156000Y-79640630D02*
X105156000Y-69206693D01*
X105156000Y-79640630D02*
X105622334Y-79640630D01*
X114808000Y-97169600D02*
X114808000Y-97322000D01*
X94381320Y-85104390D02*
X93877116Y-85608594D01*
X93877116Y-85608594D02*
X93641877Y-85608594D01*
X94381320Y-84600200D02*
X94381320Y-85104390D01*
X93641877Y-85608594D02*
X93217613Y-85608594D01*
X94381320Y-84600200D02*
X95785940Y-84600200D01*
X95785940Y-84600200D02*
X98715312Y-87529572D01*
X123238000Y-89029145D02*
X123201588Y-89065557D01*
X123238000Y-83312000D02*
X123238000Y-89029145D01*
X123238000Y-81069600D02*
X125117600Y-79190000D01*
X125117600Y-79190000D02*
X125270000Y-79190000D01*
X123238000Y-83312000D02*
X123238000Y-81069600D01*
X108946324Y-70698724D02*
X110075127Y-70698724D01*
X107190000Y-68790000D02*
X107190000Y-68942400D01*
X110075127Y-70698724D02*
X110499391Y-70698724D01*
X113056309Y-70714556D02*
X110515223Y-70714556D01*
X107190000Y-68942400D02*
X108946324Y-70698724D01*
X110515223Y-70714556D02*
X110499391Y-70698724D01*
D19*
X92500000Y-83000000D02*
X94381320Y-83000000D01*
X94381320Y-83800100D02*
X92190840Y-83800100D01*
X92190840Y-83800100D02*
X91704205Y-83313465D01*
X91704205Y-83313465D02*
X91404206Y-83013466D01*
D18*
G36*
X132019072Y-59125528D02*
X133730760Y-60269241D01*
X134874471Y-61980926D01*
X135290000Y-64069931D01*
X135290000Y-101930069D01*
X134874471Y-104019074D01*
X133730760Y-105730759D01*
X132019072Y-106874472D01*
X129930069Y-107290000D01*
X92069931Y-107290000D01*
X89980926Y-106874471D01*
X88269241Y-105730760D01*
X87125528Y-104019072D01*
X87006926Y-103422815D01*
X88864630Y-103422815D01*
X89188980Y-104207800D01*
X89789041Y-104808909D01*
X90573459Y-105134628D01*
X91422815Y-105135370D01*
X92207800Y-104811020D01*
X92808909Y-104210959D01*
X93134628Y-103426541D01*
X93134631Y-103422815D01*
X128864630Y-103422815D01*
X129188980Y-104207800D01*
X129789041Y-104808909D01*
X130573459Y-105134628D01*
X131422815Y-105135370D01*
X132207800Y-104811020D01*
X132808909Y-104210959D01*
X133134628Y-103426541D01*
X133135370Y-102577185D01*
X132811020Y-101792200D01*
X132210959Y-101191091D01*
X131426541Y-100865372D01*
X130577185Y-100864630D01*
X129792200Y-101188980D01*
X129191091Y-101789041D01*
X128865372Y-102573459D01*
X128864630Y-103422815D01*
X93134631Y-103422815D01*
X93135370Y-102577185D01*
X92811020Y-101792200D01*
X92210959Y-101191091D01*
X91426541Y-100865372D01*
X90577185Y-100864630D01*
X89792200Y-101188980D01*
X89191091Y-101789041D01*
X88865372Y-102573459D01*
X88864630Y-103422815D01*
X87006926Y-103422815D01*
X86710000Y-101930069D01*
X86710000Y-96306000D01*
X105676960Y-96306000D01*
X105676960Y-98338000D01*
X105721238Y-98573317D01*
X105860310Y-98789441D01*
X106072510Y-98934431D01*
X106324400Y-98985440D01*
X108051600Y-98985440D01*
X108286917Y-98941162D01*
X108503041Y-98802090D01*
X108648031Y-98589890D01*
X108656400Y-98548561D01*
X108668330Y-98566415D01*
X109154511Y-98891271D01*
X109728000Y-99005345D01*
X110301489Y-98891271D01*
X110787670Y-98566415D01*
X110998000Y-98251634D01*
X111208330Y-98566415D01*
X111694511Y-98891271D01*
X112268000Y-99005345D01*
X112841489Y-98891271D01*
X113327670Y-98566415D01*
X113534461Y-98256931D01*
X113905964Y-98672732D01*
X114433209Y-98926709D01*
X114448974Y-98929358D01*
X114681000Y-98808217D01*
X114681000Y-97449000D01*
X114935000Y-97449000D01*
X114935000Y-98808217D01*
X115167026Y-98929358D01*
X115182791Y-98926709D01*
X115710036Y-98672732D01*
X116099954Y-98236320D01*
X116293184Y-97683913D01*
X116148924Y-97449000D01*
X114935000Y-97449000D01*
X114681000Y-97449000D01*
X114661000Y-97449000D01*
X114661000Y-97195000D01*
X114681000Y-97195000D01*
X114681000Y-95835783D01*
X114935000Y-95835783D01*
X114935000Y-97195000D01*
X116148924Y-97195000D01*
X116293184Y-96960087D01*
X116099954Y-96407680D01*
X115710036Y-95971268D01*
X115182791Y-95717291D01*
X115167026Y-95714642D01*
X114935000Y-95835783D01*
X114681000Y-95835783D01*
X114448974Y-95714642D01*
X114433209Y-95717291D01*
X113905964Y-95971268D01*
X113534461Y-96387069D01*
X113327670Y-96077585D01*
X112841489Y-95752729D01*
X112268000Y-95638655D01*
X111694511Y-95752729D01*
X111208330Y-96077585D01*
X110998000Y-96392366D01*
X110787670Y-96077585D01*
X110301489Y-95752729D01*
X109728000Y-95638655D01*
X109154511Y-95752729D01*
X108668330Y-96077585D01*
X108658757Y-96091913D01*
X108654762Y-96070683D01*
X108515690Y-95854559D01*
X108303490Y-95709569D01*
X108051600Y-95658560D01*
X106324400Y-95658560D01*
X106089083Y-95702838D01*
X105872959Y-95841910D01*
X105727969Y-96054110D01*
X105676960Y-96306000D01*
X86710000Y-96306000D01*
X86710000Y-89250724D01*
X122266426Y-89250724D01*
X122408471Y-89594500D01*
X122671261Y-89857749D01*
X123014789Y-90000395D01*
X123386755Y-90000719D01*
X123730531Y-89858674D01*
X123993780Y-89595884D01*
X124136426Y-89252356D01*
X124136750Y-88880390D01*
X124000000Y-88549429D01*
X124000000Y-88268589D01*
X124002110Y-88270031D01*
X124254000Y-88321040D01*
X126286000Y-88321040D01*
X126521317Y-88276762D01*
X126737441Y-88137690D01*
X126882431Y-87925490D01*
X126933440Y-87673600D01*
X126933440Y-85946400D01*
X126889162Y-85711083D01*
X126750090Y-85494959D01*
X126537890Y-85349969D01*
X126496561Y-85341600D01*
X126514415Y-85329670D01*
X126839271Y-84843489D01*
X126953345Y-84270000D01*
X126839271Y-83696511D01*
X126514415Y-83210330D01*
X126199634Y-83000000D01*
X126514415Y-82789670D01*
X126839271Y-82303489D01*
X126953345Y-81730000D01*
X126839271Y-81156511D01*
X126514415Y-80670330D01*
X126199634Y-80460000D01*
X126514415Y-80249670D01*
X126839271Y-79763489D01*
X126953345Y-79190000D01*
X126839271Y-78616511D01*
X126514415Y-78130330D01*
X126028234Y-77805474D01*
X125454745Y-77691400D01*
X125085255Y-77691400D01*
X124511766Y-77805474D01*
X124025585Y-78130330D01*
X123700729Y-78616511D01*
X123586655Y-79190000D01*
X123661865Y-79568105D01*
X122699185Y-80530785D01*
X122534004Y-80777995D01*
X122476000Y-81069600D01*
X122476000Y-82751534D01*
X122445808Y-82781673D01*
X122303162Y-83125201D01*
X122302838Y-83497167D01*
X122444883Y-83840943D01*
X122476000Y-83872114D01*
X122476000Y-88468742D01*
X122409396Y-88535230D01*
X122266750Y-88878758D01*
X122266426Y-89250724D01*
X86710000Y-89250724D01*
X86710000Y-86450590D01*
X86886040Y-86450590D01*
X86886040Y-88449570D01*
X86930318Y-88684887D01*
X87069390Y-88901011D01*
X87281590Y-89046001D01*
X87533480Y-89097010D01*
X90032840Y-89097010D01*
X90268157Y-89052732D01*
X90484281Y-88913660D01*
X90629271Y-88701460D01*
X90680280Y-88449570D01*
X90680280Y-86450590D01*
X92385140Y-86450590D01*
X92385140Y-88449570D01*
X92429418Y-88684887D01*
X92568490Y-88901011D01*
X92780690Y-89046001D01*
X93032580Y-89097010D01*
X95531940Y-89097010D01*
X95767257Y-89052732D01*
X95983381Y-88913660D01*
X96128371Y-88701460D01*
X96179380Y-88449570D01*
X96179380Y-86450590D01*
X96135102Y-86215273D01*
X95996030Y-85999149D01*
X95783830Y-85854159D01*
X95531940Y-85803150D01*
X93032580Y-85803150D01*
X92797263Y-85847428D01*
X92581139Y-85986500D01*
X92436149Y-86198700D01*
X92385140Y-86450590D01*
X90680280Y-86450590D01*
X90636002Y-86215273D01*
X90496930Y-85999149D01*
X90284730Y-85854159D01*
X90032840Y-85803150D01*
X87533480Y-85803150D01*
X87298163Y-85847428D01*
X87082039Y-85986500D01*
X86937049Y-86198700D01*
X86886040Y-86450590D01*
X86710000Y-86450590D01*
X86710000Y-83198633D01*
X90469044Y-83198633D01*
X90611089Y-83542409D01*
X90873879Y-83805658D01*
X91217407Y-83948304D01*
X91299669Y-83948376D01*
X91495972Y-84144679D01*
X91169337Y-84279642D01*
X90863974Y-84584473D01*
X90698509Y-84982957D01*
X90698132Y-85414430D01*
X90862902Y-85813203D01*
X91167733Y-86118566D01*
X91566217Y-86284031D01*
X91997690Y-86284408D01*
X92396463Y-86119638D01*
X92701826Y-85814807D01*
X92867291Y-85416323D01*
X92867318Y-85385033D01*
X92871002Y-85388717D01*
X93104391Y-85485390D01*
X94095570Y-85485390D01*
X94254320Y-85326640D01*
X94254320Y-84725295D01*
X94508320Y-84725295D01*
X94508320Y-85326640D01*
X94667070Y-85485390D01*
X95658249Y-85485390D01*
X95891638Y-85388717D01*
X96070267Y-85210089D01*
X96166940Y-84976700D01*
X96166940Y-84884045D01*
X96008190Y-84725295D01*
X94508320Y-84725295D01*
X94254320Y-84725295D01*
X94234320Y-84725295D01*
X94234320Y-84697730D01*
X95531940Y-84697730D01*
X95767257Y-84653452D01*
X95983381Y-84514380D01*
X96014588Y-84468707D01*
X96166940Y-84316355D01*
X96166940Y-84223700D01*
X96151710Y-84186931D01*
X96179380Y-84050290D01*
X96179380Y-83549910D01*
X96150147Y-83394548D01*
X96179380Y-83250190D01*
X96179380Y-82749810D01*
X96150147Y-82594448D01*
X96179380Y-82450090D01*
X96179380Y-81949710D01*
X96150147Y-81794348D01*
X96179380Y-81649990D01*
X96179380Y-81149610D01*
X96135102Y-80914293D01*
X95996030Y-80698169D01*
X95783830Y-80553179D01*
X95531940Y-80502170D01*
X94579800Y-80502170D01*
X94274480Y-80196850D01*
X95531940Y-80196850D01*
X95767257Y-80152572D01*
X95983381Y-80013500D01*
X96128371Y-79801300D01*
X96179380Y-79549410D01*
X96179380Y-77550430D01*
X96135102Y-77315113D01*
X95996030Y-77098989D01*
X95783830Y-76953999D01*
X95531940Y-76902990D01*
X93032580Y-76902990D01*
X92797263Y-76947268D01*
X92581139Y-77086340D01*
X92436149Y-77298540D01*
X92385140Y-77550430D01*
X92385140Y-79549410D01*
X92429418Y-79784727D01*
X92430255Y-79786028D01*
X92391731Y-79878803D01*
X91999583Y-79715969D01*
X91568110Y-79715592D01*
X91169337Y-79880362D01*
X90863974Y-80185193D01*
X90698509Y-80583677D01*
X90698132Y-81015150D01*
X90862902Y-81413923D01*
X91167733Y-81719286D01*
X91566217Y-81884751D01*
X91997690Y-81885128D01*
X92396463Y-81720358D01*
X92583260Y-81533886D01*
X92583260Y-81649990D01*
X92612493Y-81805352D01*
X92583260Y-81949710D01*
X92583260Y-82065072D01*
X92314833Y-82064838D01*
X91971057Y-82206883D01*
X91945568Y-82232328D01*
X91934533Y-82221274D01*
X91591005Y-82078628D01*
X91219039Y-82078304D01*
X90875263Y-82220349D01*
X90612014Y-82483139D01*
X90469368Y-82826667D01*
X90469044Y-83198633D01*
X86710000Y-83198633D01*
X86710000Y-77550430D01*
X86886040Y-77550430D01*
X86886040Y-79549410D01*
X86930318Y-79784727D01*
X87069390Y-80000851D01*
X87281590Y-80145841D01*
X87533480Y-80196850D01*
X90032840Y-80196850D01*
X90268157Y-80152572D01*
X90484281Y-80013500D01*
X90629271Y-79801300D01*
X90680280Y-79549410D01*
X90680280Y-77550430D01*
X90636002Y-77315113D01*
X90496930Y-77098989D01*
X90284730Y-76953999D01*
X90032840Y-76902990D01*
X87533480Y-76902990D01*
X87298163Y-76947268D01*
X87082039Y-77086340D01*
X86937049Y-77298540D01*
X86886040Y-77550430D01*
X86710000Y-77550430D01*
X86710000Y-68605255D01*
X105691400Y-68605255D01*
X105691400Y-68974745D01*
X105805474Y-69548234D01*
X106130330Y-70034415D01*
X106616511Y-70359271D01*
X107190000Y-70473345D01*
X107568105Y-70398135D01*
X108407508Y-71237539D01*
X108654719Y-71402720D01*
X108946324Y-71460724D01*
X109938925Y-71460724D01*
X109969064Y-71490916D01*
X110312592Y-71633562D01*
X110684558Y-71633886D01*
X111028334Y-71491841D01*
X111043646Y-71476556D01*
X112495843Y-71476556D01*
X112525982Y-71506748D01*
X112869510Y-71649394D01*
X113241476Y-71649718D01*
X113585252Y-71507673D01*
X113848501Y-71244883D01*
X113991147Y-70901355D01*
X113991471Y-70529389D01*
X113960090Y-70453440D01*
X115673600Y-70453440D01*
X115908917Y-70409162D01*
X116125041Y-70270090D01*
X116270031Y-70057890D01*
X116321040Y-69806000D01*
X116321040Y-67774000D01*
X116276762Y-67538683D01*
X116137690Y-67322559D01*
X115925490Y-67177569D01*
X115673600Y-67126560D01*
X113946400Y-67126560D01*
X113711083Y-67170838D01*
X113494959Y-67309910D01*
X113349969Y-67522110D01*
X113341600Y-67563439D01*
X113329670Y-67545585D01*
X112843489Y-67220729D01*
X112270000Y-67106655D01*
X111696511Y-67220729D01*
X111210330Y-67545585D01*
X111000000Y-67860366D01*
X110789670Y-67545585D01*
X110303489Y-67220729D01*
X109730000Y-67106655D01*
X109156511Y-67220729D01*
X108670330Y-67545585D01*
X108460000Y-67860366D01*
X108249670Y-67545585D01*
X107763489Y-67220729D01*
X107190000Y-67106655D01*
X106616511Y-67220729D01*
X106130330Y-67545585D01*
X105805474Y-68031766D01*
X105691400Y-68605255D01*
X86710000Y-68605255D01*
X86710000Y-64069931D01*
X86838719Y-63422815D01*
X88864630Y-63422815D01*
X89188980Y-64207800D01*
X89789041Y-64808909D01*
X90573459Y-65134628D01*
X91422815Y-65135370D01*
X92207800Y-64811020D01*
X92808909Y-64210959D01*
X93134628Y-63426541D01*
X93134631Y-63422815D01*
X128864630Y-63422815D01*
X129188980Y-64207800D01*
X129789041Y-64808909D01*
X130573459Y-65134628D01*
X131422815Y-65135370D01*
X132207800Y-64811020D01*
X132808909Y-64210959D01*
X133134628Y-63426541D01*
X133135370Y-62577185D01*
X132811020Y-61792200D01*
X132210959Y-61191091D01*
X131426541Y-60865372D01*
X130577185Y-60864630D01*
X129792200Y-61188980D01*
X129191091Y-61789041D01*
X128865372Y-62573459D01*
X128864630Y-63422815D01*
X93134631Y-63422815D01*
X93135370Y-62577185D01*
X92811020Y-61792200D01*
X92210959Y-61191091D01*
X91426541Y-60865372D01*
X90577185Y-60864630D01*
X89792200Y-61188980D01*
X89191091Y-61789041D01*
X88865372Y-62573459D01*
X88864630Y-63422815D01*
X86838719Y-63422815D01*
X87125528Y-61980928D01*
X88269241Y-60269240D01*
X89980926Y-59125529D01*
X92069931Y-58710000D01*
X129930069Y-58710000D01*
X132019072Y-59125528D01*
X132019072Y-59125528D01*
G37*
X132019072Y-59125528D02*
X133730760Y-60269241D01*
X134874471Y-61980926D01*
X135290000Y-64069931D01*
X135290000Y-101930069D01*
X134874471Y-104019074D01*
X133730760Y-105730759D01*
X132019072Y-106874472D01*
X129930069Y-107290000D01*
X92069931Y-107290000D01*
X89980926Y-106874471D01*
X88269241Y-105730760D01*
X87125528Y-104019072D01*
X87006926Y-103422815D01*
X88864630Y-103422815D01*
X89188980Y-104207800D01*
X89789041Y-104808909D01*
X90573459Y-105134628D01*
X91422815Y-105135370D01*
X92207800Y-104811020D01*
X92808909Y-104210959D01*
X93134628Y-103426541D01*
X93134631Y-103422815D01*
X128864630Y-103422815D01*
X129188980Y-104207800D01*
X129789041Y-104808909D01*
X130573459Y-105134628D01*
X131422815Y-105135370D01*
X132207800Y-104811020D01*
X132808909Y-104210959D01*
X133134628Y-103426541D01*
X133135370Y-102577185D01*
X132811020Y-101792200D01*
X132210959Y-101191091D01*
X131426541Y-100865372D01*
X130577185Y-100864630D01*
X129792200Y-101188980D01*
X129191091Y-101789041D01*
X128865372Y-102573459D01*
X128864630Y-103422815D01*
X93134631Y-103422815D01*
X93135370Y-102577185D01*
X92811020Y-101792200D01*
X92210959Y-101191091D01*
X91426541Y-100865372D01*
X90577185Y-100864630D01*
X89792200Y-101188980D01*
X89191091Y-101789041D01*
X88865372Y-102573459D01*
X88864630Y-103422815D01*
X87006926Y-103422815D01*
X86710000Y-101930069D01*
X86710000Y-96306000D01*
X105676960Y-96306000D01*
X105676960Y-98338000D01*
X105721238Y-98573317D01*
X105860310Y-98789441D01*
X106072510Y-98934431D01*
X106324400Y-98985440D01*
X108051600Y-98985440D01*
X108286917Y-98941162D01*
X108503041Y-98802090D01*
X108648031Y-98589890D01*
X108656400Y-98548561D01*
X108668330Y-98566415D01*
X109154511Y-98891271D01*
X109728000Y-99005345D01*
X110301489Y-98891271D01*
X110787670Y-98566415D01*
X110998000Y-98251634D01*
X111208330Y-98566415D01*
X111694511Y-98891271D01*
X112268000Y-99005345D01*
X112841489Y-98891271D01*
X113327670Y-98566415D01*
X113534461Y-98256931D01*
X113905964Y-98672732D01*
X114433209Y-98926709D01*
X114448974Y-98929358D01*
X114681000Y-98808217D01*
X114681000Y-97449000D01*
X114935000Y-97449000D01*
X114935000Y-98808217D01*
X115167026Y-98929358D01*
X115182791Y-98926709D01*
X115710036Y-98672732D01*
X116099954Y-98236320D01*
X116293184Y-97683913D01*
X116148924Y-97449000D01*
X114935000Y-97449000D01*
X114681000Y-97449000D01*
X114661000Y-97449000D01*
X114661000Y-97195000D01*
X114681000Y-97195000D01*
X114681000Y-95835783D01*
X114935000Y-95835783D01*
X114935000Y-97195000D01*
X116148924Y-97195000D01*
X116293184Y-96960087D01*
X116099954Y-96407680D01*
X115710036Y-95971268D01*
X115182791Y-95717291D01*
X115167026Y-95714642D01*
X114935000Y-95835783D01*
X114681000Y-95835783D01*
X114448974Y-95714642D01*
X114433209Y-95717291D01*
X113905964Y-95971268D01*
X113534461Y-96387069D01*
X113327670Y-96077585D01*
X112841489Y-95752729D01*
X112268000Y-95638655D01*
X111694511Y-95752729D01*
X111208330Y-96077585D01*
X110998000Y-96392366D01*
X110787670Y-96077585D01*
X110301489Y-95752729D01*
X109728000Y-95638655D01*
X109154511Y-95752729D01*
X108668330Y-96077585D01*
X108658757Y-96091913D01*
X108654762Y-96070683D01*
X108515690Y-95854559D01*
X108303490Y-95709569D01*
X108051600Y-95658560D01*
X106324400Y-95658560D01*
X106089083Y-95702838D01*
X105872959Y-95841910D01*
X105727969Y-96054110D01*
X105676960Y-96306000D01*
X86710000Y-96306000D01*
X86710000Y-89250724D01*
X122266426Y-89250724D01*
X122408471Y-89594500D01*
X122671261Y-89857749D01*
X123014789Y-90000395D01*
X123386755Y-90000719D01*
X123730531Y-89858674D01*
X123993780Y-89595884D01*
X124136426Y-89252356D01*
X124136750Y-88880390D01*
X124000000Y-88549429D01*
X124000000Y-88268589D01*
X124002110Y-88270031D01*
X124254000Y-88321040D01*
X126286000Y-88321040D01*
X126521317Y-88276762D01*
X126737441Y-88137690D01*
X126882431Y-87925490D01*
X126933440Y-87673600D01*
X126933440Y-85946400D01*
X126889162Y-85711083D01*
X126750090Y-85494959D01*
X126537890Y-85349969D01*
X126496561Y-85341600D01*
X126514415Y-85329670D01*
X126839271Y-84843489D01*
X126953345Y-84270000D01*
X126839271Y-83696511D01*
X126514415Y-83210330D01*
X126199634Y-83000000D01*
X126514415Y-82789670D01*
X126839271Y-82303489D01*
X126953345Y-81730000D01*
X126839271Y-81156511D01*
X126514415Y-80670330D01*
X126199634Y-80460000D01*
X126514415Y-80249670D01*
X126839271Y-79763489D01*
X126953345Y-79190000D01*
X126839271Y-78616511D01*
X126514415Y-78130330D01*
X126028234Y-77805474D01*
X125454745Y-77691400D01*
X125085255Y-77691400D01*
X124511766Y-77805474D01*
X124025585Y-78130330D01*
X123700729Y-78616511D01*
X123586655Y-79190000D01*
X123661865Y-79568105D01*
X122699185Y-80530785D01*
X122534004Y-80777995D01*
X122476000Y-81069600D01*
X122476000Y-82751534D01*
X122445808Y-82781673D01*
X122303162Y-83125201D01*
X122302838Y-83497167D01*
X122444883Y-83840943D01*
X122476000Y-83872114D01*
X122476000Y-88468742D01*
X122409396Y-88535230D01*
X122266750Y-88878758D01*
X122266426Y-89250724D01*
X86710000Y-89250724D01*
X86710000Y-86450590D01*
X86886040Y-86450590D01*
X86886040Y-88449570D01*
X86930318Y-88684887D01*
X87069390Y-88901011D01*
X87281590Y-89046001D01*
X87533480Y-89097010D01*
X90032840Y-89097010D01*
X90268157Y-89052732D01*
X90484281Y-88913660D01*
X90629271Y-88701460D01*
X90680280Y-88449570D01*
X90680280Y-86450590D01*
X92385140Y-86450590D01*
X92385140Y-88449570D01*
X92429418Y-88684887D01*
X92568490Y-88901011D01*
X92780690Y-89046001D01*
X93032580Y-89097010D01*
X95531940Y-89097010D01*
X95767257Y-89052732D01*
X95983381Y-88913660D01*
X96128371Y-88701460D01*
X96179380Y-88449570D01*
X96179380Y-86450590D01*
X96135102Y-86215273D01*
X95996030Y-85999149D01*
X95783830Y-85854159D01*
X95531940Y-85803150D01*
X93032580Y-85803150D01*
X92797263Y-85847428D01*
X92581139Y-85986500D01*
X92436149Y-86198700D01*
X92385140Y-86450590D01*
X90680280Y-86450590D01*
X90636002Y-86215273D01*
X90496930Y-85999149D01*
X90284730Y-85854159D01*
X90032840Y-85803150D01*
X87533480Y-85803150D01*
X87298163Y-85847428D01*
X87082039Y-85986500D01*
X86937049Y-86198700D01*
X86886040Y-86450590D01*
X86710000Y-86450590D01*
X86710000Y-83198633D01*
X90469044Y-83198633D01*
X90611089Y-83542409D01*
X90873879Y-83805658D01*
X91217407Y-83948304D01*
X91299669Y-83948376D01*
X91495972Y-84144679D01*
X91169337Y-84279642D01*
X90863974Y-84584473D01*
X90698509Y-84982957D01*
X90698132Y-85414430D01*
X90862902Y-85813203D01*
X91167733Y-86118566D01*
X91566217Y-86284031D01*
X91997690Y-86284408D01*
X92396463Y-86119638D01*
X92701826Y-85814807D01*
X92867291Y-85416323D01*
X92867318Y-85385033D01*
X92871002Y-85388717D01*
X93104391Y-85485390D01*
X94095570Y-85485390D01*
X94254320Y-85326640D01*
X94254320Y-84725295D01*
X94508320Y-84725295D01*
X94508320Y-85326640D01*
X94667070Y-85485390D01*
X95658249Y-85485390D01*
X95891638Y-85388717D01*
X96070267Y-85210089D01*
X96166940Y-84976700D01*
X96166940Y-84884045D01*
X96008190Y-84725295D01*
X94508320Y-84725295D01*
X94254320Y-84725295D01*
X94234320Y-84725295D01*
X94234320Y-84697730D01*
X95531940Y-84697730D01*
X95767257Y-84653452D01*
X95983381Y-84514380D01*
X96014588Y-84468707D01*
X96166940Y-84316355D01*
X96166940Y-84223700D01*
X96151710Y-84186931D01*
X96179380Y-84050290D01*
X96179380Y-83549910D01*
X96150147Y-83394548D01*
X96179380Y-83250190D01*
X96179380Y-82749810D01*
X96150147Y-82594448D01*
X96179380Y-82450090D01*
X96179380Y-81949710D01*
X96150147Y-81794348D01*
X96179380Y-81649990D01*
X96179380Y-81149610D01*
X96135102Y-80914293D01*
X95996030Y-80698169D01*
X95783830Y-80553179D01*
X95531940Y-80502170D01*
X94579800Y-80502170D01*
X94274480Y-80196850D01*
X95531940Y-80196850D01*
X95767257Y-80152572D01*
X95983381Y-80013500D01*
X96128371Y-79801300D01*
X96179380Y-79549410D01*
X96179380Y-77550430D01*
X96135102Y-77315113D01*
X95996030Y-77098989D01*
X95783830Y-76953999D01*
X95531940Y-76902990D01*
X93032580Y-76902990D01*
X92797263Y-76947268D01*
X92581139Y-77086340D01*
X92436149Y-77298540D01*
X92385140Y-77550430D01*
X92385140Y-79549410D01*
X92429418Y-79784727D01*
X92430255Y-79786028D01*
X92391731Y-79878803D01*
X91999583Y-79715969D01*
X91568110Y-79715592D01*
X91169337Y-79880362D01*
X90863974Y-80185193D01*
X90698509Y-80583677D01*
X90698132Y-81015150D01*
X90862902Y-81413923D01*
X91167733Y-81719286D01*
X91566217Y-81884751D01*
X91997690Y-81885128D01*
X92396463Y-81720358D01*
X92583260Y-81533886D01*
X92583260Y-81649990D01*
X92612493Y-81805352D01*
X92583260Y-81949710D01*
X92583260Y-82065072D01*
X92314833Y-82064838D01*
X91971057Y-82206883D01*
X91945568Y-82232328D01*
X91934533Y-82221274D01*
X91591005Y-82078628D01*
X91219039Y-82078304D01*
X90875263Y-82220349D01*
X90612014Y-82483139D01*
X90469368Y-82826667D01*
X90469044Y-83198633D01*
X86710000Y-83198633D01*
X86710000Y-77550430D01*
X86886040Y-77550430D01*
X86886040Y-79549410D01*
X86930318Y-79784727D01*
X87069390Y-80000851D01*
X87281590Y-80145841D01*
X87533480Y-80196850D01*
X90032840Y-80196850D01*
X90268157Y-80152572D01*
X90484281Y-80013500D01*
X90629271Y-79801300D01*
X90680280Y-79549410D01*
X90680280Y-77550430D01*
X90636002Y-77315113D01*
X90496930Y-77098989D01*
X90284730Y-76953999D01*
X90032840Y-76902990D01*
X87533480Y-76902990D01*
X87298163Y-76947268D01*
X87082039Y-77086340D01*
X86937049Y-77298540D01*
X86886040Y-77550430D01*
X86710000Y-77550430D01*
X86710000Y-68605255D01*
X105691400Y-68605255D01*
X105691400Y-68974745D01*
X105805474Y-69548234D01*
X106130330Y-70034415D01*
X106616511Y-70359271D01*
X107190000Y-70473345D01*
X107568105Y-70398135D01*
X108407508Y-71237539D01*
X108654719Y-71402720D01*
X108946324Y-71460724D01*
X109938925Y-71460724D01*
X109969064Y-71490916D01*
X110312592Y-71633562D01*
X110684558Y-71633886D01*
X111028334Y-71491841D01*
X111043646Y-71476556D01*
X112495843Y-71476556D01*
X112525982Y-71506748D01*
X112869510Y-71649394D01*
X113241476Y-71649718D01*
X113585252Y-71507673D01*
X113848501Y-71244883D01*
X113991147Y-70901355D01*
X113991471Y-70529389D01*
X113960090Y-70453440D01*
X115673600Y-70453440D01*
X115908917Y-70409162D01*
X116125041Y-70270090D01*
X116270031Y-70057890D01*
X116321040Y-69806000D01*
X116321040Y-67774000D01*
X116276762Y-67538683D01*
X116137690Y-67322559D01*
X115925490Y-67177569D01*
X115673600Y-67126560D01*
X113946400Y-67126560D01*
X113711083Y-67170838D01*
X113494959Y-67309910D01*
X113349969Y-67522110D01*
X113341600Y-67563439D01*
X113329670Y-67545585D01*
X112843489Y-67220729D01*
X112270000Y-67106655D01*
X111696511Y-67220729D01*
X111210330Y-67545585D01*
X111000000Y-67860366D01*
X110789670Y-67545585D01*
X110303489Y-67220729D01*
X109730000Y-67106655D01*
X109156511Y-67220729D01*
X108670330Y-67545585D01*
X108460000Y-67860366D01*
X108249670Y-67545585D01*
X107763489Y-67220729D01*
X107190000Y-67106655D01*
X106616511Y-67220729D01*
X106130330Y-67545585D01*
X105805474Y-68031766D01*
X105691400Y-68605255D01*
X86710000Y-68605255D01*
X86710000Y-64069931D01*
X86838719Y-63422815D01*
X88864630Y-63422815D01*
X89188980Y-64207800D01*
X89789041Y-64808909D01*
X90573459Y-65134628D01*
X91422815Y-65135370D01*
X92207800Y-64811020D01*
X92808909Y-64210959D01*
X93134628Y-63426541D01*
X93134631Y-63422815D01*
X128864630Y-63422815D01*
X129188980Y-64207800D01*
X129789041Y-64808909D01*
X130573459Y-65134628D01*
X131422815Y-65135370D01*
X132207800Y-64811020D01*
X132808909Y-64210959D01*
X133134628Y-63426541D01*
X133135370Y-62577185D01*
X132811020Y-61792200D01*
X132210959Y-61191091D01*
X131426541Y-60865372D01*
X130577185Y-60864630D01*
X129792200Y-61188980D01*
X129191091Y-61789041D01*
X128865372Y-62573459D01*
X128864630Y-63422815D01*
X93134631Y-63422815D01*
X93135370Y-62577185D01*
X92811020Y-61792200D01*
X92210959Y-61191091D01*
X91426541Y-60865372D01*
X90577185Y-60864630D01*
X89792200Y-61188980D01*
X89191091Y-61789041D01*
X88865372Y-62573459D01*
X88864630Y-63422815D01*
X86838719Y-63422815D01*
X87125528Y-61980928D01*
X88269241Y-60269240D01*
X89980926Y-59125529D01*
X92069931Y-58710000D01*
X129930069Y-58710000D01*
X132019072Y-59125528D01*
M02*
