M48
;DRILL file {KiCad 4.0.2+dfsg1-stable} date Thu 18 Aug 2016 03:05:18 AM CEST
;FORMAT={-:-/ absolute / metric / decimal}
FMAT,2
METRIC,TZ
T1C0.400
T2C1.016
T3C3.000
%
G90
G05
M71
T1
X91.404Y-83.013
X92.5Y-83.
X93.218Y-85.609
X93.25Y-80.25
X105.144Y-68.905
X110.499Y-70.699
X113.056Y-70.715
X117.Y-69.
X123.202Y-89.066
X123.238Y-83.312
T2
X107.188Y-97.322
X107.19Y-68.79
X109.728Y-97.322
X109.73Y-68.79
X112.268Y-97.322
X112.27Y-68.79
X114.808Y-97.322
X114.81Y-68.79
X125.27Y-79.19
X125.27Y-81.73
X125.27Y-84.27
X125.27Y-86.81
T3
X91.Y-63.
X91.Y-103.
X131.Y-63.
X131.Y-103.
T0
M30
