G04 #@! TF.FileFunction,Legend,Top*
%FSLAX46Y46*%
G04 Gerber Fmt 4.6, Leading zero omitted, Abs format (unit mm)*
G04 Created by KiCad (PCBNEW 4.0.2+dfsg1-stable) date Thu 18 Aug 2016 03:04:42 AM CEST*
%MOMM*%
G01*
G04 APERTURE LIST*
%ADD10C,0.100000*%
%ADD11C,0.300000*%
%ADD12C,0.150000*%
G04 APERTURE END LIST*
D10*
D11*
X114058000Y-66122857D02*
X113986571Y-66265714D01*
X113986571Y-66480000D01*
X114058000Y-66694285D01*
X114200857Y-66837143D01*
X114343714Y-66908571D01*
X114629429Y-66980000D01*
X114843714Y-66980000D01*
X115129429Y-66908571D01*
X115272286Y-66837143D01*
X115415143Y-66694285D01*
X115486571Y-66480000D01*
X115486571Y-66337143D01*
X115415143Y-66122857D01*
X115343714Y-66051428D01*
X114843714Y-66051428D01*
X114843714Y-66337143D01*
X115486571Y-65408571D02*
X113986571Y-65408571D01*
X115486571Y-64551428D01*
X113986571Y-64551428D01*
X115486571Y-63837142D02*
X113986571Y-63837142D01*
X113986571Y-63479999D01*
X114058000Y-63265714D01*
X114200857Y-63122856D01*
X114343714Y-63051428D01*
X114629429Y-62979999D01*
X114843714Y-62979999D01*
X115129429Y-63051428D01*
X115272286Y-63122856D01*
X115415143Y-63265714D01*
X115486571Y-63479999D01*
X115486571Y-63837142D01*
X112875143Y-66765714D02*
X112946571Y-66551428D01*
X112946571Y-66194285D01*
X112875143Y-66051428D01*
X112803714Y-65979999D01*
X112660857Y-65908571D01*
X112518000Y-65908571D01*
X112375143Y-65979999D01*
X112303714Y-66051428D01*
X112232286Y-66194285D01*
X112160857Y-66479999D01*
X112089429Y-66622857D01*
X112018000Y-66694285D01*
X111875143Y-66765714D01*
X111732286Y-66765714D01*
X111589429Y-66694285D01*
X111518000Y-66622857D01*
X111446571Y-66479999D01*
X111446571Y-66122857D01*
X111518000Y-65908571D01*
X112803714Y-64408571D02*
X112875143Y-64480000D01*
X112946571Y-64694286D01*
X112946571Y-64837143D01*
X112875143Y-65051428D01*
X112732286Y-65194286D01*
X112589429Y-65265714D01*
X112303714Y-65337143D01*
X112089429Y-65337143D01*
X111803714Y-65265714D01*
X111660857Y-65194286D01*
X111518000Y-65051428D01*
X111446571Y-64837143D01*
X111446571Y-64694286D01*
X111518000Y-64480000D01*
X111589429Y-64408571D01*
X112946571Y-63051428D02*
X112946571Y-63765714D01*
X111446571Y-63765714D01*
X110589143Y-66801428D02*
X110660571Y-66587142D01*
X110660571Y-66229999D01*
X110589143Y-66087142D01*
X110517714Y-66015713D01*
X110374857Y-65944285D01*
X110232000Y-65944285D01*
X110089143Y-66015713D01*
X110017714Y-66087142D01*
X109946286Y-66229999D01*
X109874857Y-66515713D01*
X109803429Y-66658571D01*
X109732000Y-66729999D01*
X109589143Y-66801428D01*
X109446286Y-66801428D01*
X109303429Y-66729999D01*
X109232000Y-66658571D01*
X109160571Y-66515713D01*
X109160571Y-66158571D01*
X109232000Y-65944285D01*
X110660571Y-65301428D02*
X109160571Y-65301428D01*
X109160571Y-64944285D01*
X109232000Y-64730000D01*
X109374857Y-64587142D01*
X109517714Y-64515714D01*
X109803429Y-64444285D01*
X110017714Y-64444285D01*
X110303429Y-64515714D01*
X110446286Y-64587142D01*
X110589143Y-64730000D01*
X110660571Y-64944285D01*
X110660571Y-65301428D01*
X110232000Y-63872857D02*
X110232000Y-63158571D01*
X110660571Y-64015714D02*
X109160571Y-63515714D01*
X110660571Y-63015714D01*
X108120571Y-66011714D02*
X108120571Y-66868857D01*
X108120571Y-66440285D02*
X106620571Y-66440285D01*
X106834857Y-66583142D01*
X106977714Y-66726000D01*
X107049143Y-66868857D01*
X107977714Y-65368857D02*
X108049143Y-65297429D01*
X108120571Y-65368857D01*
X108049143Y-65440286D01*
X107977714Y-65368857D01*
X108120571Y-65368857D01*
X107263429Y-64440285D02*
X107192000Y-64583143D01*
X107120571Y-64654571D01*
X106977714Y-64726000D01*
X106906286Y-64726000D01*
X106763429Y-64654571D01*
X106692000Y-64583143D01*
X106620571Y-64440285D01*
X106620571Y-64154571D01*
X106692000Y-64011714D01*
X106763429Y-63940285D01*
X106906286Y-63868857D01*
X106977714Y-63868857D01*
X107120571Y-63940285D01*
X107192000Y-64011714D01*
X107263429Y-64154571D01*
X107263429Y-64440285D01*
X107334857Y-64583143D01*
X107406286Y-64654571D01*
X107549143Y-64726000D01*
X107834857Y-64726000D01*
X107977714Y-64654571D01*
X108049143Y-64583143D01*
X108120571Y-64440285D01*
X108120571Y-64154571D01*
X108049143Y-64011714D01*
X107977714Y-63940285D01*
X107834857Y-63868857D01*
X107549143Y-63868857D01*
X107406286Y-63940285D01*
X107334857Y-64011714D01*
X107263429Y-64154571D01*
X106620571Y-63440286D02*
X108120571Y-62940286D01*
X106620571Y-62440286D01*
X127214286Y-78428571D02*
X128142857Y-78428571D01*
X127642857Y-79000000D01*
X127857143Y-79000000D01*
X128000000Y-79071429D01*
X128071429Y-79142857D01*
X128142857Y-79285714D01*
X128142857Y-79642857D01*
X128071429Y-79785714D01*
X128000000Y-79857143D01*
X127857143Y-79928571D01*
X127428571Y-79928571D01*
X127285714Y-79857143D01*
X127214286Y-79785714D01*
X128785714Y-79785714D02*
X128857142Y-79857143D01*
X128785714Y-79928571D01*
X128714285Y-79857143D01*
X128785714Y-79785714D01*
X128785714Y-79928571D01*
X129357143Y-78428571D02*
X130285714Y-78428571D01*
X129785714Y-79000000D01*
X130000000Y-79000000D01*
X130142857Y-79071429D01*
X130214286Y-79142857D01*
X130285714Y-79285714D01*
X130285714Y-79642857D01*
X130214286Y-79785714D01*
X130142857Y-79857143D01*
X130000000Y-79928571D01*
X129571428Y-79928571D01*
X129428571Y-79857143D01*
X129357143Y-79785714D01*
X130714285Y-78428571D02*
X131214285Y-79928571D01*
X131714285Y-78428571D01*
X112875143Y-102699428D02*
X112946571Y-102485142D01*
X112946571Y-102127999D01*
X112875143Y-101985142D01*
X112803714Y-101913713D01*
X112660857Y-101842285D01*
X112518000Y-101842285D01*
X112375143Y-101913713D01*
X112303714Y-101985142D01*
X112232286Y-102127999D01*
X112160857Y-102413713D01*
X112089429Y-102556571D01*
X112018000Y-102627999D01*
X111875143Y-102699428D01*
X111732286Y-102699428D01*
X111589429Y-102627999D01*
X111518000Y-102556571D01*
X111446571Y-102413713D01*
X111446571Y-102056571D01*
X111518000Y-101842285D01*
X112946571Y-101199428D02*
X111446571Y-101199428D01*
X111446571Y-100842285D01*
X111518000Y-100628000D01*
X111660857Y-100485142D01*
X111803714Y-100413714D01*
X112089429Y-100342285D01*
X112303714Y-100342285D01*
X112589429Y-100413714D01*
X112732286Y-100485142D01*
X112875143Y-100628000D01*
X112946571Y-100842285D01*
X112946571Y-101199428D01*
X112518000Y-99770857D02*
X112518000Y-99056571D01*
X112946571Y-99913714D02*
X111446571Y-99413714D01*
X112946571Y-98913714D01*
X110335143Y-102663714D02*
X110406571Y-102449428D01*
X110406571Y-102092285D01*
X110335143Y-101949428D01*
X110263714Y-101877999D01*
X110120857Y-101806571D01*
X109978000Y-101806571D01*
X109835143Y-101877999D01*
X109763714Y-101949428D01*
X109692286Y-102092285D01*
X109620857Y-102377999D01*
X109549429Y-102520857D01*
X109478000Y-102592285D01*
X109335143Y-102663714D01*
X109192286Y-102663714D01*
X109049429Y-102592285D01*
X108978000Y-102520857D01*
X108906571Y-102377999D01*
X108906571Y-102020857D01*
X108978000Y-101806571D01*
X110263714Y-100306571D02*
X110335143Y-100378000D01*
X110406571Y-100592286D01*
X110406571Y-100735143D01*
X110335143Y-100949428D01*
X110192286Y-101092286D01*
X110049429Y-101163714D01*
X109763714Y-101235143D01*
X109549429Y-101235143D01*
X109263714Y-101163714D01*
X109120857Y-101092286D01*
X108978000Y-100949428D01*
X108906571Y-100735143D01*
X108906571Y-100592286D01*
X108978000Y-100378000D01*
X109049429Y-100306571D01*
X110406571Y-98949428D02*
X110406571Y-99663714D01*
X108906571Y-99663714D01*
X106438000Y-102274857D02*
X106366571Y-102417714D01*
X106366571Y-102632000D01*
X106438000Y-102846285D01*
X106580857Y-102989143D01*
X106723714Y-103060571D01*
X107009429Y-103132000D01*
X107223714Y-103132000D01*
X107509429Y-103060571D01*
X107652286Y-102989143D01*
X107795143Y-102846285D01*
X107866571Y-102632000D01*
X107866571Y-102489143D01*
X107795143Y-102274857D01*
X107723714Y-102203428D01*
X107223714Y-102203428D01*
X107223714Y-102489143D01*
X107866571Y-101560571D02*
X106366571Y-101560571D01*
X107866571Y-100703428D01*
X106366571Y-100703428D01*
X107866571Y-99989142D02*
X106366571Y-99989142D01*
X106366571Y-99631999D01*
X106438000Y-99417714D01*
X106580857Y-99274856D01*
X106723714Y-99203428D01*
X107009429Y-99131999D01*
X107223714Y-99131999D01*
X107509429Y-99203428D01*
X107652286Y-99274856D01*
X107795143Y-99417714D01*
X107866571Y-99631999D01*
X107866571Y-99989142D01*
X128142857Y-86000000D02*
X128000000Y-85928571D01*
X127785714Y-85928571D01*
X127571429Y-86000000D01*
X127428571Y-86142857D01*
X127357143Y-86285714D01*
X127285714Y-86571429D01*
X127285714Y-86785714D01*
X127357143Y-87071429D01*
X127428571Y-87214286D01*
X127571429Y-87357143D01*
X127785714Y-87428571D01*
X127928571Y-87428571D01*
X128142857Y-87357143D01*
X128214286Y-87285714D01*
X128214286Y-86785714D01*
X127928571Y-86785714D01*
X128857143Y-87428571D02*
X128857143Y-85928571D01*
X129714286Y-87428571D01*
X129714286Y-85928571D01*
X130428572Y-87428571D02*
X130428572Y-85928571D01*
X130785715Y-85928571D01*
X131000000Y-86000000D01*
X131142858Y-86142857D01*
X131214286Y-86285714D01*
X131285715Y-86571429D01*
X131285715Y-86785714D01*
X131214286Y-87071429D01*
X131142858Y-87214286D01*
X131000000Y-87357143D01*
X130785715Y-87428571D01*
X130428572Y-87428571D01*
X127285714Y-84857143D02*
X127500000Y-84928571D01*
X127857143Y-84928571D01*
X128000000Y-84857143D01*
X128071429Y-84785714D01*
X128142857Y-84642857D01*
X128142857Y-84500000D01*
X128071429Y-84357143D01*
X128000000Y-84285714D01*
X127857143Y-84214286D01*
X127571429Y-84142857D01*
X127428571Y-84071429D01*
X127357143Y-84000000D01*
X127285714Y-83857143D01*
X127285714Y-83714286D01*
X127357143Y-83571429D01*
X127428571Y-83500000D01*
X127571429Y-83428571D01*
X127928571Y-83428571D01*
X128142857Y-83500000D01*
X129642857Y-84785714D02*
X129571428Y-84857143D01*
X129357142Y-84928571D01*
X129214285Y-84928571D01*
X129000000Y-84857143D01*
X128857142Y-84714286D01*
X128785714Y-84571429D01*
X128714285Y-84285714D01*
X128714285Y-84071429D01*
X128785714Y-83785714D01*
X128857142Y-83642857D01*
X129000000Y-83500000D01*
X129214285Y-83428571D01*
X129357142Y-83428571D01*
X129571428Y-83500000D01*
X129642857Y-83571429D01*
X131000000Y-84928571D02*
X130285714Y-84928571D01*
X130285714Y-83428571D01*
X127285714Y-82357143D02*
X127500000Y-82428571D01*
X127857143Y-82428571D01*
X128000000Y-82357143D01*
X128071429Y-82285714D01*
X128142857Y-82142857D01*
X128142857Y-82000000D01*
X128071429Y-81857143D01*
X128000000Y-81785714D01*
X127857143Y-81714286D01*
X127571429Y-81642857D01*
X127428571Y-81571429D01*
X127357143Y-81500000D01*
X127285714Y-81357143D01*
X127285714Y-81214286D01*
X127357143Y-81071429D01*
X127428571Y-81000000D01*
X127571429Y-80928571D01*
X127928571Y-80928571D01*
X128142857Y-81000000D01*
X128785714Y-82428571D02*
X128785714Y-80928571D01*
X129142857Y-80928571D01*
X129357142Y-81000000D01*
X129500000Y-81142857D01*
X129571428Y-81285714D01*
X129642857Y-81571429D01*
X129642857Y-81785714D01*
X129571428Y-82071429D01*
X129500000Y-82214286D01*
X129357142Y-82357143D01*
X129142857Y-82428571D01*
X128785714Y-82428571D01*
X130214285Y-82000000D02*
X130928571Y-82000000D01*
X130071428Y-82428571D02*
X130571428Y-80928571D01*
X131071428Y-82428571D01*
X113986571Y-102743142D02*
X113986571Y-103457428D01*
X114700857Y-103528857D01*
X114629429Y-103457428D01*
X114558000Y-103314571D01*
X114558000Y-102957428D01*
X114629429Y-102814571D01*
X114700857Y-102743142D01*
X114843714Y-102671714D01*
X115200857Y-102671714D01*
X115343714Y-102743142D01*
X115415143Y-102814571D01*
X115486571Y-102957428D01*
X115486571Y-103314571D01*
X115415143Y-103457428D01*
X115343714Y-103528857D01*
X115343714Y-102028857D02*
X115415143Y-101957429D01*
X115486571Y-102028857D01*
X115415143Y-102100286D01*
X115343714Y-102028857D01*
X115486571Y-102028857D01*
X113986571Y-101028857D02*
X113986571Y-100886000D01*
X114058000Y-100743143D01*
X114129429Y-100671714D01*
X114272286Y-100600285D01*
X114558000Y-100528857D01*
X114915143Y-100528857D01*
X115200857Y-100600285D01*
X115343714Y-100671714D01*
X115415143Y-100743143D01*
X115486571Y-100886000D01*
X115486571Y-101028857D01*
X115415143Y-101171714D01*
X115343714Y-101243143D01*
X115200857Y-101314571D01*
X114915143Y-101386000D01*
X114558000Y-101386000D01*
X114272286Y-101314571D01*
X114129429Y-101243143D01*
X114058000Y-101171714D01*
X113986571Y-101028857D01*
X113986571Y-100100286D02*
X115486571Y-99600286D01*
X113986571Y-99100286D01*
D12*
X103073200Y-81641760D02*
X103974000Y-82642520D01*
X103974000Y-82642520D02*
X102274000Y-82642520D01*
X102274000Y-82642520D02*
X103124000Y-81641760D01*
X103974000Y-81641760D02*
X102274000Y-81641760D01*
X107530000Y-73382000D02*
X107530000Y-72382000D01*
X105830000Y-72382000D02*
X105830000Y-73382000D01*
X108174840Y-75598020D02*
X108223100Y-75598020D01*
X110973820Y-74896980D02*
X110973820Y-75598020D01*
X110973820Y-75598020D02*
X110724900Y-75598020D01*
X108174840Y-75598020D02*
X107974180Y-75598020D01*
X107974180Y-75598020D02*
X107974180Y-74896980D01*
X111730840Y-75580240D02*
X111779100Y-75580240D01*
X114529820Y-74879200D02*
X114529820Y-75580240D01*
X114529820Y-75580240D02*
X114280900Y-75580240D01*
X111730840Y-75580240D02*
X111530180Y-75580240D01*
X111530180Y-75580240D02*
X111530180Y-74879200D01*
X105664000Y-73152000D02*
X105664000Y-70104000D01*
X105664000Y-70104000D02*
X98552000Y-70104000D01*
X98552000Y-70104000D02*
X98552000Y-73152000D01*
X105664000Y-76200000D02*
X105664000Y-76962000D01*
X105664000Y-76962000D02*
X104140000Y-79248000D01*
X104140000Y-79248000D02*
X100076000Y-79248000D01*
X100076000Y-79248000D02*
X98552000Y-76962000D01*
X98552000Y-76962000D02*
X98552000Y-76200000D01*
X124206000Y-72898000D02*
X124206000Y-69850000D01*
X124206000Y-69850000D02*
X117094000Y-69850000D01*
X117094000Y-69850000D02*
X117094000Y-72898000D01*
X124206000Y-75946000D02*
X124206000Y-76708000D01*
X124206000Y-76708000D02*
X122682000Y-78994000D01*
X122682000Y-78994000D02*
X118618000Y-78994000D01*
X118618000Y-78994000D02*
X117094000Y-76708000D01*
X117094000Y-76708000D02*
X117094000Y-75946000D01*
X104640380Y-95463360D02*
X116339620Y-95463360D01*
X116339620Y-90464640D02*
X104640380Y-90464640D01*
X116339620Y-95463360D02*
X116339620Y-94615000D01*
X116339620Y-90464640D02*
X116339620Y-91313000D01*
X104640380Y-95463360D02*
X104640380Y-94615000D01*
X104640380Y-90464640D02*
X104640380Y-91313000D01*
X106375200Y-82403760D02*
X107276000Y-83404520D01*
X107276000Y-83404520D02*
X105576000Y-83404520D01*
X105576000Y-83404520D02*
X106426000Y-82403760D01*
X107276000Y-82403760D02*
X105576000Y-82403760D01*
X100250000Y-93850000D02*
X101250000Y-93850000D01*
X101250000Y-92150000D02*
X100250000Y-92150000D01*
X118784000Y-91448000D02*
X118784000Y-92448000D01*
X120484000Y-92448000D02*
X120484000Y-91448000D01*
X105576000Y-86876000D02*
X105576000Y-87876000D01*
X107276000Y-87876000D02*
X107276000Y-86876000D01*
X101592000Y-67984000D02*
X100592000Y-67984000D01*
X100592000Y-69684000D02*
X101592000Y-69684000D01*
X114974000Y-72398000D02*
X114974000Y-73398000D01*
X116674000Y-73398000D02*
X116674000Y-72398000D01*
X122420000Y-67730000D02*
X121420000Y-67730000D01*
X121420000Y-69430000D02*
X122420000Y-69430000D01*
X108940000Y-71261000D02*
X110140000Y-71261000D01*
X110140000Y-73011000D02*
X108940000Y-73011000D01*
X113875000Y-88738000D02*
X113875000Y-87538000D01*
X115625000Y-87538000D02*
X115625000Y-88738000D01*
X117875000Y-83408000D02*
X117875000Y-84608000D01*
X116125000Y-84608000D02*
X116125000Y-83408000D01*
X112125000Y-78400000D02*
X112125000Y-79600000D01*
X110375000Y-79600000D02*
X110375000Y-78400000D01*
X107650000Y-77875000D02*
X108850000Y-77875000D01*
X108850000Y-79625000D02*
X107650000Y-79625000D01*
X112430000Y-71261000D02*
X113630000Y-71261000D01*
X113630000Y-73011000D02*
X112430000Y-73011000D01*
X115625000Y-84236000D02*
X115625000Y-85436000D01*
X113875000Y-85436000D02*
X113875000Y-84236000D01*
X122027160Y-80713760D02*
X121978900Y-80713760D01*
X119228180Y-81414800D02*
X119228180Y-80713760D01*
X119228180Y-80713760D02*
X119477100Y-80713760D01*
X122027160Y-80713760D02*
X122227820Y-80713760D01*
X122227820Y-80713760D02*
X122227820Y-81414800D01*
X116951760Y-86838840D02*
X116951760Y-86887100D01*
X117652800Y-89637820D02*
X116951760Y-89637820D01*
X116951760Y-89637820D02*
X116951760Y-89388900D01*
X116951760Y-86838840D02*
X116951760Y-86638180D01*
X116951760Y-86638180D02*
X117652800Y-86638180D01*
X121328000Y-85033000D02*
X120128000Y-85033000D01*
X120128000Y-83283000D02*
X121328000Y-83283000D01*
X121271000Y-87538000D02*
X121271000Y-88738000D01*
X119521000Y-88738000D02*
X119521000Y-87538000D01*
X107617000Y-88500000D02*
X108217000Y-88500000D01*
X107617000Y-82500000D02*
X108217000Y-82500000D01*
X113017000Y-82500000D02*
X113617000Y-82500000D01*
X113617000Y-88500000D02*
X113017000Y-88500000D01*
X107617000Y-88500000D02*
X107617000Y-82500000D01*
X113617000Y-88500000D02*
X113617000Y-82500000D01*
X108017000Y-88900000D02*
X108017000Y-89700000D01*
X104198880Y-90600960D02*
X104198880Y-85399040D01*
X101801120Y-85399040D02*
X101801120Y-90600960D01*
X100701300Y-91599180D02*
X101801120Y-91599180D01*
X101201680Y-92198620D02*
X101201680Y-90999740D01*
X101801120Y-91096260D02*
X104198880Y-91096260D01*
X101270569Y-91980132D02*
X101270569Y-91218227D01*
X101651521Y-91599179D02*
X100889616Y-91599179D01*
M02*
