G04 #@! TF.FileFunction,Legend,Bot*
%FSLAX46Y46*%
G04 Gerber Fmt 4.6, Leading zero omitted, Abs format (unit mm)*
G04 Created by KiCad (PCBNEW 4.0.2+dfsg1-stable) date Thu 18 Aug 2016 03:04:42 AM CEST*
%MOMM*%
G01*
G04 APERTURE LIST*
%ADD10C,0.100000*%
%ADD11C,0.200000*%
%ADD12C,0.150000*%
G04 APERTURE END LIST*
D10*
D11*
X123136476Y-86468000D02*
X123212667Y-86429905D01*
X123326952Y-86429905D01*
X123441238Y-86468000D01*
X123517429Y-86544190D01*
X123555524Y-86620381D01*
X123593619Y-86772762D01*
X123593619Y-86887048D01*
X123555524Y-87039429D01*
X123517429Y-87115619D01*
X123441238Y-87191810D01*
X123326952Y-87229905D01*
X123250762Y-87229905D01*
X123136476Y-87191810D01*
X123098381Y-87153714D01*
X123098381Y-86887048D01*
X123250762Y-86887048D01*
X122755524Y-87229905D02*
X122755524Y-86429905D01*
X122298381Y-87229905D01*
X122298381Y-86429905D01*
X121917429Y-87229905D02*
X121917429Y-86429905D01*
X121726953Y-86429905D01*
X121612667Y-86468000D01*
X121536476Y-86544190D01*
X121498381Y-86620381D01*
X121460286Y-86772762D01*
X121460286Y-86887048D01*
X121498381Y-87039429D01*
X121536476Y-87115619D01*
X121612667Y-87191810D01*
X121726953Y-87229905D01*
X121917429Y-87229905D01*
X123593619Y-84651810D02*
X123479333Y-84689905D01*
X123288857Y-84689905D01*
X123212667Y-84651810D01*
X123174571Y-84613714D01*
X123136476Y-84537524D01*
X123136476Y-84461333D01*
X123174571Y-84385143D01*
X123212667Y-84347048D01*
X123288857Y-84308952D01*
X123441238Y-84270857D01*
X123517429Y-84232762D01*
X123555524Y-84194667D01*
X123593619Y-84118476D01*
X123593619Y-84042286D01*
X123555524Y-83966095D01*
X123517429Y-83928000D01*
X123441238Y-83889905D01*
X123250762Y-83889905D01*
X123136476Y-83928000D01*
X122336476Y-84613714D02*
X122374571Y-84651810D01*
X122488857Y-84689905D01*
X122565047Y-84689905D01*
X122679333Y-84651810D01*
X122755524Y-84575619D01*
X122793619Y-84499429D01*
X122831714Y-84347048D01*
X122831714Y-84232762D01*
X122793619Y-84080381D01*
X122755524Y-84004190D01*
X122679333Y-83928000D01*
X122565047Y-83889905D01*
X122488857Y-83889905D01*
X122374571Y-83928000D01*
X122336476Y-83966095D01*
X121612666Y-84689905D02*
X121993619Y-84689905D01*
X121993619Y-83889905D01*
X123593619Y-82111810D02*
X123479333Y-82149905D01*
X123288857Y-82149905D01*
X123212667Y-82111810D01*
X123174571Y-82073714D01*
X123136476Y-81997524D01*
X123136476Y-81921333D01*
X123174571Y-81845143D01*
X123212667Y-81807048D01*
X123288857Y-81768952D01*
X123441238Y-81730857D01*
X123517429Y-81692762D01*
X123555524Y-81654667D01*
X123593619Y-81578476D01*
X123593619Y-81502286D01*
X123555524Y-81426095D01*
X123517429Y-81388000D01*
X123441238Y-81349905D01*
X123250762Y-81349905D01*
X123136476Y-81388000D01*
X122793619Y-82149905D02*
X122793619Y-81349905D01*
X122603143Y-81349905D01*
X122488857Y-81388000D01*
X122412666Y-81464190D01*
X122374571Y-81540381D01*
X122336476Y-81692762D01*
X122336476Y-81807048D01*
X122374571Y-81959429D01*
X122412666Y-82035619D01*
X122488857Y-82111810D01*
X122603143Y-82149905D01*
X122793619Y-82149905D01*
X122031714Y-81921333D02*
X121650762Y-81921333D01*
X122107905Y-82149905D02*
X121841238Y-81349905D01*
X121574571Y-82149905D01*
X123631714Y-78809905D02*
X123136476Y-78809905D01*
X123403143Y-79114667D01*
X123288857Y-79114667D01*
X123212667Y-79152762D01*
X123174571Y-79190857D01*
X123136476Y-79267048D01*
X123136476Y-79457524D01*
X123174571Y-79533714D01*
X123212667Y-79571810D01*
X123288857Y-79609905D01*
X123517429Y-79609905D01*
X123593619Y-79571810D01*
X123631714Y-79533714D01*
X122793619Y-79533714D02*
X122755524Y-79571810D01*
X122793619Y-79609905D01*
X122831714Y-79571810D01*
X122793619Y-79533714D01*
X122793619Y-79609905D01*
X122488857Y-78809905D02*
X121993619Y-78809905D01*
X122260286Y-79114667D01*
X122146000Y-79114667D01*
X122069810Y-79152762D01*
X122031714Y-79190857D01*
X121993619Y-79267048D01*
X121993619Y-79457524D01*
X122031714Y-79533714D01*
X122069810Y-79571810D01*
X122146000Y-79609905D01*
X122374572Y-79609905D01*
X122450762Y-79571810D01*
X122488857Y-79533714D01*
X121765048Y-78809905D02*
X121498381Y-79609905D01*
X121231714Y-78809905D01*
X107640381Y-71105905D02*
X107640381Y-70534476D01*
X107640381Y-70820190D02*
X106640381Y-70820190D01*
X106783238Y-70724952D01*
X106878476Y-70629714D01*
X106926095Y-70534476D01*
X107545143Y-71534476D02*
X107592762Y-71582095D01*
X107640381Y-71534476D01*
X107592762Y-71486857D01*
X107545143Y-71534476D01*
X107640381Y-71534476D01*
X107068952Y-72153523D02*
X107021333Y-72058285D01*
X106973714Y-72010666D01*
X106878476Y-71963047D01*
X106830857Y-71963047D01*
X106735619Y-72010666D01*
X106688000Y-72058285D01*
X106640381Y-72153523D01*
X106640381Y-72344000D01*
X106688000Y-72439238D01*
X106735619Y-72486857D01*
X106830857Y-72534476D01*
X106878476Y-72534476D01*
X106973714Y-72486857D01*
X107021333Y-72439238D01*
X107068952Y-72344000D01*
X107068952Y-72153523D01*
X107116571Y-72058285D01*
X107164190Y-72010666D01*
X107259429Y-71963047D01*
X107449905Y-71963047D01*
X107545143Y-72010666D01*
X107592762Y-72058285D01*
X107640381Y-72153523D01*
X107640381Y-72344000D01*
X107592762Y-72439238D01*
X107545143Y-72486857D01*
X107449905Y-72534476D01*
X107259429Y-72534476D01*
X107164190Y-72486857D01*
X107116571Y-72439238D01*
X107068952Y-72344000D01*
X106640381Y-72820190D02*
X107640381Y-73153523D01*
X106640381Y-73486857D01*
X110132762Y-70504476D02*
X110180381Y-70647333D01*
X110180381Y-70885429D01*
X110132762Y-70980667D01*
X110085143Y-71028286D01*
X109989905Y-71075905D01*
X109894667Y-71075905D01*
X109799429Y-71028286D01*
X109751810Y-70980667D01*
X109704190Y-70885429D01*
X109656571Y-70694952D01*
X109608952Y-70599714D01*
X109561333Y-70552095D01*
X109466095Y-70504476D01*
X109370857Y-70504476D01*
X109275619Y-70552095D01*
X109228000Y-70599714D01*
X109180381Y-70694952D01*
X109180381Y-70933048D01*
X109228000Y-71075905D01*
X110180381Y-71504476D02*
X109180381Y-71504476D01*
X109180381Y-71742571D01*
X109228000Y-71885429D01*
X109323238Y-71980667D01*
X109418476Y-72028286D01*
X109608952Y-72075905D01*
X109751810Y-72075905D01*
X109942286Y-72028286D01*
X110037524Y-71980667D01*
X110132762Y-71885429D01*
X110180381Y-71742571D01*
X110180381Y-71504476D01*
X109894667Y-72456857D02*
X109894667Y-72933048D01*
X110180381Y-72361619D02*
X109180381Y-72694952D01*
X110180381Y-73028286D01*
X112672762Y-70504476D02*
X112720381Y-70647333D01*
X112720381Y-70885429D01*
X112672762Y-70980667D01*
X112625143Y-71028286D01*
X112529905Y-71075905D01*
X112434667Y-71075905D01*
X112339429Y-71028286D01*
X112291810Y-70980667D01*
X112244190Y-70885429D01*
X112196571Y-70694952D01*
X112148952Y-70599714D01*
X112101333Y-70552095D01*
X112006095Y-70504476D01*
X111910857Y-70504476D01*
X111815619Y-70552095D01*
X111768000Y-70599714D01*
X111720381Y-70694952D01*
X111720381Y-70933048D01*
X111768000Y-71075905D01*
X112625143Y-72075905D02*
X112672762Y-72028286D01*
X112720381Y-71885429D01*
X112720381Y-71790191D01*
X112672762Y-71647333D01*
X112577524Y-71552095D01*
X112482286Y-71504476D01*
X112291810Y-71456857D01*
X112148952Y-71456857D01*
X111958476Y-71504476D01*
X111863238Y-71552095D01*
X111768000Y-71647333D01*
X111720381Y-71790191D01*
X111720381Y-71885429D01*
X111768000Y-72028286D01*
X111815619Y-72075905D01*
X112720381Y-72980667D02*
X112720381Y-72504476D01*
X111720381Y-72504476D01*
X114308000Y-71075905D02*
X114260381Y-70980667D01*
X114260381Y-70837810D01*
X114308000Y-70694952D01*
X114403238Y-70599714D01*
X114498476Y-70552095D01*
X114688952Y-70504476D01*
X114831810Y-70504476D01*
X115022286Y-70552095D01*
X115117524Y-70599714D01*
X115212762Y-70694952D01*
X115260381Y-70837810D01*
X115260381Y-70933048D01*
X115212762Y-71075905D01*
X115165143Y-71123524D01*
X114831810Y-71123524D01*
X114831810Y-70933048D01*
X115260381Y-71552095D02*
X114260381Y-71552095D01*
X115260381Y-72123524D01*
X114260381Y-72123524D01*
X115260381Y-72599714D02*
X114260381Y-72599714D01*
X114260381Y-72837809D01*
X114308000Y-72980667D01*
X114403238Y-73075905D01*
X114498476Y-73123524D01*
X114688952Y-73171143D01*
X114831810Y-73171143D01*
X115022286Y-73123524D01*
X115117524Y-73075905D01*
X115212762Y-72980667D01*
X115260381Y-72837809D01*
X115260381Y-72599714D01*
X114260381Y-94654762D02*
X114260381Y-94178571D01*
X114736571Y-94130952D01*
X114688952Y-94178571D01*
X114641333Y-94273809D01*
X114641333Y-94511905D01*
X114688952Y-94607143D01*
X114736571Y-94654762D01*
X114831810Y-94702381D01*
X115069905Y-94702381D01*
X115165143Y-94654762D01*
X115212762Y-94607143D01*
X115260381Y-94511905D01*
X115260381Y-94273809D01*
X115212762Y-94178571D01*
X115165143Y-94130952D01*
X114260381Y-94988095D02*
X115260381Y-95321428D01*
X114260381Y-95654762D01*
X106688000Y-93516286D02*
X106640381Y-93421048D01*
X106640381Y-93278191D01*
X106688000Y-93135333D01*
X106783238Y-93040095D01*
X106878476Y-92992476D01*
X107068952Y-92944857D01*
X107211810Y-92944857D01*
X107402286Y-92992476D01*
X107497524Y-93040095D01*
X107592762Y-93135333D01*
X107640381Y-93278191D01*
X107640381Y-93373429D01*
X107592762Y-93516286D01*
X107545143Y-93563905D01*
X107211810Y-93563905D01*
X107211810Y-93373429D01*
X107640381Y-93992476D02*
X106640381Y-93992476D01*
X107640381Y-94563905D01*
X106640381Y-94563905D01*
X107640381Y-95040095D02*
X106640381Y-95040095D01*
X106640381Y-95278190D01*
X106688000Y-95421048D01*
X106783238Y-95516286D01*
X106878476Y-95563905D01*
X107068952Y-95611524D01*
X107211810Y-95611524D01*
X107402286Y-95563905D01*
X107497524Y-95516286D01*
X107592762Y-95421048D01*
X107640381Y-95278190D01*
X107640381Y-95040095D01*
X112672762Y-93182952D02*
X112720381Y-93325809D01*
X112720381Y-93563905D01*
X112672762Y-93659143D01*
X112625143Y-93706762D01*
X112529905Y-93754381D01*
X112434667Y-93754381D01*
X112339429Y-93706762D01*
X112291810Y-93659143D01*
X112244190Y-93563905D01*
X112196571Y-93373428D01*
X112148952Y-93278190D01*
X112101333Y-93230571D01*
X112006095Y-93182952D01*
X111910857Y-93182952D01*
X111815619Y-93230571D01*
X111768000Y-93278190D01*
X111720381Y-93373428D01*
X111720381Y-93611524D01*
X111768000Y-93754381D01*
X112720381Y-94182952D02*
X111720381Y-94182952D01*
X111720381Y-94421047D01*
X111768000Y-94563905D01*
X111863238Y-94659143D01*
X111958476Y-94706762D01*
X112148952Y-94754381D01*
X112291810Y-94754381D01*
X112482286Y-94706762D01*
X112577524Y-94659143D01*
X112672762Y-94563905D01*
X112720381Y-94421047D01*
X112720381Y-94182952D01*
X112434667Y-95135333D02*
X112434667Y-95611524D01*
X112720381Y-95040095D02*
X111720381Y-95373428D01*
X112720381Y-95706762D01*
X110132762Y-93230571D02*
X110180381Y-93373428D01*
X110180381Y-93611524D01*
X110132762Y-93706762D01*
X110085143Y-93754381D01*
X109989905Y-93802000D01*
X109894667Y-93802000D01*
X109799429Y-93754381D01*
X109751810Y-93706762D01*
X109704190Y-93611524D01*
X109656571Y-93421047D01*
X109608952Y-93325809D01*
X109561333Y-93278190D01*
X109466095Y-93230571D01*
X109370857Y-93230571D01*
X109275619Y-93278190D01*
X109228000Y-93325809D01*
X109180381Y-93421047D01*
X109180381Y-93659143D01*
X109228000Y-93802000D01*
X110085143Y-94802000D02*
X110132762Y-94754381D01*
X110180381Y-94611524D01*
X110180381Y-94516286D01*
X110132762Y-94373428D01*
X110037524Y-94278190D01*
X109942286Y-94230571D01*
X109751810Y-94182952D01*
X109608952Y-94182952D01*
X109418476Y-94230571D01*
X109323238Y-94278190D01*
X109228000Y-94373428D01*
X109180381Y-94516286D01*
X109180381Y-94611524D01*
X109228000Y-94754381D01*
X109275619Y-94802000D01*
X110180381Y-95706762D02*
X110180381Y-95230571D01*
X109180381Y-95230571D01*
D12*
X105638000Y-96022000D02*
X107188000Y-96022000D01*
X105638000Y-97322000D02*
X105638000Y-96022000D01*
X107061000Y-101513000D02*
X107061000Y-107355000D01*
X107061000Y-107355000D02*
X107315000Y-107355000D01*
X107315000Y-107355000D02*
X107315000Y-101513000D01*
X107315000Y-101513000D02*
X107188000Y-101513000D01*
X107188000Y-101513000D02*
X107188000Y-107355000D01*
X106934000Y-98846000D02*
X106934000Y-98465000D01*
X107442000Y-98846000D02*
X107442000Y-98465000D01*
X109474000Y-98846000D02*
X109474000Y-98465000D01*
X109982000Y-98846000D02*
X109982000Y-98465000D01*
X112014000Y-98846000D02*
X112014000Y-98465000D01*
X112522000Y-98846000D02*
X112522000Y-98465000D01*
X115062000Y-98846000D02*
X115062000Y-98465000D01*
X114554000Y-98846000D02*
X114554000Y-98465000D01*
X105918000Y-98846000D02*
X105918000Y-101386000D01*
X108458000Y-98846000D02*
X108458000Y-101386000D01*
X108458000Y-98846000D02*
X110998000Y-98846000D01*
X110998000Y-98846000D02*
X110998000Y-101386000D01*
X109474000Y-101386000D02*
X109474000Y-107482000D01*
X109474000Y-107482000D02*
X109982000Y-107482000D01*
X109982000Y-107482000D02*
X109982000Y-101386000D01*
X110998000Y-101386000D02*
X108458000Y-101386000D01*
X108458000Y-101386000D02*
X105918000Y-101386000D01*
X107442000Y-107482000D02*
X107442000Y-101386000D01*
X106934000Y-107482000D02*
X107442000Y-107482000D01*
X106934000Y-101386000D02*
X106934000Y-107482000D01*
X108458000Y-98846000D02*
X108458000Y-101386000D01*
X105918000Y-98846000D02*
X108458000Y-98846000D01*
X113538000Y-98846000D02*
X113538000Y-101386000D01*
X113538000Y-98846000D02*
X116078000Y-98846000D01*
X116078000Y-98846000D02*
X116078000Y-101386000D01*
X114554000Y-101386000D02*
X114554000Y-107482000D01*
X114554000Y-107482000D02*
X115062000Y-107482000D01*
X115062000Y-107482000D02*
X115062000Y-101386000D01*
X116078000Y-101386000D02*
X113538000Y-101386000D01*
X113538000Y-101386000D02*
X110998000Y-101386000D01*
X112522000Y-107482000D02*
X112522000Y-101386000D01*
X112014000Y-107482000D02*
X112522000Y-107482000D01*
X112014000Y-101386000D02*
X112014000Y-107482000D01*
X113538000Y-98846000D02*
X113538000Y-101386000D01*
X110998000Y-98846000D02*
X113538000Y-98846000D01*
X110998000Y-98846000D02*
X110998000Y-101386000D01*
X87332820Y-86850640D02*
X87332820Y-79149360D01*
X86332060Y-86850640D02*
X86332060Y-79149360D01*
X86332060Y-79149360D02*
X95531940Y-79149360D01*
X95531940Y-79149360D02*
X95531940Y-86850640D01*
X95531940Y-86850640D02*
X86332060Y-86850640D01*
X123970000Y-88360000D02*
X123970000Y-86810000D01*
X125270000Y-88360000D02*
X123970000Y-88360000D01*
X129461000Y-86937000D02*
X135303000Y-86937000D01*
X135303000Y-86937000D02*
X135303000Y-86683000D01*
X135303000Y-86683000D02*
X129461000Y-86683000D01*
X129461000Y-86683000D02*
X129461000Y-86810000D01*
X129461000Y-86810000D02*
X135303000Y-86810000D01*
X126794000Y-87064000D02*
X126413000Y-87064000D01*
X126794000Y-86556000D02*
X126413000Y-86556000D01*
X126794000Y-84524000D02*
X126413000Y-84524000D01*
X126794000Y-84016000D02*
X126413000Y-84016000D01*
X126794000Y-81984000D02*
X126413000Y-81984000D01*
X126794000Y-81476000D02*
X126413000Y-81476000D01*
X126794000Y-78936000D02*
X126413000Y-78936000D01*
X126794000Y-79444000D02*
X126413000Y-79444000D01*
X126794000Y-88080000D02*
X129334000Y-88080000D01*
X126794000Y-85540000D02*
X129334000Y-85540000D01*
X126794000Y-85540000D02*
X126794000Y-83000000D01*
X126794000Y-83000000D02*
X129334000Y-83000000D01*
X129334000Y-84524000D02*
X135430000Y-84524000D01*
X135430000Y-84524000D02*
X135430000Y-84016000D01*
X135430000Y-84016000D02*
X129334000Y-84016000D01*
X129334000Y-83000000D02*
X129334000Y-85540000D01*
X129334000Y-85540000D02*
X129334000Y-88080000D01*
X135430000Y-86556000D02*
X129334000Y-86556000D01*
X135430000Y-87064000D02*
X135430000Y-86556000D01*
X129334000Y-87064000D02*
X135430000Y-87064000D01*
X126794000Y-85540000D02*
X129334000Y-85540000D01*
X126794000Y-88080000D02*
X126794000Y-85540000D01*
X126794000Y-80460000D02*
X129334000Y-80460000D01*
X126794000Y-80460000D02*
X126794000Y-77920000D01*
X126794000Y-77920000D02*
X129334000Y-77920000D01*
X129334000Y-79444000D02*
X135430000Y-79444000D01*
X135430000Y-79444000D02*
X135430000Y-78936000D01*
X135430000Y-78936000D02*
X129334000Y-78936000D01*
X129334000Y-77920000D02*
X129334000Y-80460000D01*
X129334000Y-80460000D02*
X129334000Y-83000000D01*
X135430000Y-81476000D02*
X129334000Y-81476000D01*
X135430000Y-81984000D02*
X135430000Y-81476000D01*
X129334000Y-81984000D02*
X135430000Y-81984000D01*
X126794000Y-80460000D02*
X129334000Y-80460000D01*
X126794000Y-83000000D02*
X126794000Y-80460000D01*
X126794000Y-83000000D02*
X129334000Y-83000000D01*
X116360000Y-70090000D02*
X114810000Y-70090000D01*
X116360000Y-68790000D02*
X116360000Y-70090000D01*
X114937000Y-64599000D02*
X114937000Y-58757000D01*
X114937000Y-58757000D02*
X114683000Y-58757000D01*
X114683000Y-58757000D02*
X114683000Y-64599000D01*
X114683000Y-64599000D02*
X114810000Y-64599000D01*
X114810000Y-64599000D02*
X114810000Y-58757000D01*
X115064000Y-67266000D02*
X115064000Y-67647000D01*
X114556000Y-67266000D02*
X114556000Y-67647000D01*
X112524000Y-67266000D02*
X112524000Y-67647000D01*
X112016000Y-67266000D02*
X112016000Y-67647000D01*
X109984000Y-67266000D02*
X109984000Y-67647000D01*
X109476000Y-67266000D02*
X109476000Y-67647000D01*
X106936000Y-67266000D02*
X106936000Y-67647000D01*
X107444000Y-67266000D02*
X107444000Y-67647000D01*
X116080000Y-67266000D02*
X116080000Y-64726000D01*
X113540000Y-67266000D02*
X113540000Y-64726000D01*
X113540000Y-67266000D02*
X111000000Y-67266000D01*
X111000000Y-67266000D02*
X111000000Y-64726000D01*
X112524000Y-64726000D02*
X112524000Y-58630000D01*
X112524000Y-58630000D02*
X112016000Y-58630000D01*
X112016000Y-58630000D02*
X112016000Y-64726000D01*
X111000000Y-64726000D02*
X113540000Y-64726000D01*
X113540000Y-64726000D02*
X116080000Y-64726000D01*
X114556000Y-58630000D02*
X114556000Y-64726000D01*
X115064000Y-58630000D02*
X114556000Y-58630000D01*
X115064000Y-64726000D02*
X115064000Y-58630000D01*
X113540000Y-67266000D02*
X113540000Y-64726000D01*
X116080000Y-67266000D02*
X113540000Y-67266000D01*
X108460000Y-67266000D02*
X108460000Y-64726000D01*
X108460000Y-67266000D02*
X105920000Y-67266000D01*
X105920000Y-67266000D02*
X105920000Y-64726000D01*
X107444000Y-64726000D02*
X107444000Y-58630000D01*
X107444000Y-58630000D02*
X106936000Y-58630000D01*
X106936000Y-58630000D02*
X106936000Y-64726000D01*
X105920000Y-64726000D02*
X108460000Y-64726000D01*
X108460000Y-64726000D02*
X111000000Y-64726000D01*
X109476000Y-58630000D02*
X109476000Y-64726000D01*
X109984000Y-58630000D02*
X109476000Y-58630000D01*
X109984000Y-64726000D02*
X109984000Y-58630000D01*
X108460000Y-67266000D02*
X108460000Y-64726000D01*
X111000000Y-67266000D02*
X108460000Y-67266000D01*
X111000000Y-67266000D02*
X111000000Y-64726000D01*
M02*
