G04 #@! TF.FileFunction,Copper,L1,Top,Signal*
%FSLAX46Y46*%
G04 Gerber Fmt 4.6, Leading zero omitted, Abs format (unit mm)*
G04 Created by KiCad (PCBNEW 4.0.2+dfsg1-stable) date Thu 18 Aug 2016 03:04:42 AM CEST*
%MOMM*%
G01*
G04 APERTURE LIST*
%ADD10C,0.100000*%
%ADD11R,1.699260X1.300480*%
%ADD12R,1.250000X1.000000*%
%ADD13R,1.727200X2.032000*%
%ADD14O,1.727200X2.032000*%
%ADD15R,0.800100X0.800100*%
%ADD16R,3.657600X2.032000*%
%ADD17R,1.016000X2.032000*%
%ADD18R,5.600700X2.100580*%
%ADD19R,1.000000X1.250000*%
%ADD20R,0.700000X1.300000*%
%ADD21R,1.300000X0.700000*%
%ADD22R,2.032000X1.727200*%
%ADD23O,2.032000X1.727200*%
%ADD24R,0.600000X2.130000*%
%ADD25R,1.501140X2.148840*%
%ADD26C,0.600000*%
%ADD27C,0.254000*%
%ADD28C,0.200000*%
G04 APERTURE END LIST*
D10*
D11*
X103124000Y-80291940D03*
X103124000Y-83792060D03*
D12*
X106680000Y-71882000D03*
X106680000Y-73882000D03*
D13*
X107188000Y-97322000D03*
D14*
X109728000Y-97322000D03*
X112268000Y-97322000D03*
X114808000Y-97322000D03*
D15*
X110424000Y-73947020D03*
X108524000Y-73947020D03*
X109474000Y-75946000D03*
X113980000Y-73929240D03*
X112080000Y-73929240D03*
X113030000Y-75928220D03*
D16*
X102108000Y-77978000D03*
D17*
X102108000Y-71374000D03*
X99822000Y-71374000D03*
X104394000Y-71374000D03*
D16*
X120650000Y-77724000D03*
D17*
X120650000Y-71120000D03*
X118364000Y-71120000D03*
X122936000Y-71120000D03*
D18*
X105641140Y-92964000D03*
X115338860Y-92964000D03*
D11*
X106426000Y-81053940D03*
X106426000Y-84554060D03*
D19*
X101750000Y-93000000D03*
X99750000Y-93000000D03*
D12*
X119634000Y-92948000D03*
X119634000Y-90948000D03*
X106426000Y-88376000D03*
X106426000Y-86376000D03*
D19*
X100092000Y-68834000D03*
X102092000Y-68834000D03*
D12*
X115824000Y-73898000D03*
X115824000Y-71898000D03*
D19*
X120920000Y-68580000D03*
X122920000Y-68580000D03*
D20*
X110490000Y-72136000D03*
X108590000Y-72136000D03*
D21*
X114750000Y-87188000D03*
X114750000Y-89088000D03*
X117000000Y-84958000D03*
X117000000Y-83058000D03*
X111250000Y-79950000D03*
X111250000Y-78050000D03*
D20*
X109200000Y-78750000D03*
X107300000Y-78750000D03*
X113980000Y-72136000D03*
X112080000Y-72136000D03*
D21*
X114750000Y-85786000D03*
X114750000Y-83886000D03*
D22*
X125270000Y-86810000D03*
D23*
X125270000Y-84270000D03*
X125270000Y-81730000D03*
X125270000Y-79190000D03*
D13*
X114810000Y-68790000D03*
D14*
X112270000Y-68790000D03*
X109730000Y-68790000D03*
X107190000Y-68790000D03*
D15*
X119778000Y-82364760D03*
X121678000Y-82364760D03*
X120728000Y-80365780D03*
X118602760Y-89088000D03*
X118602760Y-87188000D03*
X116603780Y-88138000D03*
D20*
X119778000Y-84158000D03*
X121678000Y-84158000D03*
D21*
X120396000Y-89088000D03*
X120396000Y-87188000D03*
D24*
X108712000Y-89000000D03*
X109982000Y-89000000D03*
X111252000Y-89000000D03*
X112522000Y-89000000D03*
X112522000Y-82000000D03*
X111252000Y-82000000D03*
X109982000Y-82000000D03*
X108712000Y-82000000D03*
D25*
X103000000Y-86498860D03*
X103000000Y-89501140D03*
D26*
X93250000Y-80250000D03*
X117000000Y-69000000D03*
X105144121Y-68904833D03*
X93217613Y-85608594D03*
X123201588Y-89065557D03*
X123238000Y-83312000D03*
X110499391Y-70698724D03*
X113056309Y-70714556D03*
X92500000Y-83000000D03*
X91404206Y-83013466D03*
D27*
X101750000Y-93000000D02*
X105605140Y-93000000D01*
X105605140Y-93000000D02*
X105641140Y-92964000D01*
X109982000Y-90373200D02*
X109982000Y-89000000D01*
X109982000Y-90373200D02*
X107391200Y-92964000D01*
X107391200Y-92964000D02*
X105641140Y-92964000D01*
X106918000Y-92948000D02*
X106934000Y-92964000D01*
X106918000Y-92980000D02*
X106934000Y-92964000D01*
X115824000Y-71898000D02*
X115824000Y-69804000D01*
X115824000Y-69804000D02*
X114810000Y-68790000D01*
X96266000Y-74930000D02*
X98044000Y-73152000D01*
X98044000Y-73152000D02*
X98044000Y-68326000D01*
X98044000Y-68326000D02*
X102108000Y-64262000D01*
X102108000Y-64262000D02*
X119888000Y-64262000D01*
X119888000Y-64262000D02*
X121666000Y-66040000D01*
X125250000Y-95476000D02*
X121476000Y-99250000D01*
X125270000Y-86810000D02*
X125270000Y-95456000D01*
X125270000Y-95456000D02*
X125250000Y-95476000D01*
X98750000Y-94662000D02*
X99084000Y-94996000D01*
X97088000Y-93000000D02*
X98750000Y-94662000D01*
X120242000Y-94662000D02*
X120904000Y-94000000D01*
X120904000Y-91339000D02*
X120904000Y-94000000D01*
X98750000Y-94662000D02*
X120242000Y-94662000D01*
X107188000Y-97322000D02*
X107188000Y-97474400D01*
X109067600Y-99354000D02*
X121372000Y-99354000D01*
X121372000Y-99354000D02*
X121476000Y-99250000D01*
X107188000Y-97474400D02*
X109067600Y-99354000D01*
X99084000Y-94996000D02*
X101338000Y-97250000D01*
X107190000Y-97322000D02*
X101410000Y-97322000D01*
X101410000Y-97322000D02*
X101338000Y-97250000D01*
X103124000Y-83792060D02*
X92166223Y-83792060D01*
X92166223Y-83792060D02*
X91963124Y-83995159D01*
X91963124Y-83995159D02*
X91432841Y-83995159D01*
X91432841Y-83995159D02*
X90678000Y-84750000D01*
X90678000Y-83312000D02*
X90678000Y-84750000D01*
X90678000Y-84750000D02*
X90678000Y-88240482D01*
X93250000Y-80250000D02*
X93250000Y-77946000D01*
X93250000Y-77946000D02*
X96266000Y-74930000D01*
X95020000Y-90932000D02*
X97088000Y-93000000D01*
X99750000Y-93000000D02*
X98996000Y-93000000D01*
X98996000Y-93000000D02*
X97088000Y-93000000D01*
X103000000Y-86498860D02*
X103000000Y-83916060D01*
X103000000Y-83916060D02*
X103124000Y-83792060D01*
X106426000Y-86376000D02*
X103122860Y-86376000D01*
X103122860Y-86376000D02*
X103000000Y-86498860D01*
X112522000Y-89000000D02*
X112522000Y-90319000D01*
X112522000Y-90319000D02*
X113151000Y-90948000D01*
X113151000Y-90948000D02*
X115078000Y-90948000D01*
X115078000Y-90948000D02*
X119634000Y-90948000D01*
X96266000Y-74930000D02*
X92964000Y-74930000D01*
X92964000Y-74930000D02*
X90671420Y-77222580D01*
X90671420Y-77222580D02*
X90671420Y-83305420D01*
X90671420Y-83305420D02*
X90678000Y-83312000D01*
X90678000Y-88240482D02*
X93369518Y-90932000D01*
X93369518Y-90932000D02*
X95020000Y-90932000D01*
X103323390Y-83792060D02*
X103124000Y-83792060D01*
X106426000Y-86376000D02*
X106426000Y-84554060D01*
X104503496Y-74914000D02*
X105535496Y-73882000D01*
X105535496Y-73882000D02*
X106680000Y-73882000D01*
X99822000Y-74930000D02*
X96266000Y-74930000D01*
X119634000Y-90948000D02*
X120513000Y-90948000D01*
X120513000Y-90948000D02*
X120904000Y-91339000D01*
X122920000Y-67294000D02*
X122920000Y-68580000D01*
X122936000Y-71120000D02*
X122936000Y-68596000D01*
X122936000Y-68596000D02*
X122920000Y-68580000D01*
X99100000Y-94980000D02*
X99084000Y-94996000D01*
X104969940Y-84554060D02*
X105322370Y-84554060D01*
X105322370Y-84554060D02*
X106426000Y-84554060D01*
X106426000Y-84554060D02*
X103886000Y-84554060D01*
X103886000Y-84554060D02*
X103124000Y-83792060D01*
X103432610Y-83792060D02*
X103124000Y-83792060D01*
X99838000Y-74914000D02*
X104503496Y-74914000D01*
X99822000Y-74930000D02*
X99838000Y-74914000D01*
X102092000Y-68834000D02*
X102092000Y-71358000D01*
X102092000Y-71358000D02*
X102108000Y-71374000D01*
X102108000Y-72644000D02*
X99822000Y-74930000D01*
X102108000Y-71374000D02*
X102108000Y-72644000D01*
X114810000Y-68790000D02*
X114810000Y-68637600D01*
X121666000Y-66040000D02*
X122920000Y-67294000D01*
X114810000Y-69187000D02*
X114810000Y-68790000D01*
X111252000Y-90627200D02*
X111252000Y-89000000D01*
X119634000Y-92948000D02*
X115354860Y-92948000D01*
X115354860Y-92948000D02*
X115338860Y-92964000D01*
X111252000Y-90627200D02*
X113588800Y-92964000D01*
X113588800Y-92964000D02*
X115338860Y-92964000D01*
X118364000Y-71120000D02*
X118364000Y-70612000D01*
X118364000Y-70612000D02*
X117000000Y-69248000D01*
X117000000Y-69248000D02*
X117000000Y-69000000D01*
X104394000Y-71374000D02*
X104394000Y-69654954D01*
X104394000Y-69654954D02*
X104844122Y-69204832D01*
X104844122Y-69204832D02*
X105144121Y-68904833D01*
X106426000Y-88376000D02*
X100750000Y-88376000D01*
X101995430Y-89501140D02*
X100870290Y-88376000D01*
X100750000Y-88376000D02*
X95985019Y-88376000D01*
X103000000Y-89501140D02*
X101995430Y-89501140D01*
X100870290Y-88376000D02*
X100750000Y-88376000D01*
X93517612Y-85908593D02*
X93217613Y-85608594D01*
X95985019Y-88376000D02*
X93517612Y-85908593D01*
X114750000Y-85786000D02*
X116362000Y-85786000D01*
X114750000Y-87188000D02*
X114750000Y-85786000D01*
X113650000Y-87188000D02*
X114750000Y-87188000D01*
X112568000Y-86106000D02*
X113650000Y-87188000D01*
X108712000Y-86106000D02*
X112568000Y-86106000D01*
X108712000Y-83660000D02*
X108712000Y-82000000D01*
X106426000Y-88376000D02*
X107305000Y-88376000D01*
X107305000Y-88376000D02*
X108712000Y-86969000D01*
X108712000Y-86969000D02*
X108712000Y-86106000D01*
X108712000Y-83660000D02*
X108712000Y-86106000D01*
X106680000Y-71882000D02*
X104902000Y-71882000D01*
X104902000Y-71882000D02*
X104394000Y-71374000D01*
X115824000Y-73898000D02*
X116094000Y-73898000D01*
X116094000Y-73898000D02*
X118364000Y-71628000D01*
X118364000Y-71628000D02*
X118364000Y-71120000D01*
X116362000Y-85786000D02*
X116586000Y-85562000D01*
X116586000Y-85562000D02*
X116586000Y-84958000D01*
X120650000Y-71120000D02*
X120650000Y-68850000D01*
X120650000Y-68850000D02*
X120920000Y-68580000D01*
X122250000Y-85500000D02*
X123238000Y-84512000D01*
X123238000Y-84512000D02*
X123238000Y-83312000D01*
X123201588Y-89065557D02*
X120418443Y-89065557D01*
X120418443Y-89065557D02*
X120396000Y-89088000D01*
X120650000Y-71722400D02*
X125250000Y-76322400D01*
X125270000Y-79190000D02*
X125270000Y-76342400D01*
X125270000Y-76342400D02*
X125250000Y-76322400D01*
X125117600Y-79190000D02*
X125270000Y-79190000D01*
X119778000Y-84158000D02*
X119778000Y-85278000D01*
X120000000Y-85500000D02*
X122250000Y-85500000D01*
X119778000Y-85278000D02*
X120000000Y-85500000D01*
X118602760Y-89088000D02*
X120396000Y-89088000D01*
X119778000Y-82364760D02*
X119778000Y-84158000D01*
X120650000Y-71120000D02*
X120650000Y-71722400D01*
X120741536Y-71211536D02*
X120650000Y-71120000D01*
X110499391Y-71725180D02*
X110499391Y-71122988D01*
X110490000Y-71734571D02*
X110499391Y-71725180D01*
X110499391Y-71122988D02*
X110499391Y-70698724D01*
X114000000Y-71233983D02*
X114000000Y-72116000D01*
X114000000Y-72116000D02*
X113980000Y-72136000D01*
X113056309Y-70714556D02*
X113480573Y-70714556D01*
X113480573Y-70714556D02*
X114000000Y-71233983D01*
X100092000Y-68834000D02*
X100092000Y-67802000D01*
X100092000Y-67802000D02*
X100883457Y-67010543D01*
X100883457Y-67010543D02*
X106680543Y-67010543D01*
X106680543Y-67010543D02*
X107190000Y-67520000D01*
X107190000Y-67520000D02*
X107190000Y-68790000D01*
X100092000Y-68834000D02*
X100092000Y-71104000D01*
X100092000Y-71104000D02*
X99822000Y-71374000D01*
X99822000Y-70866000D02*
X99822000Y-71374000D01*
X110424000Y-73947020D02*
X110424000Y-72202000D01*
X110424000Y-72202000D02*
X110490000Y-72136000D01*
X113980000Y-73929240D02*
X113980000Y-72136000D01*
D28*
X94381320Y-83000000D02*
X92500000Y-83000000D01*
X107300000Y-78750000D02*
X107300000Y-80179940D01*
X107300000Y-80179940D02*
X106426000Y-81053940D01*
X94381320Y-83000000D02*
X95731940Y-83000000D01*
X95731940Y-83000000D02*
X96689940Y-82042000D01*
X96689940Y-82042000D02*
X104388310Y-82042000D01*
X106426000Y-81053940D02*
X105376370Y-81053940D01*
X105376370Y-81053940D02*
X104388310Y-82042000D01*
X94125732Y-80291940D02*
X91704205Y-82713467D01*
X103124000Y-80291940D02*
X94125732Y-80291940D01*
X91704205Y-82713467D02*
X91404206Y-83013466D01*
X113078000Y-79000000D02*
X113500000Y-79422000D01*
X113500000Y-79422000D02*
X113500000Y-81500000D01*
X113500000Y-81500000D02*
X115058000Y-83058000D01*
X115058000Y-83058000D02*
X117000000Y-83058000D01*
X113078000Y-79000000D02*
X112250000Y-78172000D01*
X111250000Y-78050000D02*
X111250000Y-77500000D01*
X104173630Y-80291940D02*
X103124000Y-80291940D01*
X111250000Y-77500000D02*
X111000000Y-77250000D01*
X111000000Y-77250000D02*
X106250000Y-77250000D01*
X106250000Y-77250000D02*
X105500000Y-78000000D01*
X105500000Y-78000000D02*
X105500000Y-78965570D01*
X105500000Y-78965570D02*
X104173630Y-80291940D01*
X112250000Y-78172000D02*
X112128000Y-78050000D01*
X112128000Y-78050000D02*
X111250000Y-78050000D01*
X112224552Y-78146552D02*
X112250000Y-78172000D01*
D27*
X109728000Y-95888010D02*
X110500000Y-95116010D01*
X121000000Y-95034067D02*
X121666000Y-94368067D01*
X110500000Y-95116010D02*
X120918057Y-95116010D01*
X120918057Y-95116010D02*
X121000000Y-95034067D01*
X109728000Y-97322000D02*
X109728000Y-95888010D01*
X116603780Y-88138000D02*
X116603780Y-87396220D01*
X116603780Y-87396220D02*
X118750000Y-85250000D01*
X113030000Y-77348175D02*
X113030000Y-75928220D01*
X118750000Y-85250000D02*
X118750000Y-81750000D01*
X118750000Y-81750000D02*
X119250000Y-81250000D01*
X122250000Y-80750000D02*
X122250000Y-80000000D01*
X119250000Y-81250000D02*
X121750000Y-81250000D01*
X121646000Y-79396000D02*
X117750000Y-79396000D01*
X121750000Y-81250000D02*
X122250000Y-80750000D01*
X122250000Y-80000000D02*
X121646000Y-79396000D01*
X117750000Y-79396000D02*
X115702175Y-77348175D01*
X115702175Y-77348175D02*
X113030000Y-77348175D01*
X114750000Y-89088000D02*
X114588000Y-89088000D01*
X114588000Y-89088000D02*
X112584007Y-87084007D01*
X112584007Y-87084007D02*
X109944391Y-87084007D01*
X109944391Y-87084007D02*
X109055726Y-87972672D01*
X109041445Y-87972672D02*
X108712000Y-88302117D01*
X109055726Y-87972672D02*
X109041445Y-87972672D01*
X108712000Y-88302117D02*
X108712000Y-89060000D01*
X115824000Y-89088000D02*
X114750000Y-89088000D01*
X114554000Y-89078398D02*
X114554000Y-89088000D01*
X117135830Y-89916000D02*
X116307830Y-89088000D01*
X120904000Y-89916000D02*
X117135830Y-89916000D01*
X115824000Y-89088000D02*
X116307830Y-89088000D01*
X116307830Y-89088000D02*
X116603780Y-88792050D01*
X116603780Y-88792050D02*
X116603780Y-88138000D01*
X121666000Y-94368067D02*
X121666000Y-90678000D01*
X121666000Y-90678000D02*
X120904000Y-89916000D01*
X112200000Y-79950000D02*
X112522000Y-80272000D01*
X112522000Y-80272000D02*
X112522000Y-82000000D01*
X111250000Y-79950000D02*
X112200000Y-79950000D01*
X110128050Y-75946000D02*
X111144050Y-74930000D01*
X111144050Y-74930000D02*
X122680000Y-74930000D01*
X122680000Y-74930000D02*
X123250000Y-75500000D01*
X123250000Y-75500000D02*
X123250000Y-79750000D01*
X123250000Y-79750000D02*
X124000000Y-80500000D01*
X124000000Y-80500000D02*
X126250000Y-80500000D01*
X127000000Y-81250000D02*
X127000000Y-84750000D01*
X127000000Y-84750000D02*
X126250000Y-85500000D01*
X126250000Y-80500000D02*
X127000000Y-81250000D01*
X126250000Y-85500000D02*
X123750000Y-85500000D01*
X123750000Y-85500000D02*
X123250000Y-86000000D01*
X123250000Y-86000000D02*
X123250000Y-88000000D01*
X123250000Y-88000000D02*
X124250000Y-89000000D01*
X124250000Y-89000000D02*
X124250000Y-92426134D01*
X124250000Y-92426134D02*
X122174000Y-94502134D01*
X122174000Y-94502134D02*
X121176134Y-95500000D01*
X112749980Y-95570020D02*
X121106114Y-95570020D01*
X112268000Y-97322000D02*
X112268000Y-96052000D01*
X112268000Y-96052000D02*
X112749980Y-95570020D01*
X121106114Y-95570020D02*
X121176134Y-95500000D01*
X114554000Y-83886000D02*
X118114000Y-83886000D01*
X118114000Y-83886000D02*
X118250000Y-83750000D01*
X118250000Y-83750000D02*
X118250000Y-80865780D01*
X118250000Y-80865780D02*
X118134220Y-80750000D01*
X118134220Y-80750000D02*
X117750000Y-80365780D01*
X120478000Y-80365780D02*
X117750000Y-80365780D01*
X117750000Y-80365780D02*
X115405538Y-80365780D01*
X111000854Y-75961096D02*
X115289758Y-80250000D01*
X115405538Y-80365780D02*
X115289758Y-80250000D01*
X111252000Y-82000000D02*
X111252000Y-83319000D01*
X111252000Y-83319000D02*
X111819000Y-83886000D01*
X111819000Y-83886000D02*
X113650000Y-83886000D01*
X113650000Y-83886000D02*
X114554000Y-83886000D01*
X110128050Y-75946000D02*
X110143146Y-75961096D01*
X110143146Y-75961096D02*
X111000854Y-75961096D01*
X114554000Y-83886000D02*
X114254000Y-83886000D01*
X109474000Y-75946000D02*
X110128050Y-75946000D01*
X109982000Y-82000000D02*
X109982000Y-80681000D01*
X109982000Y-80681000D02*
X109200000Y-79899000D01*
X109200000Y-79899000D02*
X109200000Y-78750000D01*
X109982000Y-81214000D02*
X110170000Y-81026000D01*
X110170000Y-81026000D02*
X110170000Y-81326000D01*
X125270000Y-81730000D02*
X122312760Y-81730000D01*
X122312760Y-81730000D02*
X121678000Y-82364760D01*
X121678000Y-82364760D02*
X121678000Y-84158000D01*
X120396000Y-87188000D02*
X121300000Y-87188000D01*
X121300000Y-87188000D02*
X122878239Y-85609761D01*
X122878239Y-85609761D02*
X122890239Y-85609761D01*
X122890239Y-85609761D02*
X124230000Y-84270000D01*
X124230000Y-84270000D02*
X125270000Y-84270000D01*
X118602760Y-87188000D02*
X120396000Y-87188000D01*
X108590000Y-72136000D02*
X108590000Y-69910000D01*
X108590000Y-69910000D02*
X109710000Y-68790000D01*
X109710000Y-68790000D02*
X109730000Y-68790000D01*
X108524000Y-73947020D02*
X108524000Y-72202000D01*
X108524000Y-72202000D02*
X108590000Y-72136000D01*
X112080000Y-72136000D02*
X112080000Y-68980000D01*
X112080000Y-68980000D02*
X112270000Y-68790000D01*
X112080000Y-73929240D02*
X112080000Y-72136000D01*
G36*
X132019072Y-59125528D02*
X133730760Y-60269241D01*
X134874471Y-61980926D01*
X135290000Y-64069931D01*
X135290000Y-101930069D01*
X134874471Y-104019074D01*
X133730760Y-105730759D01*
X132019072Y-106874472D01*
X129930069Y-107290000D01*
X92069931Y-107290000D01*
X89980926Y-106874471D01*
X88269241Y-105730760D01*
X87125528Y-104019072D01*
X87006926Y-103422815D01*
X88864630Y-103422815D01*
X89188980Y-104207800D01*
X89789041Y-104808909D01*
X90573459Y-105134628D01*
X91422815Y-105135370D01*
X92207800Y-104811020D01*
X92808909Y-104210959D01*
X93134628Y-103426541D01*
X93134631Y-103422815D01*
X128864630Y-103422815D01*
X129188980Y-104207800D01*
X129789041Y-104808909D01*
X130573459Y-105134628D01*
X131422815Y-105135370D01*
X132207800Y-104811020D01*
X132808909Y-104210959D01*
X133134628Y-103426541D01*
X133135370Y-102577185D01*
X132811020Y-101792200D01*
X132210959Y-101191091D01*
X131426541Y-100865372D01*
X130577185Y-100864630D01*
X129792200Y-101188980D01*
X129191091Y-101789041D01*
X128865372Y-102573459D01*
X128864630Y-103422815D01*
X93134631Y-103422815D01*
X93135370Y-102577185D01*
X92811020Y-101792200D01*
X92210959Y-101191091D01*
X91426541Y-100865372D01*
X90577185Y-100864630D01*
X89792200Y-101188980D01*
X89191091Y-101789041D01*
X88865372Y-102573459D01*
X88864630Y-103422815D01*
X87006926Y-103422815D01*
X86710000Y-101930069D01*
X86710000Y-97607750D01*
X105689400Y-97607750D01*
X105689400Y-98464309D01*
X105786073Y-98697698D01*
X105964701Y-98876327D01*
X106198090Y-98973000D01*
X106902250Y-98973000D01*
X107061000Y-98814250D01*
X107061000Y-97449000D01*
X105848150Y-97449000D01*
X105689400Y-97607750D01*
X86710000Y-97607750D01*
X86710000Y-96179691D01*
X105689400Y-96179691D01*
X105689400Y-97036250D01*
X105848150Y-97195000D01*
X107061000Y-97195000D01*
X107061000Y-95829750D01*
X106902250Y-95671000D01*
X106198090Y-95671000D01*
X105964701Y-95767673D01*
X105786073Y-95946302D01*
X105689400Y-96179691D01*
X86710000Y-96179691D01*
X86710000Y-93285750D01*
X98615000Y-93285750D01*
X98615000Y-93751310D01*
X98711673Y-93984699D01*
X98890302Y-94163327D01*
X99123691Y-94260000D01*
X99464250Y-94260000D01*
X99623000Y-94101250D01*
X99623000Y-93127000D01*
X98773750Y-93127000D01*
X98615000Y-93285750D01*
X86710000Y-93285750D01*
X86710000Y-92248690D01*
X98615000Y-92248690D01*
X98615000Y-92714250D01*
X98773750Y-92873000D01*
X99623000Y-92873000D01*
X99623000Y-91898750D01*
X99464250Y-91740000D01*
X99123691Y-91740000D01*
X98890302Y-91836673D01*
X98711673Y-92015301D01*
X98615000Y-92248690D01*
X86710000Y-92248690D01*
X86710000Y-83198633D01*
X90469044Y-83198633D01*
X90611089Y-83542409D01*
X90873879Y-83805658D01*
X91217407Y-83948304D01*
X91589373Y-83948628D01*
X91933149Y-83806583D01*
X91958638Y-83781138D01*
X91969673Y-83792192D01*
X92313201Y-83934838D01*
X92685167Y-83935162D01*
X93028943Y-83793117D01*
X93044576Y-83777511D01*
X104941370Y-83777511D01*
X104941370Y-84268310D01*
X105100120Y-84427060D01*
X106299000Y-84427060D01*
X106299000Y-83427570D01*
X106553000Y-83427570D01*
X106553000Y-84427060D01*
X107751880Y-84427060D01*
X107910630Y-84268310D01*
X107910630Y-83777511D01*
X107813957Y-83544122D01*
X107635329Y-83365493D01*
X107401940Y-83268820D01*
X106711750Y-83268820D01*
X106553000Y-83427570D01*
X106299000Y-83427570D01*
X106140250Y-83268820D01*
X105450060Y-83268820D01*
X105216671Y-83365493D01*
X105038043Y-83544122D01*
X104941370Y-83777511D01*
X93044576Y-83777511D01*
X93087162Y-83735000D01*
X95731940Y-83735000D01*
X96013212Y-83679051D01*
X96251663Y-83519723D01*
X96994387Y-82777000D01*
X101741165Y-82777000D01*
X101736043Y-82782122D01*
X101639370Y-83015511D01*
X101639370Y-83506310D01*
X101798120Y-83665060D01*
X102997000Y-83665060D01*
X102997000Y-83645060D01*
X103251000Y-83645060D01*
X103251000Y-83665060D01*
X104449880Y-83665060D01*
X104608630Y-83506310D01*
X104608630Y-83015511D01*
X104511957Y-82782122D01*
X104487170Y-82757335D01*
X104669582Y-82721051D01*
X104908033Y-82561723D01*
X105232199Y-82237558D01*
X105324480Y-82300611D01*
X105576370Y-82351620D01*
X107275630Y-82351620D01*
X107510947Y-82307342D01*
X107727071Y-82168270D01*
X107764560Y-82113403D01*
X107764560Y-83065000D01*
X107808838Y-83300317D01*
X107947910Y-83516441D01*
X107950000Y-83517869D01*
X107950000Y-86653369D01*
X107686000Y-86917369D01*
X107686000Y-86661750D01*
X107527250Y-86503000D01*
X106553000Y-86503000D01*
X106553000Y-86523000D01*
X106299000Y-86523000D01*
X106299000Y-86503000D01*
X105324750Y-86503000D01*
X105166000Y-86661750D01*
X105166000Y-87002309D01*
X105262673Y-87235698D01*
X105403910Y-87376936D01*
X105349559Y-87411910D01*
X105211477Y-87614000D01*
X104385570Y-87614000D01*
X104385570Y-86784610D01*
X104226820Y-86625860D01*
X103127000Y-86625860D01*
X103127000Y-86645860D01*
X102873000Y-86645860D01*
X102873000Y-86625860D01*
X101773180Y-86625860D01*
X101614430Y-86784610D01*
X101614430Y-87614000D01*
X96300650Y-87614000D01*
X94152738Y-85466089D01*
X94152775Y-85423427D01*
X94101004Y-85298131D01*
X101614430Y-85298131D01*
X101614430Y-86213110D01*
X101773180Y-86371860D01*
X102873000Y-86371860D01*
X102873000Y-85042550D01*
X102967360Y-84948190D01*
X103127000Y-84948190D01*
X103127000Y-86371860D01*
X104226820Y-86371860D01*
X104385570Y-86213110D01*
X104385570Y-85298131D01*
X104288897Y-85064742D01*
X104242433Y-85018277D01*
X104333329Y-84980627D01*
X104474145Y-84839810D01*
X104941370Y-84839810D01*
X104941370Y-85330609D01*
X105038043Y-85563998D01*
X105182910Y-85708866D01*
X105166000Y-85749691D01*
X105166000Y-86090250D01*
X105324750Y-86249000D01*
X106299000Y-86249000D01*
X106299000Y-84681060D01*
X106553000Y-84681060D01*
X106553000Y-86249000D01*
X107527250Y-86249000D01*
X107686000Y-86090250D01*
X107686000Y-85749691D01*
X107669090Y-85708866D01*
X107813957Y-85563998D01*
X107910630Y-85330609D01*
X107910630Y-84839810D01*
X107751880Y-84681060D01*
X106553000Y-84681060D01*
X106299000Y-84681060D01*
X105100120Y-84681060D01*
X104941370Y-84839810D01*
X104474145Y-84839810D01*
X104511957Y-84801998D01*
X104608630Y-84568609D01*
X104608630Y-84077810D01*
X104449880Y-83919060D01*
X103251000Y-83919060D01*
X103251000Y-84824190D01*
X103127000Y-84948190D01*
X102967360Y-84948190D01*
X102997000Y-84918550D01*
X102997000Y-83919060D01*
X101798120Y-83919060D01*
X101639370Y-84077810D01*
X101639370Y-84568609D01*
X101736043Y-84801998D01*
X101854944Y-84920900D01*
X101711103Y-85064742D01*
X101614430Y-85298131D01*
X94101004Y-85298131D01*
X94010730Y-85079651D01*
X93747940Y-84816402D01*
X93404412Y-84673756D01*
X93032446Y-84673432D01*
X92781787Y-84777002D01*
X92702898Y-84586077D01*
X92398067Y-84280714D01*
X91999583Y-84115249D01*
X91568110Y-84114872D01*
X91169337Y-84279642D01*
X90863974Y-84584473D01*
X90698509Y-84982957D01*
X90698132Y-85414430D01*
X90862902Y-85813203D01*
X91167733Y-86118566D01*
X91566217Y-86284031D01*
X91997690Y-86284408D01*
X92396463Y-86119638D01*
X92411074Y-86105053D01*
X92424496Y-86137537D01*
X92687286Y-86400786D01*
X93030814Y-86543432D01*
X93074859Y-86543470D01*
X95446203Y-88914815D01*
X95691022Y-89078398D01*
X95693414Y-89079996D01*
X95985019Y-89138000D01*
X100554660Y-89138000D01*
X101456614Y-90039955D01*
X101601990Y-90137092D01*
X101601990Y-90575560D01*
X101646268Y-90810877D01*
X101785340Y-91027001D01*
X101997540Y-91171991D01*
X102249430Y-91223000D01*
X103750570Y-91223000D01*
X103985887Y-91178722D01*
X104202011Y-91039650D01*
X104347001Y-90827450D01*
X104398010Y-90575560D01*
X104398010Y-89138000D01*
X105215008Y-89138000D01*
X105336910Y-89327441D01*
X105549110Y-89472431D01*
X105801000Y-89523440D01*
X107051000Y-89523440D01*
X107286317Y-89479162D01*
X107502441Y-89340090D01*
X107647431Y-89127890D01*
X107666601Y-89033226D01*
X107764560Y-88967772D01*
X107764560Y-90065000D01*
X107808838Y-90300317D01*
X107947910Y-90516441D01*
X108160110Y-90661431D01*
X108412000Y-90712440D01*
X108565129Y-90712440D01*
X108011300Y-91266270D01*
X102840790Y-91266270D01*
X102605473Y-91310548D01*
X102389349Y-91449620D01*
X102244359Y-91661820D01*
X102231046Y-91727560D01*
X101250000Y-91727560D01*
X101014683Y-91771838D01*
X100798559Y-91910910D01*
X100752031Y-91979006D01*
X100609698Y-91836673D01*
X100376309Y-91740000D01*
X100035750Y-91740000D01*
X99877000Y-91898750D01*
X99877000Y-92873000D01*
X99897000Y-92873000D01*
X99897000Y-93127000D01*
X99877000Y-93127000D01*
X99877000Y-94101250D01*
X100035750Y-94260000D01*
X100376309Y-94260000D01*
X100609698Y-94163327D01*
X100750936Y-94022090D01*
X100785910Y-94076441D01*
X100998110Y-94221431D01*
X101250000Y-94272440D01*
X102250000Y-94272440D01*
X102252070Y-94272051D01*
X102376700Y-94465731D01*
X102588900Y-94610721D01*
X102840790Y-94661730D01*
X108441490Y-94661730D01*
X108676807Y-94617452D01*
X108892931Y-94478380D01*
X109037921Y-94266180D01*
X109088930Y-94014290D01*
X109088930Y-92343900D01*
X110520815Y-90912016D01*
X110540726Y-90882217D01*
X110548004Y-90918805D01*
X110652371Y-91075000D01*
X110713185Y-91166015D01*
X111891070Y-92343901D01*
X111891070Y-94014290D01*
X111935348Y-94249607D01*
X112002529Y-94354010D01*
X110500000Y-94354010D01*
X110208395Y-94412014D01*
X109961185Y-94577195D01*
X109189185Y-95349195D01*
X109024004Y-95596405D01*
X108968138Y-95877259D01*
X108668330Y-96077585D01*
X108653500Y-96099780D01*
X108589927Y-95946302D01*
X108411299Y-95767673D01*
X108177910Y-95671000D01*
X107473750Y-95671000D01*
X107315000Y-95829750D01*
X107315000Y-97195000D01*
X107335000Y-97195000D01*
X107335000Y-97449000D01*
X107315000Y-97449000D01*
X107315000Y-98814250D01*
X107473750Y-98973000D01*
X108177910Y-98973000D01*
X108411299Y-98876327D01*
X108589927Y-98697698D01*
X108653500Y-98544220D01*
X108668330Y-98566415D01*
X109154511Y-98891271D01*
X109728000Y-99005345D01*
X110301489Y-98891271D01*
X110787670Y-98566415D01*
X110998000Y-98251634D01*
X111208330Y-98566415D01*
X111694511Y-98891271D01*
X112268000Y-99005345D01*
X112841489Y-98891271D01*
X113327670Y-98566415D01*
X113538000Y-98251634D01*
X113748330Y-98566415D01*
X114234511Y-98891271D01*
X114808000Y-99005345D01*
X115381489Y-98891271D01*
X115867670Y-98566415D01*
X116192526Y-98080234D01*
X116306600Y-97506745D01*
X116306600Y-97137255D01*
X116192526Y-96563766D01*
X116037678Y-96332020D01*
X121106114Y-96332020D01*
X121397719Y-96274016D01*
X121644929Y-96108835D01*
X121714949Y-96038816D01*
X121714951Y-96038813D01*
X122712816Y-95040949D01*
X122712818Y-95040946D01*
X124788815Y-92964950D01*
X124953996Y-92717739D01*
X124963015Y-92672396D01*
X125012000Y-92426134D01*
X125012000Y-89000000D01*
X124988208Y-88880390D01*
X124953997Y-88708396D01*
X124788816Y-88461185D01*
X124636231Y-88308600D01*
X124984250Y-88308600D01*
X125143000Y-88149850D01*
X125143000Y-86937000D01*
X125397000Y-86937000D01*
X125397000Y-88149850D01*
X125555750Y-88308600D01*
X126412309Y-88308600D01*
X126645698Y-88211927D01*
X126824327Y-88033299D01*
X126921000Y-87799910D01*
X126921000Y-87095750D01*
X126762250Y-86937000D01*
X125397000Y-86937000D01*
X125143000Y-86937000D01*
X125123000Y-86937000D01*
X125123000Y-86683000D01*
X125143000Y-86683000D01*
X125143000Y-86663000D01*
X125397000Y-86663000D01*
X125397000Y-86683000D01*
X126762250Y-86683000D01*
X126921000Y-86524250D01*
X126921000Y-85906630D01*
X127538815Y-85288815D01*
X127703996Y-85041605D01*
X127717859Y-84971910D01*
X127762000Y-84750000D01*
X127762000Y-81250000D01*
X127703996Y-80958395D01*
X127538815Y-80711185D01*
X126788815Y-79961185D01*
X126775069Y-79952000D01*
X126732374Y-79923472D01*
X126839271Y-79763489D01*
X126953345Y-79190000D01*
X126839271Y-78616511D01*
X126514415Y-78130330D01*
X126032000Y-77807990D01*
X126032000Y-76342400D01*
X125973996Y-76050795D01*
X125892094Y-75928220D01*
X125808815Y-75803584D01*
X125788817Y-75783587D01*
X125788815Y-75783584D01*
X122713240Y-72708010D01*
X122809000Y-72612250D01*
X122809000Y-71247000D01*
X123063000Y-71247000D01*
X123063000Y-72612250D01*
X123221750Y-72771000D01*
X123570309Y-72771000D01*
X123803698Y-72674327D01*
X123982327Y-72495699D01*
X124079000Y-72262310D01*
X124079000Y-71405750D01*
X123920250Y-71247000D01*
X123063000Y-71247000D01*
X122809000Y-71247000D01*
X122789000Y-71247000D01*
X122789000Y-70993000D01*
X122809000Y-70993000D01*
X122809000Y-69627750D01*
X122793000Y-69611750D01*
X122793000Y-68707000D01*
X123047000Y-68707000D01*
X123047000Y-69681250D01*
X123063000Y-69697250D01*
X123063000Y-70993000D01*
X123920250Y-70993000D01*
X124079000Y-70834250D01*
X124079000Y-69977690D01*
X123982327Y-69744301D01*
X123880525Y-69642500D01*
X123958327Y-69564699D01*
X124055000Y-69331310D01*
X124055000Y-68865750D01*
X123896250Y-68707000D01*
X123047000Y-68707000D01*
X122793000Y-68707000D01*
X122773000Y-68707000D01*
X122773000Y-68453000D01*
X122793000Y-68453000D01*
X122793000Y-67478750D01*
X123047000Y-67478750D01*
X123047000Y-68453000D01*
X123896250Y-68453000D01*
X124055000Y-68294250D01*
X124055000Y-67828690D01*
X123958327Y-67595301D01*
X123779698Y-67416673D01*
X123546309Y-67320000D01*
X123205750Y-67320000D01*
X123047000Y-67478750D01*
X122793000Y-67478750D01*
X122634250Y-67320000D01*
X122293691Y-67320000D01*
X122060302Y-67416673D01*
X121919064Y-67557910D01*
X121884090Y-67503559D01*
X121671890Y-67358569D01*
X121420000Y-67307560D01*
X120420000Y-67307560D01*
X120184683Y-67351838D01*
X119968559Y-67490910D01*
X119823569Y-67703110D01*
X119772560Y-67955000D01*
X119772560Y-69205000D01*
X119816838Y-69440317D01*
X119870687Y-69524001D01*
X119690559Y-69639910D01*
X119545569Y-69852110D01*
X119507457Y-70040314D01*
X119475162Y-69868683D01*
X119336090Y-69652559D01*
X119123890Y-69507569D01*
X118872000Y-69456560D01*
X118286191Y-69456560D01*
X117934909Y-69105279D01*
X117935162Y-68814833D01*
X117793117Y-68471057D01*
X117530327Y-68207808D01*
X117186799Y-68065162D01*
X116814833Y-68064838D01*
X116471057Y-68206883D01*
X116308600Y-68369057D01*
X116308600Y-67647691D01*
X116211927Y-67414302D01*
X116033299Y-67235673D01*
X115799910Y-67139000D01*
X115095750Y-67139000D01*
X114937000Y-67297750D01*
X114937000Y-68663000D01*
X114957000Y-68663000D01*
X114957000Y-68917000D01*
X114937000Y-68917000D01*
X114937000Y-70282250D01*
X115095750Y-70441000D01*
X115799910Y-70441000D01*
X116033299Y-70344327D01*
X116211927Y-70165698D01*
X116308600Y-69932309D01*
X116308600Y-69630838D01*
X116454868Y-69777362D01*
X116461185Y-69786815D01*
X117208560Y-70534191D01*
X117208560Y-71705809D01*
X117084000Y-71830369D01*
X117084000Y-71770998D01*
X116925252Y-71770998D01*
X117084000Y-71612250D01*
X117084000Y-71271691D01*
X116987327Y-71038302D01*
X116808699Y-70859673D01*
X116575310Y-70763000D01*
X116109750Y-70763000D01*
X115951000Y-70921750D01*
X115951000Y-71771000D01*
X115971000Y-71771000D01*
X115971000Y-72025000D01*
X115951000Y-72025000D01*
X115951000Y-72045000D01*
X115697000Y-72045000D01*
X115697000Y-72025000D01*
X115677000Y-72025000D01*
X115677000Y-71771000D01*
X115697000Y-71771000D01*
X115697000Y-70921750D01*
X115538250Y-70763000D01*
X115072690Y-70763000D01*
X114839301Y-70859673D01*
X114717053Y-70981922D01*
X114711045Y-70977817D01*
X114703996Y-70942378D01*
X114629831Y-70831383D01*
X114538816Y-70695168D01*
X114284648Y-70441000D01*
X114524250Y-70441000D01*
X114683000Y-70282250D01*
X114683000Y-68917000D01*
X114663000Y-68917000D01*
X114663000Y-68663000D01*
X114683000Y-68663000D01*
X114683000Y-67297750D01*
X114524250Y-67139000D01*
X113820090Y-67139000D01*
X113586701Y-67235673D01*
X113408073Y-67414302D01*
X113344500Y-67567780D01*
X113329670Y-67545585D01*
X112843489Y-67220729D01*
X112270000Y-67106655D01*
X111696511Y-67220729D01*
X111210330Y-67545585D01*
X111000000Y-67860366D01*
X110789670Y-67545585D01*
X110303489Y-67220729D01*
X109730000Y-67106655D01*
X109156511Y-67220729D01*
X108670330Y-67545585D01*
X108460000Y-67860366D01*
X108249670Y-67545585D01*
X107912242Y-67320123D01*
X107893996Y-67228395D01*
X107728815Y-66981185D01*
X107219358Y-66471728D01*
X106972148Y-66306547D01*
X106680543Y-66248543D01*
X100883457Y-66248543D01*
X100591852Y-66306547D01*
X100344641Y-66471728D01*
X99553185Y-67263185D01*
X99388004Y-67510395D01*
X99369499Y-67603427D01*
X99356683Y-67605838D01*
X99140559Y-67744910D01*
X98995569Y-67957110D01*
X98944560Y-68209000D01*
X98944560Y-69459000D01*
X98988838Y-69694317D01*
X99042687Y-69778001D01*
X98862559Y-69893910D01*
X98717569Y-70106110D01*
X98666560Y-70358000D01*
X98666560Y-72390000D01*
X98710838Y-72625317D01*
X98849910Y-72841441D01*
X99062110Y-72986431D01*
X99314000Y-73037440D01*
X100330000Y-73037440D01*
X100565317Y-72993162D01*
X100781441Y-72854090D01*
X100926431Y-72641890D01*
X100965000Y-72451431D01*
X100965000Y-72516310D01*
X101061673Y-72749699D01*
X101240302Y-72928327D01*
X101473691Y-73025000D01*
X101822250Y-73025000D01*
X101981000Y-72866250D01*
X101981000Y-71501000D01*
X101961000Y-71501000D01*
X101961000Y-71247000D01*
X101981000Y-71247000D01*
X101981000Y-69881750D01*
X101965000Y-69865750D01*
X101965000Y-68961000D01*
X101945000Y-68961000D01*
X101945000Y-68707000D01*
X101965000Y-68707000D01*
X101965000Y-68687000D01*
X102219000Y-68687000D01*
X102219000Y-68707000D01*
X103068250Y-68707000D01*
X103227000Y-68548250D01*
X103227000Y-68082690D01*
X103130327Y-67849301D01*
X103053569Y-67772543D01*
X105978681Y-67772543D01*
X105805474Y-68031766D01*
X105770290Y-68208650D01*
X105674448Y-68112641D01*
X105330920Y-67969995D01*
X104958954Y-67969671D01*
X104615178Y-68111716D01*
X104351929Y-68374506D01*
X104209283Y-68718034D01*
X104209245Y-68762079D01*
X103855185Y-69116139D01*
X103690004Y-69363349D01*
X103632000Y-69654954D01*
X103632000Y-69766860D01*
X103434559Y-69893910D01*
X103289569Y-70106110D01*
X103251000Y-70296569D01*
X103251000Y-70231690D01*
X103154327Y-69998301D01*
X103052525Y-69896500D01*
X103130327Y-69818699D01*
X103227000Y-69585310D01*
X103227000Y-69119750D01*
X103068250Y-68961000D01*
X102219000Y-68961000D01*
X102219000Y-69935250D01*
X102235000Y-69951250D01*
X102235000Y-71247000D01*
X102255000Y-71247000D01*
X102255000Y-71501000D01*
X102235000Y-71501000D01*
X102235000Y-72866250D01*
X102393750Y-73025000D01*
X102742309Y-73025000D01*
X102975698Y-72928327D01*
X103154327Y-72749699D01*
X103251000Y-72516310D01*
X103251000Y-72456113D01*
X103282838Y-72625317D01*
X103421910Y-72841441D01*
X103634110Y-72986431D01*
X103886000Y-73037440D01*
X104902000Y-73037440D01*
X105137317Y-72993162D01*
X105353441Y-72854090D01*
X105482579Y-72665090D01*
X105590910Y-72833441D01*
X105659006Y-72879969D01*
X105516673Y-73022302D01*
X105420000Y-73255691D01*
X105420000Y-73596250D01*
X105578750Y-73755000D01*
X106553000Y-73755000D01*
X106553000Y-73735000D01*
X106807000Y-73735000D01*
X106807000Y-73755000D01*
X106827000Y-73755000D01*
X106827000Y-74009000D01*
X106807000Y-74009000D01*
X106807000Y-74858250D01*
X106965750Y-75017000D01*
X107431310Y-75017000D01*
X107664699Y-74920327D01*
X107735103Y-74849922D01*
X107872060Y-74943501D01*
X108123950Y-74994510D01*
X108758255Y-74994510D01*
X108622509Y-75081860D01*
X108477519Y-75294060D01*
X108426510Y-75545950D01*
X108426510Y-76346050D01*
X108458300Y-76515000D01*
X106250000Y-76515000D01*
X105968728Y-76570949D01*
X105730276Y-76730277D01*
X104980277Y-77480277D01*
X104820949Y-77718728D01*
X104765000Y-78000000D01*
X104765000Y-78661123D01*
X104584240Y-78841883D01*
X104584240Y-76962000D01*
X104539962Y-76726683D01*
X104400890Y-76510559D01*
X104188690Y-76365569D01*
X103936800Y-76314560D01*
X100279200Y-76314560D01*
X100043883Y-76358838D01*
X99827759Y-76497910D01*
X99682769Y-76710110D01*
X99631760Y-76962000D01*
X99631760Y-78994000D01*
X99676038Y-79229317D01*
X99815110Y-79445441D01*
X99978294Y-79556940D01*
X94125732Y-79556940D01*
X93890254Y-79603780D01*
X93844460Y-79612889D01*
X93606008Y-79772217D01*
X92845736Y-80532490D01*
X92702898Y-80186797D01*
X92398067Y-79881434D01*
X91999583Y-79715969D01*
X91568110Y-79715592D01*
X91169337Y-79880362D01*
X90863974Y-80185193D01*
X90698509Y-80583677D01*
X90698132Y-81015150D01*
X90862902Y-81413923D01*
X91167733Y-81719286D01*
X91514818Y-81863408D01*
X91299852Y-82078374D01*
X91219039Y-82078304D01*
X90875263Y-82220349D01*
X90612014Y-82483139D01*
X90469368Y-82826667D01*
X90469044Y-83198633D01*
X86710000Y-83198633D01*
X86710000Y-74167750D01*
X105420000Y-74167750D01*
X105420000Y-74508309D01*
X105516673Y-74741698D01*
X105695301Y-74920327D01*
X105928690Y-75017000D01*
X106394250Y-75017000D01*
X106553000Y-74858250D01*
X106553000Y-74009000D01*
X105578750Y-74009000D01*
X105420000Y-74167750D01*
X86710000Y-74167750D01*
X86710000Y-64069931D01*
X86838719Y-63422815D01*
X88864630Y-63422815D01*
X89188980Y-64207800D01*
X89789041Y-64808909D01*
X90573459Y-65134628D01*
X91422815Y-65135370D01*
X92207800Y-64811020D01*
X92808909Y-64210959D01*
X93134628Y-63426541D01*
X93134631Y-63422815D01*
X128864630Y-63422815D01*
X129188980Y-64207800D01*
X129789041Y-64808909D01*
X130573459Y-65134628D01*
X131422815Y-65135370D01*
X132207800Y-64811020D01*
X132808909Y-64210959D01*
X133134628Y-63426541D01*
X133135370Y-62577185D01*
X132811020Y-61792200D01*
X132210959Y-61191091D01*
X131426541Y-60865372D01*
X130577185Y-60864630D01*
X129792200Y-61188980D01*
X129191091Y-61789041D01*
X128865372Y-62573459D01*
X128864630Y-63422815D01*
X93134631Y-63422815D01*
X93135370Y-62577185D01*
X92811020Y-61792200D01*
X92210959Y-61191091D01*
X91426541Y-60865372D01*
X90577185Y-60864630D01*
X89792200Y-61188980D01*
X89191091Y-61789041D01*
X88865372Y-62573459D01*
X88864630Y-63422815D01*
X86838719Y-63422815D01*
X87125528Y-61980928D01*
X88269241Y-60269240D01*
X89980926Y-59125529D01*
X92069931Y-58710000D01*
X129930069Y-58710000D01*
X132019072Y-59125528D01*
X132019072Y-59125528D01*
G37*
X132019072Y-59125528D02*
X133730760Y-60269241D01*
X134874471Y-61980926D01*
X135290000Y-64069931D01*
X135290000Y-101930069D01*
X134874471Y-104019074D01*
X133730760Y-105730759D01*
X132019072Y-106874472D01*
X129930069Y-107290000D01*
X92069931Y-107290000D01*
X89980926Y-106874471D01*
X88269241Y-105730760D01*
X87125528Y-104019072D01*
X87006926Y-103422815D01*
X88864630Y-103422815D01*
X89188980Y-104207800D01*
X89789041Y-104808909D01*
X90573459Y-105134628D01*
X91422815Y-105135370D01*
X92207800Y-104811020D01*
X92808909Y-104210959D01*
X93134628Y-103426541D01*
X93134631Y-103422815D01*
X128864630Y-103422815D01*
X129188980Y-104207800D01*
X129789041Y-104808909D01*
X130573459Y-105134628D01*
X131422815Y-105135370D01*
X132207800Y-104811020D01*
X132808909Y-104210959D01*
X133134628Y-103426541D01*
X133135370Y-102577185D01*
X132811020Y-101792200D01*
X132210959Y-101191091D01*
X131426541Y-100865372D01*
X130577185Y-100864630D01*
X129792200Y-101188980D01*
X129191091Y-101789041D01*
X128865372Y-102573459D01*
X128864630Y-103422815D01*
X93134631Y-103422815D01*
X93135370Y-102577185D01*
X92811020Y-101792200D01*
X92210959Y-101191091D01*
X91426541Y-100865372D01*
X90577185Y-100864630D01*
X89792200Y-101188980D01*
X89191091Y-101789041D01*
X88865372Y-102573459D01*
X88864630Y-103422815D01*
X87006926Y-103422815D01*
X86710000Y-101930069D01*
X86710000Y-97607750D01*
X105689400Y-97607750D01*
X105689400Y-98464309D01*
X105786073Y-98697698D01*
X105964701Y-98876327D01*
X106198090Y-98973000D01*
X106902250Y-98973000D01*
X107061000Y-98814250D01*
X107061000Y-97449000D01*
X105848150Y-97449000D01*
X105689400Y-97607750D01*
X86710000Y-97607750D01*
X86710000Y-96179691D01*
X105689400Y-96179691D01*
X105689400Y-97036250D01*
X105848150Y-97195000D01*
X107061000Y-97195000D01*
X107061000Y-95829750D01*
X106902250Y-95671000D01*
X106198090Y-95671000D01*
X105964701Y-95767673D01*
X105786073Y-95946302D01*
X105689400Y-96179691D01*
X86710000Y-96179691D01*
X86710000Y-93285750D01*
X98615000Y-93285750D01*
X98615000Y-93751310D01*
X98711673Y-93984699D01*
X98890302Y-94163327D01*
X99123691Y-94260000D01*
X99464250Y-94260000D01*
X99623000Y-94101250D01*
X99623000Y-93127000D01*
X98773750Y-93127000D01*
X98615000Y-93285750D01*
X86710000Y-93285750D01*
X86710000Y-92248690D01*
X98615000Y-92248690D01*
X98615000Y-92714250D01*
X98773750Y-92873000D01*
X99623000Y-92873000D01*
X99623000Y-91898750D01*
X99464250Y-91740000D01*
X99123691Y-91740000D01*
X98890302Y-91836673D01*
X98711673Y-92015301D01*
X98615000Y-92248690D01*
X86710000Y-92248690D01*
X86710000Y-83198633D01*
X90469044Y-83198633D01*
X90611089Y-83542409D01*
X90873879Y-83805658D01*
X91217407Y-83948304D01*
X91589373Y-83948628D01*
X91933149Y-83806583D01*
X91958638Y-83781138D01*
X91969673Y-83792192D01*
X92313201Y-83934838D01*
X92685167Y-83935162D01*
X93028943Y-83793117D01*
X93044576Y-83777511D01*
X104941370Y-83777511D01*
X104941370Y-84268310D01*
X105100120Y-84427060D01*
X106299000Y-84427060D01*
X106299000Y-83427570D01*
X106553000Y-83427570D01*
X106553000Y-84427060D01*
X107751880Y-84427060D01*
X107910630Y-84268310D01*
X107910630Y-83777511D01*
X107813957Y-83544122D01*
X107635329Y-83365493D01*
X107401940Y-83268820D01*
X106711750Y-83268820D01*
X106553000Y-83427570D01*
X106299000Y-83427570D01*
X106140250Y-83268820D01*
X105450060Y-83268820D01*
X105216671Y-83365493D01*
X105038043Y-83544122D01*
X104941370Y-83777511D01*
X93044576Y-83777511D01*
X93087162Y-83735000D01*
X95731940Y-83735000D01*
X96013212Y-83679051D01*
X96251663Y-83519723D01*
X96994387Y-82777000D01*
X101741165Y-82777000D01*
X101736043Y-82782122D01*
X101639370Y-83015511D01*
X101639370Y-83506310D01*
X101798120Y-83665060D01*
X102997000Y-83665060D01*
X102997000Y-83645060D01*
X103251000Y-83645060D01*
X103251000Y-83665060D01*
X104449880Y-83665060D01*
X104608630Y-83506310D01*
X104608630Y-83015511D01*
X104511957Y-82782122D01*
X104487170Y-82757335D01*
X104669582Y-82721051D01*
X104908033Y-82561723D01*
X105232199Y-82237558D01*
X105324480Y-82300611D01*
X105576370Y-82351620D01*
X107275630Y-82351620D01*
X107510947Y-82307342D01*
X107727071Y-82168270D01*
X107764560Y-82113403D01*
X107764560Y-83065000D01*
X107808838Y-83300317D01*
X107947910Y-83516441D01*
X107950000Y-83517869D01*
X107950000Y-86653369D01*
X107686000Y-86917369D01*
X107686000Y-86661750D01*
X107527250Y-86503000D01*
X106553000Y-86503000D01*
X106553000Y-86523000D01*
X106299000Y-86523000D01*
X106299000Y-86503000D01*
X105324750Y-86503000D01*
X105166000Y-86661750D01*
X105166000Y-87002309D01*
X105262673Y-87235698D01*
X105403910Y-87376936D01*
X105349559Y-87411910D01*
X105211477Y-87614000D01*
X104385570Y-87614000D01*
X104385570Y-86784610D01*
X104226820Y-86625860D01*
X103127000Y-86625860D01*
X103127000Y-86645860D01*
X102873000Y-86645860D01*
X102873000Y-86625860D01*
X101773180Y-86625860D01*
X101614430Y-86784610D01*
X101614430Y-87614000D01*
X96300650Y-87614000D01*
X94152738Y-85466089D01*
X94152775Y-85423427D01*
X94101004Y-85298131D01*
X101614430Y-85298131D01*
X101614430Y-86213110D01*
X101773180Y-86371860D01*
X102873000Y-86371860D01*
X102873000Y-85042550D01*
X102967360Y-84948190D01*
X103127000Y-84948190D01*
X103127000Y-86371860D01*
X104226820Y-86371860D01*
X104385570Y-86213110D01*
X104385570Y-85298131D01*
X104288897Y-85064742D01*
X104242433Y-85018277D01*
X104333329Y-84980627D01*
X104474145Y-84839810D01*
X104941370Y-84839810D01*
X104941370Y-85330609D01*
X105038043Y-85563998D01*
X105182910Y-85708866D01*
X105166000Y-85749691D01*
X105166000Y-86090250D01*
X105324750Y-86249000D01*
X106299000Y-86249000D01*
X106299000Y-84681060D01*
X106553000Y-84681060D01*
X106553000Y-86249000D01*
X107527250Y-86249000D01*
X107686000Y-86090250D01*
X107686000Y-85749691D01*
X107669090Y-85708866D01*
X107813957Y-85563998D01*
X107910630Y-85330609D01*
X107910630Y-84839810D01*
X107751880Y-84681060D01*
X106553000Y-84681060D01*
X106299000Y-84681060D01*
X105100120Y-84681060D01*
X104941370Y-84839810D01*
X104474145Y-84839810D01*
X104511957Y-84801998D01*
X104608630Y-84568609D01*
X104608630Y-84077810D01*
X104449880Y-83919060D01*
X103251000Y-83919060D01*
X103251000Y-84824190D01*
X103127000Y-84948190D01*
X102967360Y-84948190D01*
X102997000Y-84918550D01*
X102997000Y-83919060D01*
X101798120Y-83919060D01*
X101639370Y-84077810D01*
X101639370Y-84568609D01*
X101736043Y-84801998D01*
X101854944Y-84920900D01*
X101711103Y-85064742D01*
X101614430Y-85298131D01*
X94101004Y-85298131D01*
X94010730Y-85079651D01*
X93747940Y-84816402D01*
X93404412Y-84673756D01*
X93032446Y-84673432D01*
X92781787Y-84777002D01*
X92702898Y-84586077D01*
X92398067Y-84280714D01*
X91999583Y-84115249D01*
X91568110Y-84114872D01*
X91169337Y-84279642D01*
X90863974Y-84584473D01*
X90698509Y-84982957D01*
X90698132Y-85414430D01*
X90862902Y-85813203D01*
X91167733Y-86118566D01*
X91566217Y-86284031D01*
X91997690Y-86284408D01*
X92396463Y-86119638D01*
X92411074Y-86105053D01*
X92424496Y-86137537D01*
X92687286Y-86400786D01*
X93030814Y-86543432D01*
X93074859Y-86543470D01*
X95446203Y-88914815D01*
X95691022Y-89078398D01*
X95693414Y-89079996D01*
X95985019Y-89138000D01*
X100554660Y-89138000D01*
X101456614Y-90039955D01*
X101601990Y-90137092D01*
X101601990Y-90575560D01*
X101646268Y-90810877D01*
X101785340Y-91027001D01*
X101997540Y-91171991D01*
X102249430Y-91223000D01*
X103750570Y-91223000D01*
X103985887Y-91178722D01*
X104202011Y-91039650D01*
X104347001Y-90827450D01*
X104398010Y-90575560D01*
X104398010Y-89138000D01*
X105215008Y-89138000D01*
X105336910Y-89327441D01*
X105549110Y-89472431D01*
X105801000Y-89523440D01*
X107051000Y-89523440D01*
X107286317Y-89479162D01*
X107502441Y-89340090D01*
X107647431Y-89127890D01*
X107666601Y-89033226D01*
X107764560Y-88967772D01*
X107764560Y-90065000D01*
X107808838Y-90300317D01*
X107947910Y-90516441D01*
X108160110Y-90661431D01*
X108412000Y-90712440D01*
X108565129Y-90712440D01*
X108011300Y-91266270D01*
X102840790Y-91266270D01*
X102605473Y-91310548D01*
X102389349Y-91449620D01*
X102244359Y-91661820D01*
X102231046Y-91727560D01*
X101250000Y-91727560D01*
X101014683Y-91771838D01*
X100798559Y-91910910D01*
X100752031Y-91979006D01*
X100609698Y-91836673D01*
X100376309Y-91740000D01*
X100035750Y-91740000D01*
X99877000Y-91898750D01*
X99877000Y-92873000D01*
X99897000Y-92873000D01*
X99897000Y-93127000D01*
X99877000Y-93127000D01*
X99877000Y-94101250D01*
X100035750Y-94260000D01*
X100376309Y-94260000D01*
X100609698Y-94163327D01*
X100750936Y-94022090D01*
X100785910Y-94076441D01*
X100998110Y-94221431D01*
X101250000Y-94272440D01*
X102250000Y-94272440D01*
X102252070Y-94272051D01*
X102376700Y-94465731D01*
X102588900Y-94610721D01*
X102840790Y-94661730D01*
X108441490Y-94661730D01*
X108676807Y-94617452D01*
X108892931Y-94478380D01*
X109037921Y-94266180D01*
X109088930Y-94014290D01*
X109088930Y-92343900D01*
X110520815Y-90912016D01*
X110540726Y-90882217D01*
X110548004Y-90918805D01*
X110652371Y-91075000D01*
X110713185Y-91166015D01*
X111891070Y-92343901D01*
X111891070Y-94014290D01*
X111935348Y-94249607D01*
X112002529Y-94354010D01*
X110500000Y-94354010D01*
X110208395Y-94412014D01*
X109961185Y-94577195D01*
X109189185Y-95349195D01*
X109024004Y-95596405D01*
X108968138Y-95877259D01*
X108668330Y-96077585D01*
X108653500Y-96099780D01*
X108589927Y-95946302D01*
X108411299Y-95767673D01*
X108177910Y-95671000D01*
X107473750Y-95671000D01*
X107315000Y-95829750D01*
X107315000Y-97195000D01*
X107335000Y-97195000D01*
X107335000Y-97449000D01*
X107315000Y-97449000D01*
X107315000Y-98814250D01*
X107473750Y-98973000D01*
X108177910Y-98973000D01*
X108411299Y-98876327D01*
X108589927Y-98697698D01*
X108653500Y-98544220D01*
X108668330Y-98566415D01*
X109154511Y-98891271D01*
X109728000Y-99005345D01*
X110301489Y-98891271D01*
X110787670Y-98566415D01*
X110998000Y-98251634D01*
X111208330Y-98566415D01*
X111694511Y-98891271D01*
X112268000Y-99005345D01*
X112841489Y-98891271D01*
X113327670Y-98566415D01*
X113538000Y-98251634D01*
X113748330Y-98566415D01*
X114234511Y-98891271D01*
X114808000Y-99005345D01*
X115381489Y-98891271D01*
X115867670Y-98566415D01*
X116192526Y-98080234D01*
X116306600Y-97506745D01*
X116306600Y-97137255D01*
X116192526Y-96563766D01*
X116037678Y-96332020D01*
X121106114Y-96332020D01*
X121397719Y-96274016D01*
X121644929Y-96108835D01*
X121714949Y-96038816D01*
X121714951Y-96038813D01*
X122712816Y-95040949D01*
X122712818Y-95040946D01*
X124788815Y-92964950D01*
X124953996Y-92717739D01*
X124963015Y-92672396D01*
X125012000Y-92426134D01*
X125012000Y-89000000D01*
X124988208Y-88880390D01*
X124953997Y-88708396D01*
X124788816Y-88461185D01*
X124636231Y-88308600D01*
X124984250Y-88308600D01*
X125143000Y-88149850D01*
X125143000Y-86937000D01*
X125397000Y-86937000D01*
X125397000Y-88149850D01*
X125555750Y-88308600D01*
X126412309Y-88308600D01*
X126645698Y-88211927D01*
X126824327Y-88033299D01*
X126921000Y-87799910D01*
X126921000Y-87095750D01*
X126762250Y-86937000D01*
X125397000Y-86937000D01*
X125143000Y-86937000D01*
X125123000Y-86937000D01*
X125123000Y-86683000D01*
X125143000Y-86683000D01*
X125143000Y-86663000D01*
X125397000Y-86663000D01*
X125397000Y-86683000D01*
X126762250Y-86683000D01*
X126921000Y-86524250D01*
X126921000Y-85906630D01*
X127538815Y-85288815D01*
X127703996Y-85041605D01*
X127717859Y-84971910D01*
X127762000Y-84750000D01*
X127762000Y-81250000D01*
X127703996Y-80958395D01*
X127538815Y-80711185D01*
X126788815Y-79961185D01*
X126775069Y-79952000D01*
X126732374Y-79923472D01*
X126839271Y-79763489D01*
X126953345Y-79190000D01*
X126839271Y-78616511D01*
X126514415Y-78130330D01*
X126032000Y-77807990D01*
X126032000Y-76342400D01*
X125973996Y-76050795D01*
X125892094Y-75928220D01*
X125808815Y-75803584D01*
X125788817Y-75783587D01*
X125788815Y-75783584D01*
X122713240Y-72708010D01*
X122809000Y-72612250D01*
X122809000Y-71247000D01*
X123063000Y-71247000D01*
X123063000Y-72612250D01*
X123221750Y-72771000D01*
X123570309Y-72771000D01*
X123803698Y-72674327D01*
X123982327Y-72495699D01*
X124079000Y-72262310D01*
X124079000Y-71405750D01*
X123920250Y-71247000D01*
X123063000Y-71247000D01*
X122809000Y-71247000D01*
X122789000Y-71247000D01*
X122789000Y-70993000D01*
X122809000Y-70993000D01*
X122809000Y-69627750D01*
X122793000Y-69611750D01*
X122793000Y-68707000D01*
X123047000Y-68707000D01*
X123047000Y-69681250D01*
X123063000Y-69697250D01*
X123063000Y-70993000D01*
X123920250Y-70993000D01*
X124079000Y-70834250D01*
X124079000Y-69977690D01*
X123982327Y-69744301D01*
X123880525Y-69642500D01*
X123958327Y-69564699D01*
X124055000Y-69331310D01*
X124055000Y-68865750D01*
X123896250Y-68707000D01*
X123047000Y-68707000D01*
X122793000Y-68707000D01*
X122773000Y-68707000D01*
X122773000Y-68453000D01*
X122793000Y-68453000D01*
X122793000Y-67478750D01*
X123047000Y-67478750D01*
X123047000Y-68453000D01*
X123896250Y-68453000D01*
X124055000Y-68294250D01*
X124055000Y-67828690D01*
X123958327Y-67595301D01*
X123779698Y-67416673D01*
X123546309Y-67320000D01*
X123205750Y-67320000D01*
X123047000Y-67478750D01*
X122793000Y-67478750D01*
X122634250Y-67320000D01*
X122293691Y-67320000D01*
X122060302Y-67416673D01*
X121919064Y-67557910D01*
X121884090Y-67503559D01*
X121671890Y-67358569D01*
X121420000Y-67307560D01*
X120420000Y-67307560D01*
X120184683Y-67351838D01*
X119968559Y-67490910D01*
X119823569Y-67703110D01*
X119772560Y-67955000D01*
X119772560Y-69205000D01*
X119816838Y-69440317D01*
X119870687Y-69524001D01*
X119690559Y-69639910D01*
X119545569Y-69852110D01*
X119507457Y-70040314D01*
X119475162Y-69868683D01*
X119336090Y-69652559D01*
X119123890Y-69507569D01*
X118872000Y-69456560D01*
X118286191Y-69456560D01*
X117934909Y-69105279D01*
X117935162Y-68814833D01*
X117793117Y-68471057D01*
X117530327Y-68207808D01*
X117186799Y-68065162D01*
X116814833Y-68064838D01*
X116471057Y-68206883D01*
X116308600Y-68369057D01*
X116308600Y-67647691D01*
X116211927Y-67414302D01*
X116033299Y-67235673D01*
X115799910Y-67139000D01*
X115095750Y-67139000D01*
X114937000Y-67297750D01*
X114937000Y-68663000D01*
X114957000Y-68663000D01*
X114957000Y-68917000D01*
X114937000Y-68917000D01*
X114937000Y-70282250D01*
X115095750Y-70441000D01*
X115799910Y-70441000D01*
X116033299Y-70344327D01*
X116211927Y-70165698D01*
X116308600Y-69932309D01*
X116308600Y-69630838D01*
X116454868Y-69777362D01*
X116461185Y-69786815D01*
X117208560Y-70534191D01*
X117208560Y-71705809D01*
X117084000Y-71830369D01*
X117084000Y-71770998D01*
X116925252Y-71770998D01*
X117084000Y-71612250D01*
X117084000Y-71271691D01*
X116987327Y-71038302D01*
X116808699Y-70859673D01*
X116575310Y-70763000D01*
X116109750Y-70763000D01*
X115951000Y-70921750D01*
X115951000Y-71771000D01*
X115971000Y-71771000D01*
X115971000Y-72025000D01*
X115951000Y-72025000D01*
X115951000Y-72045000D01*
X115697000Y-72045000D01*
X115697000Y-72025000D01*
X115677000Y-72025000D01*
X115677000Y-71771000D01*
X115697000Y-71771000D01*
X115697000Y-70921750D01*
X115538250Y-70763000D01*
X115072690Y-70763000D01*
X114839301Y-70859673D01*
X114717053Y-70981922D01*
X114711045Y-70977817D01*
X114703996Y-70942378D01*
X114629831Y-70831383D01*
X114538816Y-70695168D01*
X114284648Y-70441000D01*
X114524250Y-70441000D01*
X114683000Y-70282250D01*
X114683000Y-68917000D01*
X114663000Y-68917000D01*
X114663000Y-68663000D01*
X114683000Y-68663000D01*
X114683000Y-67297750D01*
X114524250Y-67139000D01*
X113820090Y-67139000D01*
X113586701Y-67235673D01*
X113408073Y-67414302D01*
X113344500Y-67567780D01*
X113329670Y-67545585D01*
X112843489Y-67220729D01*
X112270000Y-67106655D01*
X111696511Y-67220729D01*
X111210330Y-67545585D01*
X111000000Y-67860366D01*
X110789670Y-67545585D01*
X110303489Y-67220729D01*
X109730000Y-67106655D01*
X109156511Y-67220729D01*
X108670330Y-67545585D01*
X108460000Y-67860366D01*
X108249670Y-67545585D01*
X107912242Y-67320123D01*
X107893996Y-67228395D01*
X107728815Y-66981185D01*
X107219358Y-66471728D01*
X106972148Y-66306547D01*
X106680543Y-66248543D01*
X100883457Y-66248543D01*
X100591852Y-66306547D01*
X100344641Y-66471728D01*
X99553185Y-67263185D01*
X99388004Y-67510395D01*
X99369499Y-67603427D01*
X99356683Y-67605838D01*
X99140559Y-67744910D01*
X98995569Y-67957110D01*
X98944560Y-68209000D01*
X98944560Y-69459000D01*
X98988838Y-69694317D01*
X99042687Y-69778001D01*
X98862559Y-69893910D01*
X98717569Y-70106110D01*
X98666560Y-70358000D01*
X98666560Y-72390000D01*
X98710838Y-72625317D01*
X98849910Y-72841441D01*
X99062110Y-72986431D01*
X99314000Y-73037440D01*
X100330000Y-73037440D01*
X100565317Y-72993162D01*
X100781441Y-72854090D01*
X100926431Y-72641890D01*
X100965000Y-72451431D01*
X100965000Y-72516310D01*
X101061673Y-72749699D01*
X101240302Y-72928327D01*
X101473691Y-73025000D01*
X101822250Y-73025000D01*
X101981000Y-72866250D01*
X101981000Y-71501000D01*
X101961000Y-71501000D01*
X101961000Y-71247000D01*
X101981000Y-71247000D01*
X101981000Y-69881750D01*
X101965000Y-69865750D01*
X101965000Y-68961000D01*
X101945000Y-68961000D01*
X101945000Y-68707000D01*
X101965000Y-68707000D01*
X101965000Y-68687000D01*
X102219000Y-68687000D01*
X102219000Y-68707000D01*
X103068250Y-68707000D01*
X103227000Y-68548250D01*
X103227000Y-68082690D01*
X103130327Y-67849301D01*
X103053569Y-67772543D01*
X105978681Y-67772543D01*
X105805474Y-68031766D01*
X105770290Y-68208650D01*
X105674448Y-68112641D01*
X105330920Y-67969995D01*
X104958954Y-67969671D01*
X104615178Y-68111716D01*
X104351929Y-68374506D01*
X104209283Y-68718034D01*
X104209245Y-68762079D01*
X103855185Y-69116139D01*
X103690004Y-69363349D01*
X103632000Y-69654954D01*
X103632000Y-69766860D01*
X103434559Y-69893910D01*
X103289569Y-70106110D01*
X103251000Y-70296569D01*
X103251000Y-70231690D01*
X103154327Y-69998301D01*
X103052525Y-69896500D01*
X103130327Y-69818699D01*
X103227000Y-69585310D01*
X103227000Y-69119750D01*
X103068250Y-68961000D01*
X102219000Y-68961000D01*
X102219000Y-69935250D01*
X102235000Y-69951250D01*
X102235000Y-71247000D01*
X102255000Y-71247000D01*
X102255000Y-71501000D01*
X102235000Y-71501000D01*
X102235000Y-72866250D01*
X102393750Y-73025000D01*
X102742309Y-73025000D01*
X102975698Y-72928327D01*
X103154327Y-72749699D01*
X103251000Y-72516310D01*
X103251000Y-72456113D01*
X103282838Y-72625317D01*
X103421910Y-72841441D01*
X103634110Y-72986431D01*
X103886000Y-73037440D01*
X104902000Y-73037440D01*
X105137317Y-72993162D01*
X105353441Y-72854090D01*
X105482579Y-72665090D01*
X105590910Y-72833441D01*
X105659006Y-72879969D01*
X105516673Y-73022302D01*
X105420000Y-73255691D01*
X105420000Y-73596250D01*
X105578750Y-73755000D01*
X106553000Y-73755000D01*
X106553000Y-73735000D01*
X106807000Y-73735000D01*
X106807000Y-73755000D01*
X106827000Y-73755000D01*
X106827000Y-74009000D01*
X106807000Y-74009000D01*
X106807000Y-74858250D01*
X106965750Y-75017000D01*
X107431310Y-75017000D01*
X107664699Y-74920327D01*
X107735103Y-74849922D01*
X107872060Y-74943501D01*
X108123950Y-74994510D01*
X108758255Y-74994510D01*
X108622509Y-75081860D01*
X108477519Y-75294060D01*
X108426510Y-75545950D01*
X108426510Y-76346050D01*
X108458300Y-76515000D01*
X106250000Y-76515000D01*
X105968728Y-76570949D01*
X105730276Y-76730277D01*
X104980277Y-77480277D01*
X104820949Y-77718728D01*
X104765000Y-78000000D01*
X104765000Y-78661123D01*
X104584240Y-78841883D01*
X104584240Y-76962000D01*
X104539962Y-76726683D01*
X104400890Y-76510559D01*
X104188690Y-76365569D01*
X103936800Y-76314560D01*
X100279200Y-76314560D01*
X100043883Y-76358838D01*
X99827759Y-76497910D01*
X99682769Y-76710110D01*
X99631760Y-76962000D01*
X99631760Y-78994000D01*
X99676038Y-79229317D01*
X99815110Y-79445441D01*
X99978294Y-79556940D01*
X94125732Y-79556940D01*
X93890254Y-79603780D01*
X93844460Y-79612889D01*
X93606008Y-79772217D01*
X92845736Y-80532490D01*
X92702898Y-80186797D01*
X92398067Y-79881434D01*
X91999583Y-79715969D01*
X91568110Y-79715592D01*
X91169337Y-79880362D01*
X90863974Y-80185193D01*
X90698509Y-80583677D01*
X90698132Y-81015150D01*
X90862902Y-81413923D01*
X91167733Y-81719286D01*
X91514818Y-81863408D01*
X91299852Y-82078374D01*
X91219039Y-82078304D01*
X90875263Y-82220349D01*
X90612014Y-82483139D01*
X90469368Y-82826667D01*
X90469044Y-83198633D01*
X86710000Y-83198633D01*
X86710000Y-74167750D01*
X105420000Y-74167750D01*
X105420000Y-74508309D01*
X105516673Y-74741698D01*
X105695301Y-74920327D01*
X105928690Y-75017000D01*
X106394250Y-75017000D01*
X106553000Y-74858250D01*
X106553000Y-74009000D01*
X105578750Y-74009000D01*
X105420000Y-74167750D01*
X86710000Y-74167750D01*
X86710000Y-64069931D01*
X86838719Y-63422815D01*
X88864630Y-63422815D01*
X89188980Y-64207800D01*
X89789041Y-64808909D01*
X90573459Y-65134628D01*
X91422815Y-65135370D01*
X92207800Y-64811020D01*
X92808909Y-64210959D01*
X93134628Y-63426541D01*
X93134631Y-63422815D01*
X128864630Y-63422815D01*
X129188980Y-64207800D01*
X129789041Y-64808909D01*
X130573459Y-65134628D01*
X131422815Y-65135370D01*
X132207800Y-64811020D01*
X132808909Y-64210959D01*
X133134628Y-63426541D01*
X133135370Y-62577185D01*
X132811020Y-61792200D01*
X132210959Y-61191091D01*
X131426541Y-60865372D01*
X130577185Y-60864630D01*
X129792200Y-61188980D01*
X129191091Y-61789041D01*
X128865372Y-62573459D01*
X128864630Y-63422815D01*
X93134631Y-63422815D01*
X93135370Y-62577185D01*
X92811020Y-61792200D01*
X92210959Y-61191091D01*
X91426541Y-60865372D01*
X90577185Y-60864630D01*
X89792200Y-61188980D01*
X89191091Y-61789041D01*
X88865372Y-62573459D01*
X88864630Y-63422815D01*
X86838719Y-63422815D01*
X87125528Y-61980928D01*
X88269241Y-60269240D01*
X89980926Y-59125529D01*
X92069931Y-58710000D01*
X129930069Y-58710000D01*
X132019072Y-59125528D01*
G36*
X120904000Y-94052436D02*
X120602427Y-94354010D01*
X118675629Y-94354010D01*
X118735641Y-94266180D01*
X118779623Y-94048990D01*
X119009000Y-94095440D01*
X120259000Y-94095440D01*
X120494317Y-94051162D01*
X120710441Y-93912090D01*
X120855431Y-93699890D01*
X120904000Y-93460049D01*
X120904000Y-94052436D01*
X120904000Y-94052436D01*
G37*
X120904000Y-94052436D02*
X120602427Y-94354010D01*
X118675629Y-94354010D01*
X118735641Y-94266180D01*
X118779623Y-94048990D01*
X119009000Y-94095440D01*
X120259000Y-94095440D01*
X120494317Y-94051162D01*
X120710441Y-93912090D01*
X120855431Y-93699890D01*
X120904000Y-93460049D01*
X120904000Y-94052436D01*
G36*
X120904000Y-90993631D02*
X120904000Y-92435033D01*
X120862162Y-92212683D01*
X120723090Y-91996559D01*
X120654994Y-91950031D01*
X120797327Y-91807698D01*
X120894000Y-91574309D01*
X120894000Y-91233750D01*
X120735252Y-91075002D01*
X120894000Y-91075002D01*
X120894000Y-90983631D01*
X120904000Y-90993631D01*
X120904000Y-90993631D01*
G37*
X120904000Y-90993631D02*
X120904000Y-92435033D01*
X120862162Y-92212683D01*
X120723090Y-91996559D01*
X120654994Y-91950031D01*
X120797327Y-91807698D01*
X120894000Y-91574309D01*
X120894000Y-91233750D01*
X120735252Y-91075002D01*
X120894000Y-91075002D01*
X120894000Y-90983631D01*
X120904000Y-90993631D01*
G36*
X112649000Y-88873000D02*
X112669000Y-88873000D01*
X112669000Y-89127000D01*
X112649000Y-89127000D01*
X112649000Y-90541250D01*
X112807750Y-90700000D01*
X112948310Y-90700000D01*
X113181699Y-90603327D01*
X113360327Y-90424698D01*
X113457000Y-90191309D01*
X113457000Y-89461597D01*
X113496838Y-89673317D01*
X113635910Y-89889441D01*
X113848110Y-90034431D01*
X114100000Y-90085440D01*
X115400000Y-90085440D01*
X115635317Y-90041162D01*
X115851441Y-89902090D01*
X115887033Y-89850000D01*
X115992200Y-89850000D01*
X116597015Y-90454815D01*
X116844225Y-90619996D01*
X117135830Y-90678000D01*
X118389750Y-90678000D01*
X118532750Y-90821000D01*
X119507000Y-90821000D01*
X119507000Y-90801000D01*
X119761000Y-90801000D01*
X119761000Y-90821000D01*
X119781000Y-90821000D01*
X119781000Y-91075000D01*
X119761000Y-91075000D01*
X119761000Y-91095000D01*
X119507000Y-91095000D01*
X119507000Y-91075000D01*
X118532750Y-91075000D01*
X118374000Y-91233750D01*
X118374000Y-91313816D01*
X118139210Y-91266270D01*
X112968701Y-91266270D01*
X112319340Y-90616910D01*
X112395000Y-90541250D01*
X112395000Y-89127000D01*
X112375000Y-89127000D01*
X112375000Y-88873000D01*
X112395000Y-88873000D01*
X112395000Y-88853000D01*
X112649000Y-88853000D01*
X112649000Y-88873000D01*
X112649000Y-88873000D01*
G37*
X112649000Y-88873000D02*
X112669000Y-88873000D01*
X112669000Y-89127000D01*
X112649000Y-89127000D01*
X112649000Y-90541250D01*
X112807750Y-90700000D01*
X112948310Y-90700000D01*
X113181699Y-90603327D01*
X113360327Y-90424698D01*
X113457000Y-90191309D01*
X113457000Y-89461597D01*
X113496838Y-89673317D01*
X113635910Y-89889441D01*
X113848110Y-90034431D01*
X114100000Y-90085440D01*
X115400000Y-90085440D01*
X115635317Y-90041162D01*
X115851441Y-89902090D01*
X115887033Y-89850000D01*
X115992200Y-89850000D01*
X116597015Y-90454815D01*
X116844225Y-90619996D01*
X117135830Y-90678000D01*
X118389750Y-90678000D01*
X118532750Y-90821000D01*
X119507000Y-90821000D01*
X119507000Y-90801000D01*
X119761000Y-90801000D01*
X119761000Y-90821000D01*
X119781000Y-90821000D01*
X119781000Y-91075000D01*
X119761000Y-91075000D01*
X119761000Y-91095000D01*
X119507000Y-91095000D01*
X119507000Y-91075000D01*
X118532750Y-91075000D01*
X118374000Y-91233750D01*
X118374000Y-91313816D01*
X118139210Y-91266270D01*
X112968701Y-91266270D01*
X112319340Y-90616910D01*
X112395000Y-90541250D01*
X112395000Y-89127000D01*
X112375000Y-89127000D01*
X112375000Y-88873000D01*
X112395000Y-88873000D01*
X112395000Y-88853000D01*
X112649000Y-88853000D01*
X112649000Y-88873000D01*
M02*
